<?xml version="1.0" standalone="no"?>
 <!DOCTYPE svg PUBLIC "-//W3C//DTD SVG 1.1//EN" 
 "http://www.w3.org/Graphics/SVG/1.1/DTD/svg11.dtd"> 
<svg xmlns="http://www.w3.org/2000/svg" version="1.1" 
    width="8.03402cm" height="3.50774cm" viewBox="0 0 31630 13810 ">
<title>SVG Picture created as connector_pcb-brd.svg date 2021/11/12 21:45:56 </title>
  <desc>Picture generated by PCBNEW </desc>
<g style="fill:#000000; fill-opacity:1;stroke:#000000; stroke-opacity:1;
stroke-linecap:round; stroke-linejoin:round; "
 transform="translate(0 0) scale(1 1)">
</g>
<g style="fill:#000000; fill-opacity:0.0; 
stroke:#000000; stroke-width:-0.000393701; stroke-opacity:1; 
stroke-linecap:round; stroke-linejoin:round;">
<g >
</g>
<g style="fill:#848400; fill-opacity:0.0; 
stroke:#848400; stroke-width:-0.000393701; stroke-opacity:1; 
stroke-linecap:round; stroke-linejoin:round;">
</g>
<g style="fill:#848400; fill-opacity:0.0; 
stroke:#848400; stroke-width:0; stroke-opacity:1; 
stroke-linecap:round; stroke-linejoin:round;">
</g>
<g style="fill:#848400; fill-opacity:1.0; 
stroke:#848400; stroke-width:0; stroke-opacity:1; 
stroke-linecap:round; stroke-linejoin:round;">
<path style="fill:#848400; fill-opacity:1.0; 
stroke:#848400; stroke-width:0; stroke-opacity:1; 
stroke-linecap:round; stroke-linejoin:round;fill-rule:evenodd;"
d="M 8675.13,5472.91
9344.42,5472.91
9344.42,4803.62
8675.13,4803.62
Z" /> 
</g>
<g style="fill:#848400; fill-opacity:1.0; 
stroke:#848400; stroke-width:669.291; stroke-opacity:1; 
stroke-linecap:round; stroke-linejoin:round;">
</g>
<g style="fill:#848400; fill-opacity:0.0; 
stroke:#848400; stroke-width:669.291; stroke-opacity:1; 
stroke-linecap:round; stroke-linejoin:round;">
<path d="M8009 5138
L8009 5138
" />
<path d="M7009 5138
L7009 5138
" />
<path d="M6009 5138
L6009 5138
" />
<path d="M5009 5138
L5009 5138
" />
<path d="M4009 5138
L4009 5138
" />
<path d="M3009 5138
L3009 5138
" />
</g>
<g >
</g>
<g style="fill:#848400; fill-opacity:0.0; 
stroke:#848400; stroke-width:669.291; stroke-opacity:1; 
stroke-linecap:round; stroke-linejoin:round;">
<path d="M24649 12069
L24649 12187
" />
</g>
<g style="fill:#848400; fill-opacity:0.0; 
stroke:#848400; stroke-width:0; stroke-opacity:1; 
stroke-linecap:round; stroke-linejoin:round;">
</g>
<g style="fill:#848400; fill-opacity:1.0; 
stroke:#848400; stroke-width:0; stroke-opacity:1; 
stroke-linecap:round; stroke-linejoin:round;">
<path style="fill:#848400; fill-opacity:1.0; 
stroke:#848400; stroke-width:0; stroke-opacity:1; 
stroke-linecap:round; stroke-linejoin:round;fill-rule:evenodd;"
d="M 25388.2,11735
25378.6,11736.5
25369.2,11738.8
25360.1,11742.1
25351.4,11746.2
25343.1,11751.2
25335.4,11756.9
25328.2,11763.4
25321.7,11770.5
25316,11778.3
25311,11786.6
25306.9,11795.3
25303.6,11804.4
25301.3,11813.8
25299.9,11823.3
25299.4,11833
25299.4,12423.5
25299.9,12433.2
25301.3,12442.7
25303.6,12452.1
25306.9,12461.2
25311,12469.9
25316,12478.2
25321.7,12486
25328.2,12493.1
25335.4,12499.6
25343.1,12505.4
25351.4,12510.3
25360.1,12514.5
25369.2,12517.7
25378.6,12520.1
25388.2,12521.5
25397.8,12522
25870.3,12522
25879.9,12521.5
25889.5,12520.1
25898.8,12517.7
25907.9,12514.5
25916.6,12510.3
25924.9,12505.4
25932.7,12499.6
25939.8,12493.1
25946.3,12486
25952.1,12478.2
25957.1,12469.9
25961.2,12461.2
25964.4,12452.1
25966.8,12442.7
25968.2,12433.2
25968.7,12423.5
25968.7,11833
25968.2,11823.3
25966.8,11813.8
25964.4,11804.4
25961.2,11795.3
25957.1,11786.6
25952.1,11778.3
25946.3,11770.5
25939.8,11763.4
25932.7,11756.9
25924.9,11751.2
25916.6,11746.2
25907.9,11742.1
25898.8,11738.8
25889.5,11736.5
25879.9,11735
25870.3,11734.6
25397.8,11734.6
Z" /> 
</g>
<g >
</g>
<g style="fill:#848400; fill-opacity:1.0; 
stroke:#848400; stroke-width:0; stroke-opacity:1; 
stroke-linecap:round; stroke-linejoin:round;">
<path style="fill:#848400; fill-opacity:1.0; 
stroke:#848400; stroke-width:0; stroke-opacity:1; 
stroke-linecap:round; stroke-linejoin:round;fill-rule:evenodd;"
d="M 9230.92,11744.9
9221.36,11746.3
9211.99,11748.6
9202.9,11751.9
9194.17,11756
9185.88,11761
9178.13,11766.7
9170.97,11773.2
9164.48,11780.4
9158.73,11788.1
9153.76,11796.4
9149.63,11805.2
9146.38,11814.3
9144.03,11823.6
9142.61,11833.2
9142.14,11842.8
9142.14,12413.7
9142.61,12423.3
9144.03,12432.9
9146.38,12442.3
9149.63,12451.4
9153.76,12460.1
9158.73,12468.4
9164.48,12476.1
9170.97,12483.3
9178.13,12489.8
9185.88,12495.5
9194.17,12500.5
9202.9,12504.6
9211.99,12507.9
9221.36,12510.2
9230.92,12511.6
9240.57,12512.1
9713.01,12512.1
9722.65,12511.6
9732.21,12510.2
9741.58,12507.9
9750.67,12504.6
9759.4,12500.5
9767.69,12495.5
9775.45,12489.8
9782.6,12483.3
9789.09,12476.1
9794.84,12468.4
9799.81,12460.1
9803.94,12451.4
9807.19,12442.3
9809.54,12432.9
9810.96,12423.3
9811.43,12413.7
9811.43,11842.8
9810.96,11833.2
9809.54,11823.6
9807.19,11814.3
9803.94,11805.2
9799.81,11796.4
9794.84,11788.1
9789.09,11780.4
9782.6,11773.2
9775.45,11766.7
9767.69,11761
9759.4,11756
9750.67,11751.9
9741.58,11748.6
9732.21,11746.3
9722.65,11744.9
9713.01,11744.4
9240.57,11744.4
Z" /> 
</g>
<g style="fill:#848400; fill-opacity:1.0; 
stroke:#848400; stroke-width:669.291; stroke-opacity:1; 
stroke-linecap:round; stroke-linejoin:round;">
</g>
<g style="fill:#848400; fill-opacity:0.0; 
stroke:#848400; stroke-width:669.291; stroke-opacity:1; 
stroke-linecap:round; stroke-linejoin:round;">
<path d="M8492 12079
L8492 12177
" />
<path d="M7508 12079
L7508 12177
" />
<path d="M6524 12079
L6524 12177
" />
<path d="M5539 12079
L5539 12177
" />
<path d="M4555 12079
L4555 12177
" />
</g>
<g >
</g>
<g >
</g>
<g style="fill:#840000; fill-opacity:0.0; 
stroke:#840000; stroke-width:669.291; stroke-opacity:1; 
stroke-linecap:round; stroke-linejoin:round;">
</g>
<g style="fill:#840000; fill-opacity:0.0; 
stroke:#840000; stroke-width:98.4252; stroke-opacity:1; 
stroke-linecap:round; stroke-linejoin:round;">
<path d="M4009 4665
L4776 3898
" />
<path d="M4009 5138
L4009 4665
" />
<path d="M4776 3898
L4809 3898
" />
<path d="M4809 3898
L5059 3648
" />
<path d="M5059 3648
L24059 3648
" />
<path d="M24059 3648
L26309 5898
" />
<path d="M26309 5898
L26309 10398
" />
<path d="M25634 11074
L25634 12128
" />
<path d="M26309 10398
L25634 11074
" />
<path d="M23559 11471
L24216 12128
" />
<path d="M8009 4665
L8526 4148
" />
<path d="M8526 4148
L23059 4148
" />
<path d="M23559 4648
L23559 11471
" />
<path d="M24216 12128
L24649 12128
" />
<path d="M8009 5138
L8009 4665
" />
<path d="M23059 4148
L23559 4648
" />
<path d="M7009 5611
L9046 7648
" />
<path d="M7009 5138
L7009 5611
" />
<path d="M9046 7648
L9046 10661
" />
<path d="M8492 11215
L8492 12128
" />
<path d="M9046 10661
L8492 11215
" />
<path d="M6009 9348
L6009 5138
" />
<path d="M7508 12128
L7508 10846
" />
<path d="M7508 10846
L6009 9348
" />
<path d="M6524 12128
L6524 10434
" />
<path d="M5009 8919
L5009 5138
" />
<path d="M6524 10434
L5009 8919
" />
<path d="M3009 5611
L3559 6161
" />
<path d="M3009 5138
L3009 5611
" />
<path d="M3559 11565
L4122 12128
" />
<path d="M4122 12128
L4555 12128
" />
<path d="M3559 6161
L3559 11565
" />
<path d="M4809 11398
L5539 12128
" />
<path d="M4059 10648
L4809 11398
" />
<path d="M4059 5661
L4059 10648
" />
<path d="M4009 5138
L4009 5611
" />
<path d="M4009 5611
L4059 5661
" />
<path d="M9442 5138
L9009 5138
" />
<path d="M9476 5172
L9442 5138
" />
<path d="M9476 12128
L9476 5172
" />
</g>
<g >
</g>
</g>
<g style="fill:#FFFFFF; fill-opacity:0.0; 
stroke:#FFFFFF; stroke-width:98.4252; stroke-opacity:1; 
stroke-linecap:round; stroke-linejoin:round;">
</g>
<g style="fill:#FFFFFF; fill-opacity:1.0; 
stroke:#FFFFFF; stroke-width:0; stroke-opacity:1; 
stroke-linecap:round; stroke-linejoin:round;">
<circle cx="9009.78" cy="5138.26" r="196.85" /> 
</g>
<g style="fill:#FFFFFF; fill-opacity:1.0; 
stroke:#FFFFFF; stroke-width:393.701; stroke-opacity:1; 
stroke-linecap:round; stroke-linejoin:round;">
</g>
<g style="fill:#FFFFFF; fill-opacity:1.0; 
stroke:#FFFFFF; stroke-width:0; stroke-opacity:1; 
stroke-linecap:round; stroke-linejoin:round;">
<circle cx="8009.78" cy="5138.26" r="196.85" /> 
</g>
<g style="fill:#FFFFFF; fill-opacity:1.0; 
stroke:#FFFFFF; stroke-width:393.701; stroke-opacity:1; 
stroke-linecap:round; stroke-linejoin:round;">
</g>
<g style="fill:#FFFFFF; fill-opacity:1.0; 
stroke:#FFFFFF; stroke-width:0; stroke-opacity:1; 
stroke-linecap:round; stroke-linejoin:round;">
<circle cx="7009.78" cy="5138.26" r="196.85" /> 
</g>
<g style="fill:#FFFFFF; fill-opacity:1.0; 
stroke:#FFFFFF; stroke-width:393.701; stroke-opacity:1; 
stroke-linecap:round; stroke-linejoin:round;">
</g>
<g style="fill:#FFFFFF; fill-opacity:1.0; 
stroke:#FFFFFF; stroke-width:0; stroke-opacity:1; 
stroke-linecap:round; stroke-linejoin:round;">
<circle cx="6009.78" cy="5138.26" r="196.85" /> 
</g>
<g style="fill:#FFFFFF; fill-opacity:1.0; 
stroke:#FFFFFF; stroke-width:393.701; stroke-opacity:1; 
stroke-linecap:round; stroke-linejoin:round;">
</g>
<g style="fill:#FFFFFF; fill-opacity:1.0; 
stroke:#FFFFFF; stroke-width:0; stroke-opacity:1; 
stroke-linecap:round; stroke-linejoin:round;">
<circle cx="5009.78" cy="5138.26" r="196.85" /> 
</g>
<g style="fill:#FFFFFF; fill-opacity:1.0; 
stroke:#FFFFFF; stroke-width:393.701; stroke-opacity:1; 
stroke-linecap:round; stroke-linejoin:round;">
</g>
<g style="fill:#FFFFFF; fill-opacity:1.0; 
stroke:#FFFFFF; stroke-width:0; stroke-opacity:1; 
stroke-linecap:round; stroke-linejoin:round;">
<circle cx="4009.78" cy="5138.26" r="196.85" /> 
</g>
<g style="fill:#FFFFFF; fill-opacity:1.0; 
stroke:#FFFFFF; stroke-width:393.701; stroke-opacity:1; 
stroke-linecap:round; stroke-linejoin:round;">
</g>
<g style="fill:#FFFFFF; fill-opacity:1.0; 
stroke:#FFFFFF; stroke-width:0; stroke-opacity:1; 
stroke-linecap:round; stroke-linejoin:round;">
<circle cx="3009.78" cy="5138.26" r="196.85" /> 
</g>
<g style="fill:#FFFFFF; fill-opacity:1.0; 
stroke:#FFFFFF; stroke-width:393.701; stroke-opacity:1; 
stroke-linecap:round; stroke-linejoin:round;">
</g>
<g style="fill:#FFFFFF; fill-opacity:1.0; 
stroke:#FFFFFF; stroke-width:0; stroke-opacity:1; 
stroke-linecap:round; stroke-linejoin:round;">
<circle cx="24649.8" cy="12128.3" r="196.85" /> 
</g>
<g style="fill:#FFFFFF; fill-opacity:1.0; 
stroke:#FFFFFF; stroke-width:393.701; stroke-opacity:1; 
stroke-linecap:round; stroke-linejoin:round;">
</g>
<g style="fill:#FFFFFF; fill-opacity:1.0; 
stroke:#FFFFFF; stroke-width:0; stroke-opacity:1; 
stroke-linecap:round; stroke-linejoin:round;">
<circle cx="25634" cy="12128.3" r="196.85" /> 
</g>
<g style="fill:#FFFFFF; fill-opacity:1.0; 
stroke:#FFFFFF; stroke-width:393.701; stroke-opacity:1; 
stroke-linecap:round; stroke-linejoin:round;">
</g>
<g style="fill:#FFFFFF; fill-opacity:1.0; 
stroke:#FFFFFF; stroke-width:0; stroke-opacity:1; 
stroke-linecap:round; stroke-linejoin:round;">
<circle cx="9476.79" cy="12128.3" r="187.008" /> 
</g>
<g style="fill:#FFFFFF; fill-opacity:1.0; 
stroke:#FFFFFF; stroke-width:393.701; stroke-opacity:1; 
stroke-linecap:round; stroke-linejoin:round;">
</g>
<g style="fill:#FFFFFF; fill-opacity:1.0; 
stroke:#FFFFFF; stroke-width:0; stroke-opacity:1; 
stroke-linecap:round; stroke-linejoin:round;">
<circle cx="8492.53" cy="12128.3" r="187.008" /> 
</g>
<g style="fill:#FFFFFF; fill-opacity:1.0; 
stroke:#FFFFFF; stroke-width:393.701; stroke-opacity:1; 
stroke-linecap:round; stroke-linejoin:round;">
</g>
<g style="fill:#FFFFFF; fill-opacity:1.0; 
stroke:#FFFFFF; stroke-width:0; stroke-opacity:1; 
stroke-linecap:round; stroke-linejoin:round;">
<circle cx="7508.28" cy="12128.3" r="187.008" /> 
</g>
<g style="fill:#FFFFFF; fill-opacity:1.0; 
stroke:#FFFFFF; stroke-width:393.701; stroke-opacity:1; 
stroke-linecap:round; stroke-linejoin:round;">
</g>
<g style="fill:#FFFFFF; fill-opacity:1.0; 
stroke:#FFFFFF; stroke-width:0; stroke-opacity:1; 
stroke-linecap:round; stroke-linejoin:round;">
<circle cx="6524.03" cy="12128.3" r="187.008" /> 
</g>
<g style="fill:#FFFFFF; fill-opacity:1.0; 
stroke:#FFFFFF; stroke-width:393.701; stroke-opacity:1; 
stroke-linecap:round; stroke-linejoin:round;">
</g>
<g style="fill:#FFFFFF; fill-opacity:1.0; 
stroke:#FFFFFF; stroke-width:0; stroke-opacity:1; 
stroke-linecap:round; stroke-linejoin:round;">
<circle cx="5539.78" cy="12128.3" r="187.008" /> 
</g>
<g style="fill:#FFFFFF; fill-opacity:1.0; 
stroke:#FFFFFF; stroke-width:393.701; stroke-opacity:1; 
stroke-linecap:round; stroke-linejoin:round;">
</g>
<g style="fill:#FFFFFF; fill-opacity:1.0; 
stroke:#FFFFFF; stroke-width:0; stroke-opacity:1; 
stroke-linecap:round; stroke-linejoin:round;">
<circle cx="4555.53" cy="12128.3" r="187.008" /> 
</g>
<g style="fill:#FFFFFF; fill-opacity:1.0; 
stroke:#FFFFFF; stroke-width:393.701; stroke-opacity:1; 
stroke-linecap:round; stroke-linejoin:round;">
</g>
<g style="fill:#000000; fill-opacity:1.0; 
stroke:#000000; stroke-width:393.701; stroke-opacity:1; 
stroke-linecap:round; stroke-linejoin:round;">
</g>
<g style="fill:#C2C200; fill-opacity:1.0; 
stroke:#C2C200; stroke-width:393.701; stroke-opacity:1; 
stroke-linecap:round; stroke-linejoin:round;">
</g>
<g style="fill:#C2C200; fill-opacity:1.0; 
stroke:#C2C200; stroke-width:157.48; stroke-opacity:1; 
stroke-linecap:round; stroke-linejoin:round;">
</g>
<g style="fill:#C2C200; fill-opacity:0.0; 
stroke:#C2C200; stroke-width:157.48; stroke-opacity:1; 
stroke-linecap:round; stroke-linejoin:round;">
<path d="M22355 13298
L22355 4573
" />
<path d="M3253 3293
L4368 3293
" />
<path d="M22355 4573
L10909 4573
" />
<path d="M10909 4573
L10909 13298
" />
<circle cx="7591.57" cy="9002.53" r="984.252" /> 
<path d="M72 3293
L72 5098
" />
<path d="M3253 3293
L72 3293
" />
<circle cx="24971.3" cy="10054.8" r="590.551" /> 
<path d="M4368 3293
L27910 3293
" />
<circle cx="4948.21" cy="10054.8" r="590.551" /> 
<path d="M27910 3293
L27910 13298
" />
<path d="M27910 13298
L22355 13298
" />
<path d="M3086 13298
L3086 9002
" />
<path d="M3086.97 9002.53 A4035.43 4035.43 0.0 0 0 72.0185 5098.26 " />
<path d="M10909 13298
L3086 13298
" />
<g >
</g>
<g >
</g>
<g >
</g>
<g >
</g>
</g> 
</svg>
