solid CATIA STL
  facet normal  0.000000e+000  5.902480e-001 -8.072219e-001
    outer loop
      vertex -4.547736e+001  1.468865e+003  2.639499e+001
      vertex -8.647736e+001  1.468865e+003  2.639499e+001
      vertex -8.647736e+001  1.484603e+003  3.790279e+001
    endloop
  endfacet
  facet normal  0.000000e+000  5.902480e-001 -8.072219e-001
    outer loop
      vertex -4.547736e+001  1.468865e+003  2.639499e+001
      vertex -8.647736e+001  1.484603e+003  3.790279e+001
      vertex -8.347736e+001  1.484603e+003  3.790279e+001
    endloop
  endfacet
  facet normal  0.000000e+000  5.902480e-001 -8.072219e-001
    outer loop
      vertex -4.547736e+001  1.468865e+003  2.639499e+001
      vertex -8.347736e+001  1.484603e+003  3.790279e+001
      vertex -8.160461e+001  1.484603e+003  3.790279e+001
    endloop
  endfacet
  facet normal  0.000000e+000  5.902480e-001 -8.072219e-001
    outer loop
      vertex -4.547736e+001  1.468865e+003  2.639499e+001
      vertex -8.160461e+001  1.484603e+003  3.790279e+001
      vertex -4.818444e+001  1.484603e+003  3.790279e+001
    endloop
  endfacet
  facet normal -5.402202e-006  5.902475e-001 -8.072224e-001
    outer loop
      vertex -4.547736e+001  1.468865e+003  2.639499e+001
      vertex -4.818444e+001  1.484603e+003  3.790279e+001
      vertex -4.818444e+001  1.489225e+003  4.128257e+001
    endloop
  endfacet
  facet normal -7.930247e-005  5.902410e-001 -8.072271e-001
    outer loop
      vertex -4.547736e+001  1.468865e+003  2.639499e+001
      vertex -4.818444e+001  1.489225e+003  4.128257e+001
      vertex -4.547736e+001  1.471508e+003  2.832777e+001
    endloop
  endfacet
  facet normal  0.000000e+000  5.902489e-001 -8.072213e-001
    outer loop
      vertex -4.333264e+001  1.489225e+003  4.128257e+001
      vertex -4.333264e+001  1.471508e+003  2.832777e+001
      vertex -4.818444e+001  1.489225e+003  4.128257e+001
    endloop
  endfacet
  facet normal  0.000000e+000  5.902489e-001 -8.072213e-001
    outer loop
      vertex -4.818444e+001  1.489225e+003  4.128257e+001
      vertex -4.333264e+001  1.471508e+003  2.832777e+001
      vertex -4.547736e+001  1.471508e+003  2.832777e+001
    endloop
  endfacet
  facet normal  0.000000e+000  1.000000e+000  0.000000e+000
    outer loop
      vertex -4.172736e+001  1.490865e+003  4.315279e+001
      vertex -4.172736e+001  1.490865e+003  3.936261e+000
      vertex -4.333264e+001  1.490865e+003  4.128257e+001
    endloop
  endfacet
  facet normal  0.000000e+000  1.000000e+000  0.000000e+000
    outer loop
      vertex -4.172736e+001  1.490865e+003  4.315279e+001
      vertex -4.333264e+001  1.490865e+003  4.128257e+001
      vertex -4.818444e+001  1.490865e+003  4.128257e+001
    endloop
  endfacet
  facet normal  0.000000e+000  1.000000e+000  0.000000e+000
    outer loop
      vertex -4.172736e+001  1.490865e+003  4.315279e+001
      vertex -4.818444e+001  1.490865e+003  4.128257e+001
      vertex -8.347736e+001  1.490865e+003  4.140279e+001
    endloop
  endfacet
  facet normal  0.000000e+000  1.000000e+000  0.000000e+000
    outer loop
      vertex -4.172736e+001  1.490865e+003  4.315279e+001
      vertex -8.347736e+001  1.490865e+003  4.140279e+001
      vertex -8.647736e+001  1.490865e+003  4.140279e+001
    endloop
  endfacet
  facet normal  0.000000e+000  1.000000e+000  0.000000e+000
    outer loop
      vertex -8.647736e+001  1.490865e+003  4.140279e+001
      vertex -8.647736e+001  1.490865e+003  4.495917e+001
      vertex -4.215847e+001  1.490865e+003  4.495917e+001
    endloop
  endfacet
  facet normal  0.000000e+000  1.000000e+000  0.000000e+000
    outer loop
      vertex -8.647736e+001  1.490865e+003  4.140279e+001
      vertex -4.215847e+001  1.490865e+003  4.495917e+001
      vertex -4.205885e+001  1.490865e+003  4.474717e+001
    endloop
  endfacet
  facet normal  0.000000e+000  1.000000e+000  0.000000e+000
    outer loop
      vertex -8.647736e+001  1.490865e+003  4.140279e+001
      vertex -4.205885e+001  1.490865e+003  4.474717e+001
      vertex -4.197182e+001  1.490865e+003  4.452969e+001
    endloop
  endfacet
  facet normal  0.000000e+000  1.000000e+000  0.000000e+000
    outer loop
      vertex -8.647736e+001  1.490865e+003  4.140279e+001
      vertex -4.197182e+001  1.490865e+003  4.452969e+001
      vertex -4.189766e+001  1.490865e+003  4.430750e+001
    endloop
  endfacet
  facet normal  0.000000e+000  1.000000e+000  0.000000e+000
    outer loop
      vertex -8.647736e+001  1.490865e+003  4.140279e+001
      vertex -4.189766e+001  1.490865e+003  4.430750e+001
      vertex -4.183663e+001  1.490865e+003  4.408135e+001
    endloop
  endfacet
  facet normal  0.000000e+000  1.000000e+000  0.000000e+000
    outer loop
      vertex -8.647736e+001  1.490865e+003  4.140279e+001
      vertex -4.183663e+001  1.490865e+003  4.408135e+001
      vertex -4.178895e+001  1.490865e+003  4.385201e+001
    endloop
  endfacet
  facet normal  0.000000e+000  1.000000e+000  0.000000e+000
    outer loop
      vertex -8.647736e+001  1.490865e+003  4.140279e+001
      vertex -4.178895e+001  1.490865e+003  4.385201e+001
      vertex -4.175478e+001  1.490865e+003  4.362027e+001
    endloop
  endfacet
  facet normal  0.000000e+000  1.000000e+000  0.000000e+000
    outer loop
      vertex -8.647736e+001  1.490865e+003  4.140279e+001
      vertex -4.175478e+001  1.490865e+003  4.362027e+001
      vertex -4.173422e+001  1.490865e+003  4.338693e+001
    endloop
  endfacet
  facet normal  0.000000e+000  1.000000e+000  0.000000e+000
    outer loop
      vertex -8.647736e+001  1.490865e+003  4.140279e+001
      vertex -4.173422e+001  1.490865e+003  4.338693e+001
      vertex -4.172736e+001  1.490865e+003  4.315279e+001
    endloop
  endfacet
  facet normal  0.000000e+000  1.000000e+000  0.000000e+000
    outer loop
      vertex -4.172736e+001  1.490865e+003  3.936261e+000
      vertex -4.397736e+001  1.490865e+003  3.936261e+000
      vertex -4.547736e+001  1.490865e+003  2.832777e+001
    endloop
  endfacet
  facet normal  0.000000e+000  1.000000e+000  0.000000e+000
    outer loop
      vertex -4.172736e+001  1.490865e+003  3.936261e+000
      vertex -4.547736e+001  1.490865e+003  2.832777e+001
      vertex -4.333264e+001  1.490865e+003  2.832777e+001
    endloop
  endfacet
  facet normal  0.000000e+000  1.000000e+000  0.000000e+000
    outer loop
      vertex -4.172736e+001  1.490865e+003  3.936261e+000
      vertex -4.333264e+001  1.490865e+003  2.832777e+001
      vertex -4.333264e+001  1.490865e+003  4.128257e+001
    endloop
  endfacet
  facet normal  0.000000e+000  1.000000e+000  0.000000e+000
    outer loop
      vertex -4.818444e+001  1.490865e+003  3.790279e+001
      vertex -8.347736e+001  1.490865e+003  3.790279e+001
      vertex -4.818444e+001  1.490865e+003  4.128257e+001
    endloop
  endfacet
  facet normal  0.000000e+000  1.000000e+000  0.000000e+000
    outer loop
      vertex -4.818444e+001  1.490865e+003  4.128257e+001
      vertex -8.347736e+001  1.490865e+003  3.790279e+001
      vertex -8.347736e+001  1.490865e+003  4.140279e+001
    endloop
  endfacet
  facet normal  0.000000e+000  1.000000e+000  0.000000e+000
    outer loop
      vertex -4.397736e+001  1.490865e+003  1.402792e+000
      vertex -4.547736e+001  1.490865e+003  1.402792e+000
      vertex -4.397736e+001  1.490865e+003  3.936261e+000
    endloop
  endfacet
  facet normal  0.000000e+000  1.000000e+000  0.000000e+000
    outer loop
      vertex -4.397736e+001  1.490865e+003  3.936261e+000
      vertex -4.547736e+001  1.490865e+003  1.402792e+000
      vertex -4.547736e+001  1.490865e+003  2.832777e+001
    endloop
  endfacet
  facet normal  0.000000e+000  0.000000e+000 -1.000000e+000
    outer loop
      vertex -4.818444e+001  1.490865e+003  3.790279e+001
      vertex -4.818444e+001  1.484603e+003  3.790279e+001
      vertex -8.347736e+001  1.490865e+003  3.790279e+001
    endloop
  endfacet
  facet normal  0.000000e+000  0.000000e+000 -1.000000e+000
    outer loop
      vertex -8.347736e+001  1.490865e+003  3.790279e+001
      vertex -4.818444e+001  1.484603e+003  3.790279e+001
      vertex -8.160461e+001  1.484603e+003  3.790279e+001
    endloop
  endfacet
  facet normal  0.000000e+000  0.000000e+000 -1.000000e+000
    outer loop
      vertex -8.347736e+001  1.490865e+003  3.790279e+001
      vertex -8.160461e+001  1.484603e+003  3.790279e+001
      vertex -8.347736e+001  1.484603e+003  3.790279e+001
    endloop
  endfacet
  facet normal -1.000000e+000  0.000000e+000  0.000000e+000
    outer loop
      vertex -4.547736e+001  1.490865e+003  2.832777e+001
      vertex -4.547736e+001  1.468865e+003  2.639499e+001
      vertex -4.547736e+001  1.471508e+003  2.832777e+001
    endloop
  endfacet
  facet normal -1.000000e+000  0.000000e+000  0.000000e+000
    outer loop
      vertex -4.547736e+001  1.468865e+003  2.351329e+001
      vertex -4.547736e+001  1.468865e+003  2.639499e+001
      vertex -4.547736e+001  1.486865e+003  2.351329e+001
    endloop
  endfacet
  facet normal -1.000000e+000  0.000000e+000  0.000000e+000
    outer loop
      vertex -4.547736e+001  1.486865e+003  2.351329e+001
      vertex -4.547736e+001  1.468865e+003  2.639499e+001
      vertex -4.547736e+001  1.490865e+003  2.832777e+001
    endloop
  endfacet
  facet normal -1.000000e+000  0.000000e+000  0.000000e+000
    outer loop
      vertex -4.547736e+001  1.486865e+003  2.351329e+001
      vertex -4.547736e+001  1.490865e+003  2.832777e+001
      vertex -4.547736e+001  1.486865e+003  2.298854e+001
    endloop
  endfacet
  facet normal -1.000000e+000  0.000000e+000  0.000000e+000
    outer loop
      vertex -4.547736e+001  1.486865e+003  2.298854e+001
      vertex -4.547736e+001  1.490865e+003  2.832777e+001
      vertex -4.547736e+001  1.490865e+003  1.402792e+000
    endloop
  endfacet
  facet normal -1.000000e+000  0.000000e+000  0.000000e+000
    outer loop
      vertex -4.547736e+001  1.486865e+003  2.298854e+001
      vertex -4.547736e+001  1.490865e+003  1.402792e+000
      vertex -4.547736e+001  1.466865e+003  2.298854e+001
    endloop
  endfacet
  facet normal -1.000000e+000  0.000000e+000  0.000000e+000
    outer loop
      vertex -4.547736e+001  1.466865e+003  2.298854e+001
      vertex -4.547736e+001  1.490865e+003  1.402792e+000
      vertex -4.547736e+001  1.466865e+003  1.402792e+000
    endloop
  endfacet
  facet normal  0.000000e+000  0.000000e+000  1.000000e+000
    outer loop
      vertex -4.333264e+001  1.490865e+003  2.832777e+001
      vertex -4.547736e+001  1.490865e+003  2.832777e+001
      vertex -4.333264e+001  1.471508e+003  2.832777e+001
    endloop
  endfacet
  facet normal  0.000000e+000  0.000000e+000  1.000000e+000
    outer loop
      vertex -4.333264e+001  1.471508e+003  2.832777e+001
      vertex -4.547736e+001  1.490865e+003  2.832777e+001
      vertex -4.547736e+001  1.471508e+003  2.832777e+001
    endloop
  endfacet
  facet normal -1.000000e+000  0.000000e+000  0.000000e+000
    outer loop
      vertex -4.333264e+001  1.490865e+003  4.128257e+001
      vertex -4.333264e+001  1.490865e+003  2.832777e+001
      vertex -4.333264e+001  1.489225e+003  4.128257e+001
    endloop
  endfacet
  facet normal -1.000000e+000  0.000000e+000  0.000000e+000
    outer loop
      vertex -4.333264e+001  1.489225e+003  4.128257e+001
      vertex -4.333264e+001  1.490865e+003  2.832777e+001
      vertex -4.333264e+001  1.471508e+003  2.832777e+001
    endloop
  endfacet
  facet normal  0.000000e+000  0.000000e+000 -1.000000e+000
    outer loop
      vertex -4.818444e+001  1.490865e+003  4.128257e+001
      vertex -4.333264e+001  1.490865e+003  4.128257e+001
      vertex -4.818444e+001  1.489225e+003  4.128257e+001
    endloop
  endfacet
  facet normal  0.000000e+000  0.000000e+000 -1.000000e+000
    outer loop
      vertex -4.818444e+001  1.489225e+003  4.128257e+001
      vertex -4.333264e+001  1.490865e+003  4.128257e+001
      vertex -4.333264e+001  1.489225e+003  4.128257e+001
    endloop
  endfacet
  facet normal  1.000000e+000  0.000000e+000  0.000000e+000
    outer loop
      vertex -4.818444e+001  1.490865e+003  3.790279e+001
      vertex -4.818444e+001  1.490865e+003  4.128257e+001
      vertex -4.818444e+001  1.484603e+003  3.790279e+001
    endloop
  endfacet
  facet normal  1.000000e+000  0.000000e+000  0.000000e+000
    outer loop
      vertex -4.818444e+001  1.484603e+003  3.790279e+001
      vertex -4.818444e+001  1.490865e+003  4.128257e+001
      vertex -4.818444e+001  1.489225e+003  4.128257e+001
    endloop
  endfacet
  facet normal  0.000000e+000 -1.000000e+000  0.000000e+000
    outer loop
      vertex -4.172736e+001  1.466865e+003  2.639499e+001
      vertex -8.647736e+001  1.466865e+003  2.639499e+001
      vertex -8.647736e+001  1.466865e+003  2.351329e+001
    endloop
  endfacet
  facet normal  0.000000e+000 -1.000000e+000  0.000000e+000
    outer loop
      vertex -4.172736e+001  1.466865e+003  2.639499e+001
      vertex -8.647736e+001  1.466865e+003  2.351329e+001
      vertex -4.692167e+001  1.466865e+003  2.351329e+001
    endloop
  endfacet
  facet normal  0.000000e+000 -1.000000e+000  0.000000e+000
    outer loop
      vertex -4.172736e+001  1.466865e+003  2.639499e+001
      vertex -4.692167e+001  1.466865e+003  2.351329e+001
      vertex -4.674760e+001  1.466865e+003  2.350655e+001
    endloop
  endfacet
  facet normal  0.000000e+000 -1.000000e+000  0.000000e+000
    outer loop
      vertex -4.172736e+001  1.466865e+003  2.639499e+001
      vertex -4.674760e+001  1.466865e+003  2.350655e+001
      vertex -4.657457e+001  1.466865e+003  2.348635e+001
    endloop
  endfacet
  facet normal  0.000000e+000 -1.000000e+000  0.000000e+000
    outer loop
      vertex -4.172736e+001  1.466865e+003  2.639499e+001
      vertex -4.657457e+001  1.466865e+003  2.348635e+001
      vertex -4.640361e+001  1.466865e+003  2.345284e+001
    endloop
  endfacet
  facet normal  0.000000e+000 -1.000000e+000  0.000000e+000
    outer loop
      vertex -4.172736e+001  1.466865e+003  2.639499e+001
      vertex -4.640361e+001  1.466865e+003  2.345284e+001
      vertex -4.623577e+001  1.466865e+003  2.340620e+001
    endloop
  endfacet
  facet normal  0.000000e+000 -1.000000e+000  0.000000e+000
    outer loop
      vertex -4.172736e+001  1.466865e+003  2.639499e+001
      vertex -4.623577e+001  1.466865e+003  2.340620e+001
      vertex -4.607204e+001  1.466865e+003  2.334671e+001
    endloop
  endfacet
  facet normal  0.000000e+000 -1.000000e+000  0.000000e+000
    outer loop
      vertex -4.172736e+001  1.466865e+003  2.639499e+001
      vertex -4.607204e+001  1.466865e+003  2.334671e+001
      vertex -4.591340e+001  1.466865e+003  2.327473e+001
    endloop
  endfacet
  facet normal  0.000000e+000 -1.000000e+000  0.000000e+000
    outer loop
      vertex -4.172736e+001  1.466865e+003  2.639499e+001
      vertex -4.591340e+001  1.466865e+003  2.327473e+001
      vertex -4.576080e+001  1.466865e+003  2.319070e+001
    endloop
  endfacet
  facet normal  0.000000e+000 -1.000000e+000  0.000000e+000
    outer loop
      vertex -4.172736e+001  1.466865e+003  2.639499e+001
      vertex -4.576080e+001  1.466865e+003  2.319070e+001
      vertex -4.561517e+001  1.466865e+003  2.309511e+001
    endloop
  endfacet
  facet normal  0.000000e+000 -1.000000e+000  0.000000e+000
    outer loop
      vertex -4.172736e+001  1.466865e+003  2.639499e+001
      vertex -4.561517e+001  1.466865e+003  2.309511e+001
      vertex -4.547736e+001  1.466865e+003  2.298854e+001
    endloop
  endfacet
  facet normal  0.000000e+000 -1.000000e+000  0.000000e+000
    outer loop
      vertex -4.172736e+001  1.466865e+003  2.639499e+001
      vertex -4.547736e+001  1.466865e+003  2.298854e+001
      vertex -4.172736e+001  1.466865e+003  3.936261e+000
    endloop
  endfacet
  facet normal  0.000000e+000 -1.000000e+000  0.000000e+000
    outer loop
      vertex -4.547736e+001  1.466865e+003  1.402792e+000
      vertex -4.397736e+001  1.466865e+003  1.402792e+000
      vertex -4.547736e+001  1.466865e+003  2.298854e+001
    endloop
  endfacet
  facet normal  0.000000e+000 -1.000000e+000  0.000000e+000
    outer loop
      vertex -4.547736e+001  1.466865e+003  2.298854e+001
      vertex -4.397736e+001  1.466865e+003  1.402792e+000
      vertex -4.397736e+001  1.466865e+003  3.936261e+000
    endloop
  endfacet
  facet normal  0.000000e+000 -1.000000e+000  0.000000e+000
    outer loop
      vertex -4.547736e+001  1.466865e+003  2.298854e+001
      vertex -4.397736e+001  1.466865e+003  3.936261e+000
      vertex -4.172736e+001  1.466865e+003  3.936261e+000
    endloop
  endfacet
  facet normal  1.000000e+000  0.000000e+000  0.000000e+000
    outer loop
      vertex -4.172736e+001  1.490865e+003  4.315279e+001
      vertex -4.172736e+001  1.488394e+003  4.315279e+001
      vertex -4.172736e+001  1.467684e+003  2.800944e+001
    endloop
  endfacet
  facet normal  1.000000e+000  0.000000e+000  0.000000e+000
    outer loop
      vertex -4.172736e+001  1.490865e+003  4.315279e+001
      vertex -4.172736e+001  1.467684e+003  2.800944e+001
      vertex -4.172736e+001  1.467551e+003  2.790286e+001
    endloop
  endfacet
  facet normal  1.000000e+000  0.000000e+000  0.000000e+000
    outer loop
      vertex -4.172736e+001  1.490865e+003  4.315279e+001
      vertex -4.172736e+001  1.467551e+003  2.790286e+001
      vertex -4.172736e+001  1.467427e+003  2.778529e+001
    endloop
  endfacet
  facet normal  1.000000e+000  0.000000e+000  0.000000e+000
    outer loop
      vertex -4.172736e+001  1.490865e+003  4.315279e+001
      vertex -4.172736e+001  1.467427e+003  2.778529e+001
      vertex -4.172736e+001  1.467314e+003  2.765759e+001
    endloop
  endfacet
  facet normal  1.000000e+000  0.000000e+000  0.000000e+000
    outer loop
      vertex -4.172736e+001  1.490865e+003  4.315279e+001
      vertex -4.172736e+001  1.467314e+003  2.765759e+001
      vertex -4.172736e+001  1.467212e+003  2.752068e+001
    endloop
  endfacet
  facet normal  1.000000e+000  0.000000e+000  0.000000e+000
    outer loop
      vertex -4.172736e+001  1.490865e+003  4.315279e+001
      vertex -4.172736e+001  1.467212e+003  2.752068e+001
      vertex -4.172736e+001  1.467122e+003  2.737557e+001
    endloop
  endfacet
  facet normal  1.000000e+000  0.000000e+000  0.000000e+000
    outer loop
      vertex -4.172736e+001  1.490865e+003  4.315279e+001
      vertex -4.172736e+001  1.467122e+003  2.737557e+001
      vertex -4.172736e+001  1.467044e+003  2.722330e+001
    endloop
  endfacet
  facet normal  1.000000e+000  0.000000e+000  0.000000e+000
    outer loop
      vertex -4.172736e+001  1.490865e+003  4.315279e+001
      vertex -4.172736e+001  1.467044e+003  2.722330e+001
      vertex -4.172736e+001  1.466980e+003  2.706501e+001
    endloop
  endfacet
  facet normal  1.000000e+000  0.000000e+000  0.000000e+000
    outer loop
      vertex -4.172736e+001  1.490865e+003  4.315279e+001
      vertex -4.172736e+001  1.466980e+003  2.706501e+001
      vertex -4.172736e+001  1.466930e+003  2.690182e+001
    endloop
  endfacet
  facet normal  1.000000e+000  0.000000e+000  0.000000e+000
    outer loop
      vertex -4.172736e+001  1.490865e+003  4.315279e+001
      vertex -4.172736e+001  1.466930e+003  2.690182e+001
      vertex -4.172736e+001  1.466894e+003  2.673495e+001
    endloop
  endfacet
  facet normal  1.000000e+000  0.000000e+000  0.000000e+000
    outer loop
      vertex -4.172736e+001  1.490865e+003  4.315279e+001
      vertex -4.172736e+001  1.466894e+003  2.673495e+001
      vertex -4.172736e+001  1.466872e+003  2.656559e+001
    endloop
  endfacet
  facet normal  1.000000e+000  0.000000e+000  0.000000e+000
    outer loop
      vertex -4.172736e+001  1.490865e+003  4.315279e+001
      vertex -4.172736e+001  1.466872e+003  2.656559e+001
      vertex -4.172736e+001  1.466865e+003  2.639499e+001
    endloop
  endfacet
  facet normal  1.000000e+000  0.000000e+000  0.000000e+000
    outer loop
      vertex -4.172736e+001  1.490865e+003  4.315279e+001
      vertex -4.172736e+001  1.466865e+003  2.639499e+001
      vertex -4.172736e+001  1.466865e+003  3.936261e+000
    endloop
  endfacet
  facet normal  1.000000e+000  0.000000e+000  0.000000e+000
    outer loop
      vertex -4.172736e+001  1.490865e+003  4.315279e+001
      vertex -4.172736e+001  1.466865e+003  3.936261e+000
      vertex -4.172736e+001  1.490865e+003  3.936261e+000
    endloop
  endfacet
  facet normal -2.669708e-007 -5.902424e-001  8.072260e-001
    outer loop
      vertex -4.172736e+001  1.488394e+003  4.315279e+001
      vertex -8.647736e+001  1.490865e+003  4.495917e+001
      vertex -8.647736e+001  1.486001e+003  4.140279e+001
    endloop
  endfacet
  facet normal  0.000000e+000 -5.902457e-001  8.072236e-001
    outer loop
      vertex -4.172736e+001  1.488394e+003  4.315279e+001
      vertex -8.647736e+001  1.486001e+003  4.140279e+001
      vertex -8.347736e+001  1.486001e+003  4.140279e+001
    endloop
  endfacet
  facet normal  0.000000e+000 -5.902457e-001  8.072236e-001
    outer loop
      vertex -4.172736e+001  1.488394e+003  4.315279e+001
      vertex -8.347736e+001  1.486001e+003  4.140279e+001
      vertex -8.347736e+001  1.481214e+003  3.790279e+001
    endloop
  endfacet
  facet normal  2.545343e-007 -5.902467e-001  8.072229e-001
    outer loop
      vertex -4.172736e+001  1.467684e+003  2.800944e+001
      vertex -4.172736e+001  1.488394e+003  4.315279e+001
      vertex -8.347736e+001  1.481214e+003  3.790279e+001
    endloop
  endfacet
  facet normal  0.000000e+000 -5.902472e-001  8.072225e-001
    outer loop
      vertex -4.172736e+001  1.467684e+003  2.800944e+001
      vertex -8.347736e+001  1.481214e+003  3.790279e+001
      vertex -8.647736e+001  1.481214e+003  3.790279e+001
    endloop
  endfacet
  facet normal  0.000000e+000 -5.902472e-001  8.072225e-001
    outer loop
      vertex -4.172736e+001  1.467684e+003  2.800944e+001
      vertex -8.647736e+001  1.481214e+003  3.790279e+001
      vertex -8.647736e+001  1.467684e+003  2.800944e+001
    endloop
  endfacet
  facet normal  2.651310e-006 -5.902080e-001  8.072512e-001
    outer loop
      vertex -8.647736e+001  1.490865e+003  4.495917e+001
      vertex -4.172736e+001  1.488394e+003  4.315279e+001
      vertex -4.173239e+001  1.488669e+003  4.335324e+001
    endloop
  endfacet
  facet normal -8.440763e-007 -5.902544e-001  8.072172e-001
    outer loop
      vertex -8.647736e+001  1.490865e+003  4.495917e+001
      vertex -4.173239e+001  1.488669e+003  4.335324e+001
      vertex -4.175087e+001  1.488987e+003  4.358586e+001
    endloop
  endfacet
  facet normal -1.007017e-006 -5.902570e-001  8.072154e-001
    outer loop
      vertex -8.647736e+001  1.490865e+003  4.495917e+001
      vertex -4.175087e+001  1.488987e+003  4.358586e+001
      vertex -4.178305e+001  1.489304e+003  4.381794e+001
    endloop
  endfacet
  facet normal  1.522625e-006 -5.902098e-001  8.072499e-001
    outer loop
      vertex -8.647736e+001  1.490865e+003  4.495917e+001
      vertex -4.178305e+001  1.489304e+003  4.381794e+001
      vertex -4.182910e+001  1.489620e+003  4.404918e+001
    endloop
  endfacet
  facet normal -1.626125e-007 -5.902492e-001  8.072211e-001
    outer loop
      vertex -8.647736e+001  1.490865e+003  4.495917e+001
      vertex -4.182910e+001  1.489620e+003  4.404918e+001
      vertex -4.188927e+001  1.489935e+003  4.427929e+001
    endloop
  endfacet
  facet normal -2.594131e-006 -5.903252e-001  8.071656e-001
    outer loop
      vertex -8.647736e+001  1.490865e+003  4.495917e+001
      vertex -4.188927e+001  1.489935e+003  4.427929e+001
      vertex -4.196391e+001  1.490248e+003  4.450793e+001
    endloop
  endfacet
  facet normal  1.585979e-007 -5.901958e-001  8.072602e-001
    outer loop
      vertex -8.647736e+001  1.490865e+003  4.495917e+001
      vertex -4.196391e+001  1.490248e+003  4.450793e+001
      vertex -4.205346e+001  1.490558e+003  4.473471e+001
    endloop
  endfacet
  facet normal -2.927192e-007 -5.902383e-001  8.072290e-001
    outer loop
      vertex -8.647736e+001  1.490865e+003  4.495917e+001
      vertex -4.205346e+001  1.490558e+003  4.473471e+001
      vertex -4.210400e+001  1.490712e+003  4.484726e+001
    endloop
  endfacet
  facet normal  0.000000e+000 -5.901830e-001  8.072695e-001
    outer loop
      vertex -8.647736e+001  1.490865e+003  4.495917e+001
      vertex -4.210400e+001  1.490712e+003  4.484726e+001
      vertex -4.215847e+001  1.490865e+003  4.495917e+001
    endloop
  endfacet
  facet normal -1.000000e+000  0.000000e+000  0.000000e+000
    outer loop
      vertex -8.647736e+001  1.466865e+003  2.351329e+001
      vertex -8.647736e+001  1.466865e+003  2.639499e+001
      vertex -8.647736e+001  1.466872e+003  2.656559e+001
    endloop
  endfacet
  facet normal -1.000000e+000  0.000000e+000  0.000000e+000
    outer loop
      vertex -8.647736e+001  1.466865e+003  2.351329e+001
      vertex -8.647736e+001  1.466872e+003  2.656559e+001
      vertex -8.647736e+001  1.466894e+003  2.673495e+001
    endloop
  endfacet
  facet normal -1.000000e+000  0.000000e+000  0.000000e+000
    outer loop
      vertex -8.647736e+001  1.466865e+003  2.351329e+001
      vertex -8.647736e+001  1.466894e+003  2.673495e+001
      vertex -8.647736e+001  1.466930e+003  2.690182e+001
    endloop
  endfacet
  facet normal -1.000000e+000  0.000000e+000  0.000000e+000
    outer loop
      vertex -8.647736e+001  1.466865e+003  2.351329e+001
      vertex -8.647736e+001  1.466930e+003  2.690182e+001
      vertex -8.647736e+001  1.466980e+003  2.706501e+001
    endloop
  endfacet
  facet normal -1.000000e+000  0.000000e+000  0.000000e+000
    outer loop
      vertex -8.647736e+001  1.466865e+003  2.351329e+001
      vertex -8.647736e+001  1.466980e+003  2.706501e+001
      vertex -8.647736e+001  1.467044e+003  2.722330e+001
    endloop
  endfacet
  facet normal -1.000000e+000  0.000000e+000  0.000000e+000
    outer loop
      vertex -8.647736e+001  1.466865e+003  2.351329e+001
      vertex -8.647736e+001  1.467044e+003  2.722330e+001
      vertex -8.647736e+001  1.467122e+003  2.737557e+001
    endloop
  endfacet
  facet normal -1.000000e+000  0.000000e+000  0.000000e+000
    outer loop
      vertex -8.647736e+001  1.466865e+003  2.351329e+001
      vertex -8.647736e+001  1.467122e+003  2.737557e+001
      vertex -8.647736e+001  1.467212e+003  2.752068e+001
    endloop
  endfacet
  facet normal -1.000000e+000  0.000000e+000  0.000000e+000
    outer loop
      vertex -8.647736e+001  1.466865e+003  2.351329e+001
      vertex -8.647736e+001  1.467212e+003  2.752068e+001
      vertex -8.647736e+001  1.467314e+003  2.765759e+001
    endloop
  endfacet
  facet normal -1.000000e+000  0.000000e+000  0.000000e+000
    outer loop
      vertex -8.647736e+001  1.466865e+003  2.351329e+001
      vertex -8.647736e+001  1.467314e+003  2.765759e+001
      vertex -8.647736e+001  1.467427e+003  2.778529e+001
    endloop
  endfacet
  facet normal -1.000000e+000  0.000000e+000  0.000000e+000
    outer loop
      vertex -8.647736e+001  1.466865e+003  2.351329e+001
      vertex -8.647736e+001  1.467427e+003  2.778529e+001
      vertex -8.647736e+001  1.467551e+003  2.790286e+001
    endloop
  endfacet
  facet normal -1.000000e+000  0.000000e+000  0.000000e+000
    outer loop
      vertex -8.647736e+001  1.466865e+003  2.351329e+001
      vertex -8.647736e+001  1.467551e+003  2.790286e+001
      vertex -8.647736e+001  1.467684e+003  2.800944e+001
    endloop
  endfacet
  facet normal -1.000000e+000  0.000000e+000  0.000000e+000
    outer loop
      vertex -8.647736e+001  1.466865e+003  2.351329e+001
      vertex -8.647736e+001  1.467684e+003  2.800944e+001
      vertex -8.647736e+001  1.468865e+003  2.351329e+001
    endloop
  endfacet
  facet normal -1.000000e+000  0.000000e+000  0.000000e+000
    outer loop
      vertex -8.647736e+001  1.481214e+003  3.790279e+001
      vertex -8.647736e+001  1.484603e+003  3.790279e+001
      vertex -8.647736e+001  1.467684e+003  2.800944e+001
    endloop
  endfacet
  facet normal -1.000000e+000  0.000000e+000  0.000000e+000
    outer loop
      vertex -8.647736e+001  1.467684e+003  2.800944e+001
      vertex -8.647736e+001  1.484603e+003  3.790279e+001
      vertex -8.647736e+001  1.468865e+003  2.639499e+001
    endloop
  endfacet
  facet normal -1.000000e+000  0.000000e+000  0.000000e+000
    outer loop
      vertex -8.647736e+001  1.467684e+003  2.800944e+001
      vertex -8.647736e+001  1.468865e+003  2.639499e+001
      vertex -8.647736e+001  1.468865e+003  2.351329e+001
    endloop
  endfacet
  facet normal  0.000000e+000 -9.990797e-001  4.289286e-002
    outer loop
      vertex -8.647736e+001  1.466865e+003  2.639499e+001
      vertex -4.172736e+001  1.466865e+003  2.639499e+001
      vertex -8.647736e+001  1.466872e+003  2.656559e+001
    endloop
  endfacet
  facet normal  0.000000e+000 -9.990797e-001  4.289286e-002
    outer loop
      vertex -8.647736e+001  1.466872e+003  2.656559e+001
      vertex -4.172736e+001  1.466865e+003  2.639499e+001
      vertex -4.172736e+001  1.466872e+003  2.656559e+001
    endloop
  endfacet
  facet normal  0.000000e+000 -9.918694e-001  1.272596e-001
    outer loop
      vertex -8.647736e+001  1.466872e+003  2.656559e+001
      vertex -4.172736e+001  1.466872e+003  2.656559e+001
      vertex -8.647736e+001  1.466894e+003  2.673495e+001
    endloop
  endfacet
  facet normal  0.000000e+000 -9.918694e-001  1.272596e-001
    outer loop
      vertex -8.647736e+001  1.466894e+003  2.673495e+001
      vertex -4.172736e+001  1.466872e+003  2.656559e+001
      vertex -4.172736e+001  1.466894e+003  2.673495e+001
    endloop
  endfacet
  facet normal  0.000000e+000 -9.772042e-001  2.123017e-001
    outer loop
      vertex -8.647736e+001  1.466894e+003  2.673495e+001
      vertex -4.172736e+001  1.466894e+003  2.673495e+001
      vertex -8.647736e+001  1.466930e+003  2.690182e+001
    endloop
  endfacet
  facet normal  0.000000e+000 -9.772042e-001  2.123017e-001
    outer loop
      vertex -8.647736e+001  1.466930e+003  2.690182e+001
      vertex -4.172736e+001  1.466894e+003  2.673495e+001
      vertex -4.172736e+001  1.466930e+003  2.690182e+001
    endloop
  endfacet
  facet normal  0.000000e+000 -9.556417e-001  2.945316e-001
    outer loop
      vertex -8.647736e+001  1.466930e+003  2.690182e+001
      vertex -4.172736e+001  1.466930e+003  2.690182e+001
      vertex -8.647736e+001  1.466980e+003  2.706501e+001
    endloop
  endfacet
  facet normal  0.000000e+000 -9.556417e-001  2.945316e-001
    outer loop
      vertex -8.647736e+001  1.466980e+003  2.706501e+001
      vertex -4.172736e+001  1.466930e+003  2.690182e+001
      vertex -4.172736e+001  1.466980e+003  2.706501e+001
    endloop
  endfacet
  facet normal  0.000000e+000 -9.271674e-001  3.746474e-001
    outer loop
      vertex -8.647736e+001  1.466980e+003  2.706501e+001
      vertex -4.172736e+001  1.466980e+003  2.706501e+001
      vertex -8.647736e+001  1.467044e+003  2.722330e+001
    endloop
  endfacet
  facet normal  0.000000e+000 -9.271674e-001  3.746474e-001
    outer loop
      vertex -8.647736e+001  1.467044e+003  2.722330e+001
      vertex -4.172736e+001  1.466980e+003  2.706501e+001
      vertex -4.172736e+001  1.467044e+003  2.722330e+001
    endloop
  endfacet
  facet normal  0.000000e+000 -8.917415e-001  4.525452e-001
    outer loop
      vertex -8.647736e+001  1.467044e+003  2.722330e+001
      vertex -4.172736e+001  1.467044e+003  2.722330e+001
      vertex -8.647736e+001  1.467122e+003  2.737557e+001
    endloop
  endfacet
  facet normal  0.000000e+000 -8.917415e-001  4.525452e-001
    outer loop
      vertex -8.647736e+001  1.467122e+003  2.737557e+001
      vertex -4.172736e+001  1.467044e+003  2.722330e+001
      vertex -4.172736e+001  1.467122e+003  2.737557e+001
    endloop
  endfacet
  facet normal  0.000000e+000 -8.499138e-001  5.269217e-001
    outer loop
      vertex -8.647736e+001  1.467122e+003  2.737557e+001
      vertex -4.172736e+001  1.467122e+003  2.737557e+001
      vertex -8.647736e+001  1.467212e+003  2.752068e+001
    endloop
  endfacet
  facet normal  0.000000e+000 -8.499138e-001  5.269217e-001
    outer loop
      vertex -8.647736e+001  1.467212e+003  2.752068e+001
      vertex -4.172736e+001  1.467122e+003  2.737557e+001
      vertex -4.172736e+001  1.467212e+003  2.752068e+001
    endloop
  endfacet
  facet normal  0.000000e+000 -8.017672e-001  5.976365e-001
    outer loop
      vertex -8.647736e+001  1.467212e+003  2.752068e+001
      vertex -4.172736e+001  1.467212e+003  2.752068e+001
      vertex -8.647736e+001  1.467314e+003  2.765759e+001
    endloop
  endfacet
  facet normal  0.000000e+000 -8.017672e-001  5.976365e-001
    outer loop
      vertex -8.647736e+001  1.467314e+003  2.765759e+001
      vertex -4.172736e+001  1.467212e+003  2.752068e+001
      vertex -4.172736e+001  1.467314e+003  2.765759e+001
    endloop
  endfacet
  facet normal  0.000000e+000 -7.477345e-001  6.639978e-001
    outer loop
      vertex -8.647736e+001  1.467314e+003  2.765759e+001
      vertex -4.172736e+001  1.467314e+003  2.765759e+001
      vertex -8.647736e+001  1.467427e+003  2.778529e+001
    endloop
  endfacet
  facet normal  0.000000e+000 -7.477345e-001  6.639978e-001
    outer loop
      vertex -8.647736e+001  1.467427e+003  2.778529e+001
      vertex -4.172736e+001  1.467314e+003  2.765759e+001
      vertex -4.172736e+001  1.467427e+003  2.778529e+001
    endloop
  endfacet
  facet normal  0.000000e+000 -6.886837e-001  7.250619e-001
    outer loop
      vertex -8.647736e+001  1.467427e+003  2.778529e+001
      vertex -4.172736e+001  1.467427e+003  2.778529e+001
      vertex -8.647736e+001  1.467551e+003  2.790286e+001
    endloop
  endfacet
  facet normal  0.000000e+000 -6.886837e-001  7.250619e-001
    outer loop
      vertex -8.647736e+001  1.467551e+003  2.790286e+001
      vertex -4.172736e+001  1.467427e+003  2.778529e+001
      vertex -4.172736e+001  1.467551e+003  2.790286e+001
    endloop
  endfacet
  facet normal  0.000000e+000 -6.241323e-001  7.813187e-001
    outer loop
      vertex -8.647736e+001  1.467551e+003  2.790286e+001
      vertex -4.172736e+001  1.467551e+003  2.790286e+001
      vertex -8.647736e+001  1.467684e+003  2.800944e+001
    endloop
  endfacet
  facet normal  0.000000e+000 -6.241323e-001  7.813187e-001
    outer loop
      vertex -8.647736e+001  1.467684e+003  2.800944e+001
      vertex -4.172736e+001  1.467551e+003  2.790286e+001
      vertex -4.172736e+001  1.467684e+003  2.800944e+001
    endloop
  endfacet
  facet normal  0.000000e+000  0.000000e+000 -1.000000e+000
    outer loop
      vertex -4.397736e+001  1.466865e+003  1.402792e+000
      vertex -4.547736e+001  1.466865e+003  1.402792e+000
      vertex -4.397736e+001  1.490865e+003  1.402792e+000
    endloop
  endfacet
  facet normal  0.000000e+000  0.000000e+000 -1.000000e+000
    outer loop
      vertex -4.397736e+001  1.490865e+003  1.402792e+000
      vertex -4.547736e+001  1.466865e+003  1.402792e+000
      vertex -4.547736e+001  1.490865e+003  1.402792e+000
    endloop
  endfacet
  facet normal  0.000000e+000  1.000000e+000  0.000000e+000
    outer loop
      vertex -4.547736e+001  1.486865e+003  2.351329e+001
      vertex -4.547736e+001  1.486865e+003  2.298854e+001
      vertex -4.561517e+001  1.486865e+003  2.309511e+001
    endloop
  endfacet
  facet normal  0.000000e+000  1.000000e+000  0.000000e+000
    outer loop
      vertex -4.547736e+001  1.486865e+003  2.351329e+001
      vertex -4.561517e+001  1.486865e+003  2.309511e+001
      vertex -4.576080e+001  1.486865e+003  2.319070e+001
    endloop
  endfacet
  facet normal  0.000000e+000  1.000000e+000  0.000000e+000
    outer loop
      vertex -4.547736e+001  1.486865e+003  2.351329e+001
      vertex -4.576080e+001  1.486865e+003  2.319070e+001
      vertex -4.591340e+001  1.486865e+003  2.327473e+001
    endloop
  endfacet
  facet normal  0.000000e+000  1.000000e+000  0.000000e+000
    outer loop
      vertex -4.547736e+001  1.486865e+003  2.351329e+001
      vertex -4.591340e+001  1.486865e+003  2.327473e+001
      vertex -4.607204e+001  1.486865e+003  2.334671e+001
    endloop
  endfacet
  facet normal  0.000000e+000  1.000000e+000  0.000000e+000
    outer loop
      vertex -4.547736e+001  1.486865e+003  2.351329e+001
      vertex -4.607204e+001  1.486865e+003  2.334671e+001
      vertex -4.623577e+001  1.486865e+003  2.340620e+001
    endloop
  endfacet
  facet normal  0.000000e+000  1.000000e+000  0.000000e+000
    outer loop
      vertex -4.547736e+001  1.486865e+003  2.351329e+001
      vertex -4.623577e+001  1.486865e+003  2.340620e+001
      vertex -4.640361e+001  1.486865e+003  2.345284e+001
    endloop
  endfacet
  facet normal  0.000000e+000  1.000000e+000  0.000000e+000
    outer loop
      vertex -4.547736e+001  1.486865e+003  2.351329e+001
      vertex -4.640361e+001  1.486865e+003  2.345284e+001
      vertex -4.657457e+001  1.486865e+003  2.348635e+001
    endloop
  endfacet
  facet normal  0.000000e+000  1.000000e+000  0.000000e+000
    outer loop
      vertex -4.547736e+001  1.486865e+003  2.351329e+001
      vertex -4.657457e+001  1.486865e+003  2.348635e+001
      vertex -4.674760e+001  1.486865e+003  2.350655e+001
    endloop
  endfacet
  facet normal  0.000000e+000  1.000000e+000  0.000000e+000
    outer loop
      vertex -4.547736e+001  1.486865e+003  2.351329e+001
      vertex -4.674760e+001  1.486865e+003  2.350655e+001
      vertex -4.692167e+001  1.486865e+003  2.351329e+001
    endloop
  endfacet
  facet normal -3.871569e-002  0.000000e+000 -9.992503e-001
    outer loop
      vertex -4.692167e+001  1.468865e+003  2.351329e+001
      vertex -4.674760e+001  1.466865e+003  2.350655e+001
      vertex -4.692167e+001  1.466865e+003  2.351329e+001
    endloop
  endfacet
  facet normal -3.871569e-002  0.000000e+000 -9.992503e-001
    outer loop
      vertex -4.692167e+001  1.468865e+003  2.351329e+001
      vertex -4.692167e+001  1.486865e+003  2.351329e+001
      vertex -4.674760e+001  1.466865e+003  2.350655e+001
    endloop
  endfacet
  facet normal -3.871569e-002  0.000000e+000 -9.992503e-001
    outer loop
      vertex -4.674760e+001  1.466865e+003  2.350655e+001
      vertex -4.692167e+001  1.486865e+003  2.351329e+001
      vertex -4.674760e+001  1.486865e+003  2.350655e+001
    endloop
  endfacet
  facet normal -1.159048e-001  0.000000e+000 -9.932603e-001
    outer loop
      vertex -4.674760e+001  1.466865e+003  2.350655e+001
      vertex -4.674760e+001  1.486865e+003  2.350655e+001
      vertex -4.657457e+001  1.466865e+003  2.348635e+001
    endloop
  endfacet
  facet normal -1.159048e-001  0.000000e+000 -9.932603e-001
    outer loop
      vertex -4.657457e+001  1.466865e+003  2.348635e+001
      vertex -4.674760e+001  1.486865e+003  2.350655e+001
      vertex -4.657457e+001  1.486865e+003  2.348635e+001
    endloop
  endfacet
  facet normal -1.923921e-001  0.000000e+000 -9.813181e-001
    outer loop
      vertex -4.657457e+001  1.466865e+003  2.348635e+001
      vertex -4.657457e+001  1.486865e+003  2.348635e+001
      vertex -4.640361e+001  1.466865e+003  2.345284e+001
    endloop
  endfacet
  facet normal -1.923921e-001  0.000000e+000 -9.813181e-001
    outer loop
      vertex -4.640361e+001  1.466865e+003  2.345284e+001
      vertex -4.657457e+001  1.486865e+003  2.348635e+001
      vertex -4.640361e+001  1.486865e+003  2.345284e+001
    endloop
  endfacet
  facet normal -2.677466e-001  0.000000e+000 -9.634894e-001
    outer loop
      vertex -4.640361e+001  1.466865e+003  2.345284e+001
      vertex -4.640361e+001  1.486865e+003  2.345284e+001
      vertex -4.623577e+001  1.466865e+003  2.340620e+001
    endloop
  endfacet
  facet normal -2.677466e-001  0.000000e+000 -9.634894e-001
    outer loop
      vertex -4.623577e+001  1.466865e+003  2.340620e+001
      vertex -4.640361e+001  1.486865e+003  2.345284e+001
      vertex -4.623577e+001  1.486865e+003  2.340620e+001
    endloop
  endfacet
  facet normal -3.414890e-001  0.000000e+000 -9.398858e-001
    outer loop
      vertex -4.623577e+001  1.466865e+003  2.340620e+001
      vertex -4.623577e+001  1.486865e+003  2.340620e+001
      vertex -4.607204e+001  1.466865e+003  2.334671e+001
    endloop
  endfacet
  facet normal -3.414890e-001  0.000000e+000 -9.398858e-001
    outer loop
      vertex -4.607204e+001  1.466865e+003  2.334671e+001
      vertex -4.623577e+001  1.486865e+003  2.340620e+001
      vertex -4.607204e+001  1.486865e+003  2.334671e+001
    endloop
  endfacet
  facet normal -4.131734e-001  0.000000e+000 -9.106523e-001
    outer loop
      vertex -4.607204e+001  1.466865e+003  2.334671e+001
      vertex -4.607204e+001  1.486865e+003  2.334671e+001
      vertex -4.591340e+001  1.466865e+003  2.327473e+001
    endloop
  endfacet
  facet normal -4.131734e-001  0.000000e+000 -9.106523e-001
    outer loop
      vertex -4.591340e+001  1.466865e+003  2.327473e+001
      vertex -4.607204e+001  1.486865e+003  2.334671e+001
      vertex -4.591340e+001  1.486865e+003  2.327473e+001
    endloop
  endfacet
  facet normal -4.823878e-001  0.000000e+000 -8.759578e-001
    outer loop
      vertex -4.591340e+001  1.466865e+003  2.327473e+001
      vertex -4.591340e+001  1.486865e+003  2.327473e+001
      vertex -4.576080e+001  1.466865e+003  2.319070e+001
    endloop
  endfacet
  facet normal -4.823878e-001  0.000000e+000 -8.759578e-001
    outer loop
      vertex -4.576080e+001  1.466865e+003  2.319070e+001
      vertex -4.591340e+001  1.486865e+003  2.327473e+001
      vertex -4.576080e+001  1.486865e+003  2.319070e+001
    endloop
  endfacet
  facet normal -5.487229e-001  0.000000e+000 -8.360043e-001
    outer loop
      vertex -4.576080e+001  1.466865e+003  2.319070e+001
      vertex -4.576080e+001  1.486865e+003  2.319070e+001
      vertex -4.561517e+001  1.466865e+003  2.309511e+001
    endloop
  endfacet
  facet normal -5.487229e-001  0.000000e+000 -8.360043e-001
    outer loop
      vertex -4.561517e+001  1.466865e+003  2.309511e+001
      vertex -4.576080e+001  1.486865e+003  2.319070e+001
      vertex -4.561517e+001  1.486865e+003  2.309511e+001
    endloop
  endfacet
  facet normal -6.117454e-001  0.000000e+000 -7.910547e-001
    outer loop
      vertex -4.561517e+001  1.466865e+003  2.309511e+001
      vertex -4.561517e+001  1.486865e+003  2.309511e+001
      vertex -4.547736e+001  1.466865e+003  2.298854e+001
    endloop
  endfacet
  facet normal -6.117454e-001  0.000000e+000 -7.910547e-001
    outer loop
      vertex -4.547736e+001  1.466865e+003  2.298854e+001
      vertex -4.561517e+001  1.486865e+003  2.309511e+001
      vertex -4.547736e+001  1.486865e+003  2.298854e+001
    endloop
  endfacet
  facet normal  0.000000e+000  0.000000e+000 -1.000000e+000
    outer loop
      vertex -4.692167e+001  1.468865e+003  2.351329e+001
      vertex -4.692167e+001  1.466865e+003  2.351329e+001
      vertex -8.647736e+001  1.468865e+003  2.351329e+001
    endloop
  endfacet
  facet normal  0.000000e+000  0.000000e+000 -1.000000e+000
    outer loop
      vertex -8.647736e+001  1.468865e+003  2.351329e+001
      vertex -4.692167e+001  1.466865e+003  2.351329e+001
      vertex -8.647736e+001  1.466865e+003  2.351329e+001
    endloop
  endfacet
  facet normal  0.000000e+000  0.000000e+000  1.000000e+000
    outer loop
      vertex -4.547736e+001  1.468865e+003  2.351329e+001
      vertex -4.547736e+001  1.486865e+003  2.351329e+001
      vertex -4.692167e+001  1.468865e+003  2.351329e+001
    endloop
  endfacet
  facet normal  0.000000e+000  0.000000e+000  1.000000e+000
    outer loop
      vertex -4.692167e+001  1.468865e+003  2.351329e+001
      vertex -4.547736e+001  1.486865e+003  2.351329e+001
      vertex -4.692167e+001  1.486865e+003  2.351329e+001
    endloop
  endfacet
  facet normal  0.000000e+000  1.000000e+000  0.000000e+000
    outer loop
      vertex -8.647736e+001  1.468865e+003  2.351329e+001
      vertex -8.647736e+001  1.468865e+003  2.639499e+001
      vertex -4.692167e+001  1.468865e+003  2.351329e+001
    endloop
  endfacet
  facet normal  0.000000e+000  1.000000e+000  0.000000e+000
    outer loop
      vertex -4.692167e+001  1.468865e+003  2.351329e+001
      vertex -8.647736e+001  1.468865e+003  2.639499e+001
      vertex -4.547736e+001  1.468865e+003  2.639499e+001
    endloop
  endfacet
  facet normal  0.000000e+000  1.000000e+000  0.000000e+000
    outer loop
      vertex -4.692167e+001  1.468865e+003  2.351329e+001
      vertex -4.547736e+001  1.468865e+003  2.639499e+001
      vertex -4.547736e+001  1.468865e+003  2.351329e+001
    endloop
  endfacet
  facet normal  0.000000e+000  0.000000e+000  1.000000e+000
    outer loop
      vertex -8.647736e+001  1.484603e+003  3.790279e+001
      vertex -8.647736e+001  1.481214e+003  3.790279e+001
      vertex -8.347736e+001  1.484603e+003  3.790279e+001
    endloop
  endfacet
  facet normal  0.000000e+000  0.000000e+000  1.000000e+000
    outer loop
      vertex -8.347736e+001  1.484603e+003  3.790279e+001
      vertex -8.647736e+001  1.481214e+003  3.790279e+001
      vertex -8.347736e+001  1.481214e+003  3.790279e+001
    endloop
  endfacet
  facet normal -1.000000e+000  0.000000e+000  0.000000e+000
    outer loop
      vertex -8.347736e+001  1.490865e+003  4.140279e+001
      vertex -8.347736e+001  1.490865e+003  3.790279e+001
      vertex -8.347736e+001  1.486001e+003  4.140279e+001
    endloop
  endfacet
  facet normal -1.000000e+000  0.000000e+000  0.000000e+000
    outer loop
      vertex -8.347736e+001  1.486001e+003  4.140279e+001
      vertex -8.347736e+001  1.490865e+003  3.790279e+001
      vertex -8.347736e+001  1.484603e+003  3.790279e+001
    endloop
  endfacet
  facet normal -1.000000e+000  0.000000e+000  0.000000e+000
    outer loop
      vertex -8.347736e+001  1.486001e+003  4.140279e+001
      vertex -8.347736e+001  1.484603e+003  3.790279e+001
      vertex -8.347736e+001  1.481214e+003  3.790279e+001
    endloop
  endfacet
  facet normal -1.000000e+000  0.000000e+000  0.000000e+000
    outer loop
      vertex -8.647736e+001  1.490865e+003  4.495917e+001
      vertex -8.647736e+001  1.490865e+003  4.140279e+001
      vertex -8.647736e+001  1.486001e+003  4.140279e+001
    endloop
  endfacet
  facet normal  0.000000e+000  0.000000e+000 -1.000000e+000
    outer loop
      vertex -8.347736e+001  1.486001e+003  4.140279e+001
      vertex -8.647736e+001  1.486001e+003  4.140279e+001
      vertex -8.347736e+001  1.490865e+003  4.140279e+001
    endloop
  endfacet
  facet normal  0.000000e+000  0.000000e+000 -1.000000e+000
    outer loop
      vertex -8.347736e+001  1.490865e+003  4.140279e+001
      vertex -8.647736e+001  1.486001e+003  4.140279e+001
      vertex -8.647736e+001  1.490865e+003  4.140279e+001
    endloop
  endfacet
  facet normal  9.050094e-001  1.116731e-002  4.252450e-001
    outer loop
      vertex -4.215847e+001  1.490865e+003  4.495917e+001
      vertex -4.210400e+001  1.490712e+003  4.484726e+001
      vertex -4.205885e+001  1.490865e+003  4.474717e+001
    endloop
  endfacet
  facet normal  9.996861e-001  0.000000e+000  2.505493e-002
    outer loop
      vertex -4.172736e+001  1.488394e+003  4.315279e+001
      vertex -4.172736e+001  1.490865e+003  4.315279e+001
      vertex -4.173239e+001  1.488669e+003  4.335324e+001
    endloop
  endfacet
  facet normal  9.995711e-001  3.859607e-004  2.928084e-002
    outer loop
      vertex -4.173239e+001  1.488669e+003  4.335324e+001
      vertex -4.172736e+001  1.490865e+003  4.315279e+001
      vertex -4.173422e+001  1.490865e+003  4.338693e+001
    endloop
  endfacet
  facet normal  9.968147e-001 -3.904922e-004  7.975217e-002
    outer loop
      vertex -4.173239e+001  1.488669e+003  4.335324e+001
      vertex -4.173422e+001  1.490865e+003  4.338693e+001
      vertex -4.175087e+001  1.488987e+003  4.358586e+001
    endloop
  endfacet
  facet normal  9.961429e-001  4.619196e-004  8.774409e-002
    outer loop
      vertex -4.175087e+001  1.488987e+003  4.358586e+001
      vertex -4.173422e+001  1.490865e+003  4.338693e+001
      vertex -4.175478e+001  1.490865e+003  4.362027e+001
    endloop
  endfacet
  facet normal  9.904348e-001 -4.704855e-004  1.379804e-001
    outer loop
      vertex -4.175087e+001  1.488987e+003  4.358586e+001
      vertex -4.175478e+001  1.490865e+003  4.362027e+001
      vertex -4.178305e+001  1.489304e+003  4.381794e+001
    endloop
  endfacet
  facet normal  9.892992e-001  5.530415e-004  1.459000e-001
    outer loop
      vertex -4.178305e+001  1.489304e+003  4.381794e+001
      vertex -4.175478e+001  1.490865e+003  4.362027e+001
      vertex -4.178895e+001  1.490865e+003  4.385201e+001
    endloop
  endfacet
  facet normal  9.805974e-001 -5.742330e-004  1.960314e-001
    outer loop
      vertex -4.178305e+001  1.489304e+003  4.381794e+001
      vertex -4.178895e+001  1.490865e+003  4.385201e+001
      vertex -4.182910e+001  1.489620e+003  4.404918e+001
    endloop
  endfacet
  facet normal  9.790646e-001  6.661742e-004  2.035484e-001
    outer loop
      vertex -4.182910e+001  1.489620e+003  4.404918e+001
      vertex -4.178895e+001  1.490865e+003  4.385201e+001
      vertex -4.183663e+001  1.490865e+003  4.408135e+001
    endloop
  endfacet
  facet normal  9.672358e-001 -7.062747e-004  2.538788e-001
    outer loop
      vertex -4.182910e+001  1.489620e+003  4.404918e+001
      vertex -4.183663e+001  1.490865e+003  4.408135e+001
      vertex -4.188927e+001  1.489935e+003  4.427929e+001
    endloop
  endfacet
  facet normal  9.654695e-001  8.064241e-004  2.605147e-001
    outer loop
      vertex -4.188927e+001  1.489935e+003  4.427929e+001
      vertex -4.183663e+001  1.490865e+003  4.408135e+001
      vertex -4.189766e+001  1.490865e+003  4.430750e+001
    endloop
  endfacet
  facet normal  9.502698e-001 -8.753297e-004  3.114266e-001
    outer loop
      vertex -4.188927e+001  1.489935e+003  4.427929e+001
      vertex -4.189766e+001  1.490865e+003  4.430750e+001
      vertex -4.196391e+001  1.490248e+003  4.450793e+001
    endloop
  endfacet
  facet normal  9.485574e-001  9.897576e-004  3.166038e-001
    outer loop
      vertex -4.196391e+001  1.490248e+003  4.450793e+001
      vertex -4.189766e+001  1.490865e+003  4.430750e+001
      vertex -4.197182e+001  1.490865e+003  4.452969e+001
    endloop
  endfacet
  facet normal  9.295946e-001 -1.086033e-003  3.685821e-001
    outer loop
      vertex -4.196391e+001  1.490248e+003  4.450793e+001
      vertex -4.197182e+001  1.490865e+003  4.452969e+001
      vertex -4.205346e+001  1.490558e+003  4.473471e+001
    endloop
  endfacet
  facet normal  9.284064e-001  1.221528e-003  3.715645e-001
    outer loop
      vertex -4.205346e+001  1.490558e+003  4.473471e+001
      vertex -4.197182e+001  1.490865e+003  4.452969e+001
      vertex -4.205885e+001  1.490865e+003  4.474717e+001
    endloop
  endfacet
  facet normal  9.119436e-001 -6.400667e-004  4.103150e-001
    outer loop
      vertex -4.205346e+001  1.490558e+003  4.473471e+001
      vertex -4.205885e+001  1.490865e+003  4.474717e+001
      vertex -4.210400e+001  1.490712e+003  4.484726e+001
    endloop
  endfacet
  facet normal  0.000000e+000  0.000000e+000 -1.000000e+000
    outer loop
      vertex -4.172736e+001  1.466865e+003  3.936261e+000
      vertex -4.397736e+001  1.466865e+003  3.936261e+000
      vertex -4.172736e+001  1.490865e+003  3.936261e+000
    endloop
  endfacet
  facet normal  0.000000e+000  0.000000e+000 -1.000000e+000
    outer loop
      vertex -4.172736e+001  1.490865e+003  3.936261e+000
      vertex -4.397736e+001  1.466865e+003  3.936261e+000
      vertex -4.397736e+001  1.490865e+003  3.936261e+000
    endloop
  endfacet
  facet normal  1.000000e+000  0.000000e+000  0.000000e+000
    outer loop
      vertex -4.397736e+001  1.466865e+003  3.936261e+000
      vertex -4.397736e+001  1.466865e+003  1.402792e+000
      vertex -4.397736e+001  1.490865e+003  3.936261e+000
    endloop
  endfacet
  facet normal  1.000000e+000  0.000000e+000  0.000000e+000
    outer loop
      vertex -4.397736e+001  1.490865e+003  3.936261e+000
      vertex -4.397736e+001  1.466865e+003  1.402792e+000
      vertex -4.397736e+001  1.490865e+003  1.402792e+000
    endloop
  endfacet
endsolid CATIA STL
