solid CATIA STL
  facet normal  0.000000e+000  0.000000e+000 -1.000000e+000
    outer loop
      vertex -8.971162e+001  1.467235e+003  7.517487e+001
      vertex -8.361131e+001  1.489620e+003  7.517487e+001
      vertex -8.685169e+001  1.461657e+003  7.517487e+001
    endloop
  endfacet
  facet normal  0.000000e+000  0.000000e+000 -1.000000e+000
    outer loop
      vertex -8.971162e+001  1.467235e+003  7.517487e+001
      vertex -8.685169e+001  1.461657e+003  7.517487e+001
      vertex -1.073517e+002  1.461657e+003  7.517487e+001
    endloop
  endfacet
  facet normal  0.000000e+000  0.000000e+000 -1.000000e+000
    outer loop
      vertex -8.971162e+001  1.467235e+003  7.517487e+001
      vertex -1.073517e+002  1.461657e+003  7.517487e+001
      vertex -1.332102e+002  1.467588e+003  7.517487e+001
    endloop
  endfacet
  facet normal  0.000000e+000  0.000000e+000 -1.000000e+000
    outer loop
      vertex -1.332102e+002  1.467588e+003  7.517487e+001
      vertex -1.073517e+002  1.461657e+003  7.517487e+001
      vertex -1.073517e+002  1.446157e+003  7.517487e+001
    endloop
  endfacet
  facet normal  0.000000e+000  0.000000e+000 -1.000000e+000
    outer loop
      vertex -1.332102e+002  1.467588e+003  7.517487e+001
      vertex -1.073517e+002  1.446157e+003  7.517487e+001
      vertex -1.359743e+002  1.441321e+003  7.517487e+001
    endloop
  endfacet
  facet normal  0.000000e+000  0.000000e+000 -1.000000e+000
    outer loop
      vertex -1.332102e+002  1.467588e+003  7.517487e+001
      vertex -1.359743e+002  1.441321e+003  7.517487e+001
      vertex -1.359743e+002  1.489620e+003  7.517487e+001
    endloop
  endfacet
  facet normal  0.000000e+000  0.000000e+000 -1.000000e+000
    outer loop
      vertex -1.332102e+002  1.467588e+003  7.517487e+001
      vertex -1.359743e+002  1.489620e+003  7.517487e+001
      vertex -1.330604e+002  1.486087e+003  7.517487e+001
    endloop
  endfacet
  facet normal  0.000000e+000  0.000000e+000 -1.000000e+000
    outer loop
      vertex -8.361131e+001  1.489620e+003  7.517487e+001
      vertex -8.971162e+001  1.467235e+003  7.517487e+001
      vertex -8.967073e+001  1.472285e+003  7.517487e+001
    endloop
  endfacet
  facet normal  0.000000e+000  0.000000e+000 -1.000000e+000
    outer loop
      vertex -8.361131e+001  1.489620e+003  7.517487e+001
      vertex -8.967073e+001  1.472285e+003  7.517487e+001
      vertex -8.960675e+001  1.480186e+003  7.517487e+001
    endloop
  endfacet
  facet normal  0.000000e+000  0.000000e+000 -1.000000e+000
    outer loop
      vertex -8.361131e+001  1.489620e+003  7.517487e+001
      vertex -8.960675e+001  1.480186e+003  7.517487e+001
      vertex -8.956182e+001  1.485735e+003  7.517487e+001
    endloop
  endfacet
  facet normal  0.000000e+000  0.000000e+000 -1.000000e+000
    outer loop
      vertex -8.361131e+001  1.489620e+003  7.517487e+001
      vertex -8.956182e+001  1.485735e+003  7.517487e+001
      vertex -1.330604e+002  1.486087e+003  7.517487e+001
    endloop
  endfacet
  facet normal  0.000000e+000  0.000000e+000 -1.000000e+000
    outer loop
      vertex -8.361131e+001  1.489620e+003  7.517487e+001
      vertex -1.330604e+002  1.486087e+003  7.517487e+001
      vertex -1.359743e+002  1.489620e+003  7.517487e+001
    endloop
  endfacet
  facet normal  0.000000e+000  0.000000e+000 -1.000000e+000
    outer loop
      vertex -8.685169e+001  1.461657e+003  7.517487e+001
      vertex -8.361131e+001  1.489620e+003  7.517487e+001
      vertex -8.685169e+001  1.446157e+003  7.517487e+001
    endloop
  endfacet
  facet normal  0.000000e+000  0.000000e+000 -1.000000e+000
    outer loop
      vertex -8.685169e+001  1.446157e+003  7.517487e+001
      vertex -8.361131e+001  1.489620e+003  7.517487e+001
      vertex -8.361131e+001  1.441321e+003  7.517487e+001
    endloop
  endfacet
  facet normal  0.000000e+000  0.000000e+000 -1.000000e+000
    outer loop
      vertex -8.685169e+001  1.446157e+003  7.517487e+001
      vertex -8.361131e+001  1.441321e+003  7.517487e+001
      vertex -1.073517e+002  1.446157e+003  7.517487e+001
    endloop
  endfacet
  facet normal  0.000000e+000  0.000000e+000 -1.000000e+000
    outer loop
      vertex -1.073517e+002  1.446157e+003  7.517487e+001
      vertex -8.361131e+001  1.441321e+003  7.517487e+001
      vertex -1.359743e+002  1.441321e+003  7.517487e+001
    endloop
  endfacet
  facet normal  0.000000e+000  1.000000e+000  0.000000e+000
    outer loop
      vertex -1.073517e+002  1.446157e+003  7.517487e+001
      vertex -1.073517e+002  1.446157e+003  7.617487e+001
      vertex -8.685169e+001  1.446157e+003  7.517487e+001
    endloop
  endfacet
  facet normal  0.000000e+000  1.000000e+000  0.000000e+000
    outer loop
      vertex -8.685169e+001  1.446157e+003  7.517487e+001
      vertex -1.073517e+002  1.446157e+003  7.617487e+001
      vertex -8.685169e+001  1.446157e+003  7.617487e+001
    endloop
  endfacet
  facet normal -1.000000e+000  0.000000e+000  0.000000e+000
    outer loop
      vertex -8.685169e+001  1.446157e+003  7.517487e+001
      vertex -8.685169e+001  1.446157e+003  7.617487e+001
      vertex -8.685169e+001  1.461657e+003  7.517487e+001
    endloop
  endfacet
  facet normal -1.000000e+000  0.000000e+000  0.000000e+000
    outer loop
      vertex -8.685169e+001  1.461657e+003  7.517487e+001
      vertex -8.685169e+001  1.446157e+003  7.617487e+001
      vertex -8.685169e+001  1.461657e+003  7.617487e+001
    endloop
  endfacet
  facet normal  0.000000e+000 -1.000000e+000  0.000000e+000
    outer loop
      vertex -8.685169e+001  1.461657e+003  7.517487e+001
      vertex -8.685169e+001  1.461657e+003  7.617487e+001
      vertex -1.073517e+002  1.461657e+003  7.517487e+001
    endloop
  endfacet
  facet normal  0.000000e+000 -1.000000e+000  0.000000e+000
    outer loop
      vertex -1.073517e+002  1.461657e+003  7.517487e+001
      vertex -8.685169e+001  1.461657e+003  7.617487e+001
      vertex -1.073517e+002  1.461657e+003  7.617487e+001
    endloop
  endfacet
  facet normal  1.000000e+000  0.000000e+000  0.000000e+000
    outer loop
      vertex -1.073517e+002  1.461657e+003  7.517487e+001
      vertex -1.073517e+002  1.461657e+003  7.617487e+001
      vertex -1.073517e+002  1.446157e+003  7.517487e+001
    endloop
  endfacet
  facet normal  1.000000e+000  0.000000e+000  0.000000e+000
    outer loop
      vertex -1.073517e+002  1.446157e+003  7.517487e+001
      vertex -1.073517e+002  1.461657e+003  7.617487e+001
      vertex -1.073517e+002  1.446157e+003  7.617487e+001
    endloop
  endfacet
  facet normal -9.999672e-001  8.096316e-003  0.000000e+000
    outer loop
      vertex -8.956182e+001  1.485735e+003  7.617487e+001
      vertex -8.956182e+001  1.485735e+003  7.517487e+001
      vertex -8.960675e+001  1.480186e+003  7.617487e+001
    endloop
  endfacet
  facet normal -9.999672e-001  8.096316e-003  0.000000e+000
    outer loop
      vertex -8.960675e+001  1.480186e+003  7.617487e+001
      vertex -8.956182e+001  1.485735e+003  7.517487e+001
      vertex -8.960675e+001  1.480186e+003  7.517487e+001
    endloop
  endfacet
  facet normal -8.095928e-003 -9.999672e-001  0.000000e+000
    outer loop
      vertex -8.956182e+001  1.485735e+003  7.517487e+001
      vertex -8.956182e+001  1.485735e+003  7.617487e+001
      vertex -1.330604e+002  1.486087e+003  7.517487e+001
    endloop
  endfacet
  facet normal -8.095928e-003 -9.999672e-001  0.000000e+000
    outer loop
      vertex -1.330604e+002  1.486087e+003  7.517487e+001
      vertex -8.956182e+001  1.485735e+003  7.617487e+001
      vertex -1.330604e+002  1.486087e+003  7.617487e+001
    endloop
  endfacet
  facet normal  9.999672e-001 -8.097057e-003  0.000000e+000
    outer loop
      vertex -1.330604e+002  1.486087e+003  7.517487e+001
      vertex -1.330604e+002  1.486087e+003  7.617487e+001
      vertex -1.332102e+002  1.467588e+003  7.517487e+001
    endloop
  endfacet
  facet normal  9.999672e-001 -8.097057e-003  0.000000e+000
    outer loop
      vertex -1.332102e+002  1.467588e+003  7.517487e+001
      vertex -1.330604e+002  1.486087e+003  7.617487e+001
      vertex -1.332102e+002  1.467588e+003  7.617487e+001
    endloop
  endfacet
  facet normal  8.095928e-003  9.999672e-001  0.000000e+000
    outer loop
      vertex -1.332102e+002  1.467588e+003  7.517487e+001
      vertex -1.332102e+002  1.467588e+003  7.617487e+001
      vertex -8.971162e+001  1.467235e+003  7.517487e+001
    endloop
  endfacet
  facet normal  8.095928e-003  9.999672e-001  0.000000e+000
    outer loop
      vertex -8.971162e+001  1.467235e+003  7.517487e+001
      vertex -1.332102e+002  1.467588e+003  7.617487e+001
      vertex -8.971162e+001  1.467235e+003  7.617487e+001
    endloop
  endfacet
  facet normal -9.999672e-001  8.097249e-003  0.000000e+000
    outer loop
      vertex -8.967073e+001  1.472285e+003  7.617487e+001
      vertex -8.967073e+001  1.472285e+003  7.517487e+001
      vertex -8.971162e+001  1.467235e+003  7.617487e+001
    endloop
  endfacet
  facet normal -9.999672e-001  8.097249e-003  0.000000e+000
    outer loop
      vertex -8.971162e+001  1.467235e+003  7.617487e+001
      vertex -8.967073e+001  1.472285e+003  7.517487e+001
      vertex -8.971162e+001  1.467235e+003  7.517487e+001
    endloop
  endfacet
  facet normal -9.999672e-001  8.097456e-003  0.000000e+000
    outer loop
      vertex -8.960675e+001  1.480186e+003  7.617487e+001
      vertex -8.960675e+001  1.480186e+003  7.517487e+001
      vertex -8.967073e+001  1.472285e+003  7.617487e+001
    endloop
  endfacet
  facet normal -9.999672e-001  8.097456e-003  0.000000e+000
    outer loop
      vertex -8.967073e+001  1.472285e+003  7.617487e+001
      vertex -8.960675e+001  1.480186e+003  7.517487e+001
      vertex -8.967073e+001  1.472285e+003  7.517487e+001
    endloop
  endfacet
  facet normal  0.000000e+000  0.000000e+000 -1.000000e+000
    outer loop
      vertex -1.073517e+002  1.461657e+003  7.617487e+001
      vertex -8.685169e+001  1.461657e+003  7.617487e+001
      vertex -1.073517e+002  1.446157e+003  7.617487e+001
    endloop
  endfacet
  facet normal  0.000000e+000  0.000000e+000 -1.000000e+000
    outer loop
      vertex -1.073517e+002  1.446157e+003  7.617487e+001
      vertex -8.685169e+001  1.461657e+003  7.617487e+001
      vertex -8.685169e+001  1.446157e+003  7.617487e+001
    endloop
  endfacet
  facet normal  0.000000e+000  0.000000e+000 -1.000000e+000
    outer loop
      vertex -1.330604e+002  1.486087e+003  7.617487e+001
      vertex -8.956182e+001  1.485735e+003  7.617487e+001
      vertex -8.960675e+001  1.480186e+003  7.617487e+001
    endloop
  endfacet
  facet normal  0.000000e+000  0.000000e+000 -1.000000e+000
    outer loop
      vertex -1.330604e+002  1.486087e+003  7.617487e+001
      vertex -8.960675e+001  1.480186e+003  7.617487e+001
      vertex -8.967073e+001  1.472285e+003  7.617487e+001
    endloop
  endfacet
  facet normal  0.000000e+000  0.000000e+000 -1.000000e+000
    outer loop
      vertex -1.330604e+002  1.486087e+003  7.617487e+001
      vertex -8.967073e+001  1.472285e+003  7.617487e+001
      vertex -8.971162e+001  1.467235e+003  7.617487e+001
    endloop
  endfacet
  facet normal  0.000000e+000  0.000000e+000 -1.000000e+000
    outer loop
      vertex -1.330604e+002  1.486087e+003  7.617487e+001
      vertex -8.971162e+001  1.467235e+003  7.617487e+001
      vertex -1.332102e+002  1.467588e+003  7.617487e+001
    endloop
  endfacet
  facet normal  0.000000e+000  0.000000e+000  1.000000e+000
    outer loop
      vertex -8.361131e+001  1.489620e+003  7.717487e+001
      vertex -1.359743e+002  1.489620e+003  7.717487e+001
      vertex -8.361131e+001  1.441321e+003  7.717487e+001
    endloop
  endfacet
  facet normal  0.000000e+000  0.000000e+000  1.000000e+000
    outer loop
      vertex -8.361131e+001  1.441321e+003  7.717487e+001
      vertex -1.359743e+002  1.489620e+003  7.717487e+001
      vertex -1.359743e+002  1.441321e+003  7.717487e+001
    endloop
  endfacet
  facet normal  0.000000e+000 -1.000000e+000  0.000000e+000
    outer loop
      vertex -1.359743e+002  1.441321e+003  7.717487e+001
      vertex -1.359743e+002  1.441321e+003  7.517487e+001
      vertex -8.361131e+001  1.441321e+003  7.717487e+001
    endloop
  endfacet
  facet normal  0.000000e+000 -1.000000e+000  0.000000e+000
    outer loop
      vertex -8.361131e+001  1.441321e+003  7.717487e+001
      vertex -1.359743e+002  1.441321e+003  7.517487e+001
      vertex -8.361131e+001  1.441321e+003  7.517487e+001
    endloop
  endfacet
  facet normal  1.000000e+000  0.000000e+000  0.000000e+000
    outer loop
      vertex -8.361131e+001  1.489620e+003  7.517487e+001
      vertex -8.361131e+001  1.489620e+003  7.717487e+001
      vertex -8.361131e+001  1.441321e+003  7.517487e+001
    endloop
  endfacet
  facet normal  1.000000e+000  0.000000e+000  0.000000e+000
    outer loop
      vertex -8.361131e+001  1.441321e+003  7.517487e+001
      vertex -8.361131e+001  1.489620e+003  7.717487e+001
      vertex -8.361131e+001  1.441321e+003  7.717487e+001
    endloop
  endfacet
  facet normal  0.000000e+000  1.000000e+000  0.000000e+000
    outer loop
      vertex -8.361131e+001  1.489620e+003  7.717487e+001
      vertex -8.361131e+001  1.489620e+003  7.517487e+001
      vertex -1.359743e+002  1.489620e+003  7.717487e+001
    endloop
  endfacet
  facet normal  0.000000e+000  1.000000e+000  0.000000e+000
    outer loop
      vertex -1.359743e+002  1.489620e+003  7.717487e+001
      vertex -8.361131e+001  1.489620e+003  7.517487e+001
      vertex -1.359743e+002  1.489620e+003  7.517487e+001
    endloop
  endfacet
  facet normal -1.000000e+000  0.000000e+000  0.000000e+000
    outer loop
      vertex -1.359743e+002  1.441321e+003  7.517487e+001
      vertex -1.359743e+002  1.441321e+003  7.717487e+001
      vertex -1.359743e+002  1.489620e+003  7.517487e+001
    endloop
  endfacet
  facet normal -1.000000e+000  0.000000e+000  0.000000e+000
    outer loop
      vertex -1.359743e+002  1.489620e+003  7.517487e+001
      vertex -1.359743e+002  1.441321e+003  7.717487e+001
      vertex -1.359743e+002  1.489620e+003  7.717487e+001
    endloop
  endfacet
endsolid CATIA STL
