solid CATIA STL
  facet normal  0.000000e+000  1.000000e+000  0.000000e+000
    outer loop
      vertex -3.800000e+001 -3.226618e+000  1.073775e+002
      vertex  1.557330e+001 -3.226618e+000  1.073775e+002
      vertex -3.800000e+001 -3.226618e+000  1.649547e+001
    endloop
  endfacet
  facet normal  0.000000e+000  1.000000e+000  0.000000e+000
    outer loop
      vertex -3.800000e+001 -3.226618e+000  1.649547e+001
      vertex  1.557330e+001 -3.226618e+000  1.073775e+002
      vertex  1.557330e+001 -3.226618e+000  1.048370e+002
    endloop
  endfacet
  facet normal  0.000000e+000  1.000000e+000  0.000000e+000
    outer loop
      vertex -3.800000e+001 -3.226618e+000  1.649547e+001
      vertex  1.557330e+001 -3.226618e+000  1.048370e+002
      vertex -3.283178e+001 -3.226618e+000  1.649547e+001
    endloop
  endfacet
  facet normal  0.000000e+000  1.000000e+000  0.000000e+000
    outer loop
      vertex -3.283178e+001 -3.226618e+000  1.649547e+001
      vertex  1.557330e+001 -3.226618e+000  1.048370e+002
      vertex  2.000000e+001 -3.226618e+000  1.048370e+002
    endloop
  endfacet
  facet normal  0.000000e+000  1.000000e+000  0.000000e+000
    outer loop
      vertex -3.283178e+001 -3.226618e+000  1.649547e+001
      vertex  2.000000e+001 -3.226618e+000  1.048370e+002
      vertex  1.455383e+001 -3.226618e+000 -1.042400e+001
    endloop
  endfacet
  facet normal  0.000000e+000  1.000000e+000  0.000000e+000
    outer loop
      vertex  1.455383e+001 -3.226618e+000 -1.042400e+001
      vertex  2.000000e+001 -3.226618e+000  1.048370e+002
      vertex  2.000000e+001 -3.226618e+000 -1.042400e+001
    endloop
  endfacet
  facet normal  0.000000e+000  1.000000e+000  0.000000e+000
    outer loop
      vertex  1.455383e+001 -3.226618e+000 -1.262245e+001
      vertex -3.283178e+001 -3.226618e+000 -1.262245e+001
      vertex  1.455383e+001 -3.226618e+000 -1.042400e+001
    endloop
  endfacet
  facet normal  0.000000e+000  1.000000e+000  0.000000e+000
    outer loop
      vertex  1.455383e+001 -3.226618e+000 -1.042400e+001
      vertex -3.283178e+001 -3.226618e+000 -1.262245e+001
      vertex -3.283178e+001 -3.226618e+000  1.649547e+001
    endloop
  endfacet
  facet normal  0.000000e+000 -1.000000e+000  0.000000e+000
    outer loop
      vertex -3.800000e+001 -1.022662e+001  1.649547e+001
      vertex -3.600000e+001 -1.022662e+001  1.649547e+001
      vertex -3.800000e+001 -1.022662e+001  8.230212e+001
    endloop
  endfacet
  facet normal  0.000000e+000 -1.000000e+000  0.000000e+000
    outer loop
      vertex -3.800000e+001 -1.022662e+001  8.230212e+001
      vertex -3.600000e+001 -1.022662e+001  1.649547e+001
      vertex -3.600000e+001 -1.022662e+001  8.230212e+001
    endloop
  endfacet
  facet normal -1.000000e+000  -0.000000e+000  0.000000e+000
    outer loop
      vertex -3.800000e+001 -5.226618e+000  1.073775e+002
      vertex -3.800000e+001 -3.226618e+000  1.073775e+002
      vertex -3.800000e+001 -5.226618e+000  8.230212e+001
    endloop
  endfacet
  facet normal -1.000000e+000  0.000000e+000  0.000000e+000
    outer loop
      vertex -3.800000e+001 -5.226618e+000  8.230212e+001
      vertex -3.800000e+001 -3.226618e+000  1.073775e+002
      vertex -3.800000e+001 -3.226618e+000  1.649547e+001
    endloop
  endfacet
  facet normal -1.000000e+000  0.000000e+000  0.000000e+000
    outer loop
      vertex -3.800000e+001 -5.226618e+000  8.230212e+001
      vertex -3.800000e+001 -3.226618e+000  1.649547e+001
      vertex -3.800000e+001 -1.022662e+001  8.230212e+001
    endloop
  endfacet
  facet normal -1.000000e+000  0.000000e+000  0.000000e+000
    outer loop
      vertex -3.800000e+001 -1.022662e+001  8.230212e+001
      vertex -3.800000e+001 -3.226618e+000  1.649547e+001
      vertex -3.800000e+001 -1.022662e+001  1.649547e+001
    endloop
  endfacet
  facet normal  0.000000e+000  0.000000e+000 -1.000000e+000
    outer loop
      vertex -3.283178e+001 -3.226618e+000  1.649547e+001
      vertex -3.283178e+001 -5.226618e+000  1.649547e+001
      vertex -3.800000e+001 -3.226618e+000  1.649547e+001
    endloop
  endfacet
  facet normal  0.000000e+000  0.000000e+000 -1.000000e+000
    outer loop
      vertex -3.800000e+001 -3.226618e+000  1.649547e+001
      vertex -3.283178e+001 -5.226618e+000  1.649547e+001
      vertex -3.600000e+001 -5.226618e+000  1.649547e+001
    endloop
  endfacet
  facet normal  -0.000000e+000  0.000000e+000 -1.000000e+000
    outer loop
      vertex -3.800000e+001 -3.226618e+000  1.649547e+001
      vertex -3.600000e+001 -5.226618e+000  1.649547e+001
      vertex -3.800000e+001 -1.022662e+001  1.649547e+001
    endloop
  endfacet
  facet normal  0.000000e+000  0.000000e+000 -1.000000e+000
    outer loop
      vertex -3.800000e+001 -1.022662e+001  1.649547e+001
      vertex -3.600000e+001 -5.226618e+000  1.649547e+001
      vertex -3.600000e+001 -1.022662e+001  1.649547e+001
    endloop
  endfacet
  facet normal  1.000000e+000  0.000000e+000  0.000000e+000
    outer loop
      vertex -3.600000e+001 -1.022662e+001  1.649547e+001
      vertex -3.600000e+001 -5.226618e+000  1.649547e+001
      vertex -3.600000e+001 -1.022662e+001  8.230212e+001
    endloop
  endfacet
  facet normal  1.000000e+000  -0.000000e+000  0.000000e+000
    outer loop
      vertex -3.600000e+001 -1.022662e+001  8.230212e+001
      vertex -3.600000e+001 -5.226618e+000  1.649547e+001
      vertex -3.600000e+001 -5.226618e+000  8.230212e+001
    endloop
  endfacet
  facet normal  -0.000000e+000  0.000000e+000  1.000000e+000
    outer loop
      vertex -3.600000e+001 -5.226618e+000  8.230212e+001
      vertex -3.800000e+001 -5.226618e+000  8.230212e+001
      vertex -3.600000e+001 -1.022662e+001  8.230212e+001
    endloop
  endfacet
  facet normal  0.000000e+000  0.000000e+000  1.000000e+000
    outer loop
      vertex -3.600000e+001 -1.022662e+001  8.230212e+001
      vertex -3.800000e+001 -5.226618e+000  8.230212e+001
      vertex -3.800000e+001 -1.022662e+001  8.230212e+001
    endloop
  endfacet
  facet normal  0.000000e+000 -1.000000e+000  0.000000e+000
    outer loop
      vertex -3.600000e+001 -5.226618e+000  1.649547e+001
      vertex -3.283178e+001 -5.226618e+000  1.649547e+001
      vertex -3.600000e+001 -5.226618e+000  8.230212e+001
    endloop
  endfacet
  facet normal  0.000000e+000 -1.000000e+000  0.000000e+000
    outer loop
      vertex  1.557330e+001 -5.226618e+000  1.073775e+002
      vertex -3.800000e+001 -5.226618e+000  1.073775e+002
      vertex  1.557330e+001 -5.226618e+000  1.048370e+002
    endloop
  endfacet
  facet normal  -0.000000e+000 -1.000000e+000  0.000000e+000
    outer loop
      vertex  1.557330e+001 -5.226618e+000  1.048370e+002
      vertex -3.800000e+001 -5.226618e+000  1.073775e+002
      vertex -3.800000e+001 -5.226618e+000  8.230212e+001
    endloop
  endfacet
  facet normal  0.000000e+000 -1.000000e+000  0.000000e+000
    outer loop
      vertex  1.557330e+001 -5.226618e+000  1.048370e+002
      vertex -3.800000e+001 -5.226618e+000  8.230212e+001
      vertex  2.000000e+001 -5.226618e+000  1.048370e+002
    endloop
  endfacet
  facet normal  0.000000e+000 -1.000000e+000  0.000000e+000
    outer loop
      vertex  2.000000e+001 -5.226618e+000  1.048370e+002
      vertex -3.800000e+001 -5.226618e+000  8.230212e+001
      vertex -3.600000e+001 -5.226618e+000  8.230212e+001
    endloop
  endfacet
  facet normal  0.000000e+000 -1.000000e+000  0.000000e+000
    outer loop
      vertex  2.000000e+001 -5.226618e+000  1.048370e+002
      vertex -3.600000e+001 -5.226618e+000  8.230212e+001
      vertex  2.000000e+001 -5.226618e+000 -1.042400e+001
    endloop
  endfacet
  facet normal  0.000000e+000 -1.000000e+000  0.000000e+000
    outer loop
      vertex  2.000000e+001 -5.226618e+000 -1.042400e+001
      vertex -3.600000e+001 -5.226618e+000  8.230212e+001
      vertex -3.283178e+001 -5.226618e+000  1.649547e+001
    endloop
  endfacet
  facet normal  0.000000e+000 -1.000000e+000  0.000000e+000
    outer loop
      vertex  2.000000e+001 -5.226618e+000 -1.042400e+001
      vertex -3.283178e+001 -5.226618e+000  1.649547e+001
      vertex  1.455383e+001 -5.226618e+000 -1.042400e+001
    endloop
  endfacet
  facet normal  0.000000e+000 -1.000000e+000  0.000000e+000
    outer loop
      vertex -3.283178e+001 -5.226618e+000 -1.262245e+001
      vertex  1.455383e+001 -5.226618e+000 -1.262245e+001
      vertex -3.283178e+001 -5.226618e+000  1.649547e+001
    endloop
  endfacet
  facet normal  0.000000e+000 -1.000000e+000  0.000000e+000
    outer loop
      vertex -3.283178e+001 -5.226618e+000  1.649547e+001
      vertex  1.455383e+001 -5.226618e+000 -1.262245e+001
      vertex  1.455383e+001 -5.226618e+000 -1.042400e+001
    endloop
  endfacet
  facet normal -1.000000e+000  0.000000e+000  0.000000e+000
    outer loop
      vertex -3.283178e+001 -3.226618e+000 -1.262245e+001
      vertex -3.283178e+001 -5.226618e+000 -1.262245e+001
      vertex -3.283178e+001 -3.226618e+000  1.649547e+001
    endloop
  endfacet
  facet normal -1.000000e+000  -0.000000e+000  0.000000e+000
    outer loop
      vertex -3.283178e+001 -3.226618e+000  1.649547e+001
      vertex -3.283178e+001 -5.226618e+000 -1.262245e+001
      vertex -3.283178e+001 -5.226618e+000  1.649547e+001
    endloop
  endfacet
  facet normal  0.000000e+000  0.000000e+000 -1.000000e+000
    outer loop
      vertex  1.455383e+001 -3.226618e+000 -1.262245e+001
      vertex  1.455383e+001 -5.226618e+000 -1.262245e+001
      vertex -3.283178e+001 -3.226618e+000 -1.262245e+001
    endloop
  endfacet
  facet normal  0.000000e+000  0.000000e+000 -1.000000e+000
    outer loop
      vertex -3.283178e+001 -3.226618e+000 -1.262245e+001
      vertex  1.455383e+001 -5.226618e+000 -1.262245e+001
      vertex -3.283178e+001 -5.226618e+000 -1.262245e+001
    endloop
  endfacet
  facet normal  1.000000e+000  -0.000000e+000  0.000000e+000
    outer loop
      vertex  1.455383e+001 -3.226618e+000 -1.042400e+001
      vertex  1.455383e+001 -5.226618e+000 -1.042400e+001
      vertex  1.455383e+001 -3.226618e+000 -1.262245e+001
    endloop
  endfacet
  facet normal  1.000000e+000  0.000000e+000  0.000000e+000
    outer loop
      vertex  1.455383e+001 -3.226618e+000 -1.262245e+001
      vertex  1.455383e+001 -5.226618e+000 -1.042400e+001
      vertex  1.455383e+001 -5.226618e+000 -1.262245e+001
    endloop
  endfacet
  facet normal  0.000000e+000  0.000000e+000 -1.000000e+000
    outer loop
      vertex  2.000000e+001 -3.226618e+000 -1.042400e+001
      vertex  2.000000e+001 -5.226618e+000 -1.042400e+001
      vertex  1.455383e+001 -3.226618e+000 -1.042400e+001
    endloop
  endfacet
  facet normal  0.000000e+000  0.000000e+000 -1.000000e+000
    outer loop
      vertex  1.455383e+001 -3.226618e+000 -1.042400e+001
      vertex  2.000000e+001 -5.226618e+000 -1.042400e+001
      vertex  1.455383e+001 -5.226618e+000 -1.042400e+001
    endloop
  endfacet
  facet normal  1.000000e+000  -0.000000e+000  0.000000e+000
    outer loop
      vertex  2.000000e+001 -3.226618e+000  1.048370e+002
      vertex  2.000000e+001 -5.226618e+000  1.048370e+002
      vertex  2.000000e+001 -3.226618e+000 -1.042400e+001
    endloop
  endfacet
  facet normal  1.000000e+000  0.000000e+000  0.000000e+000
    outer loop
      vertex  2.000000e+001 -3.226618e+000 -1.042400e+001
      vertex  2.000000e+001 -5.226618e+000  1.048370e+002
      vertex  2.000000e+001 -5.226618e+000 -1.042400e+001
    endloop
  endfacet
  facet normal  0.000000e+000  0.000000e+000  1.000000e+000
    outer loop
      vertex  1.557330e+001 -3.226618e+000  1.048370e+002
      vertex  1.557330e+001 -5.226618e+000  1.048370e+002
      vertex  2.000000e+001 -3.226618e+000  1.048370e+002
    endloop
  endfacet
  facet normal  0.000000e+000  0.000000e+000  1.000000e+000
    outer loop
      vertex  2.000000e+001 -3.226618e+000  1.048370e+002
      vertex  1.557330e+001 -5.226618e+000  1.048370e+002
      vertex  2.000000e+001 -5.226618e+000  1.048370e+002
    endloop
  endfacet
  facet normal  1.000000e+000  -0.000000e+000  0.000000e+000
    outer loop
      vertex  1.557330e+001 -3.226618e+000  1.073775e+002
      vertex  1.557330e+001 -5.226618e+000  1.073775e+002
      vertex  1.557330e+001 -3.226618e+000  1.048370e+002
    endloop
  endfacet
  facet normal  1.000000e+000  0.000000e+000  0.000000e+000
    outer loop
      vertex  1.557330e+001 -3.226618e+000  1.048370e+002
      vertex  1.557330e+001 -5.226618e+000  1.073775e+002
      vertex  1.557330e+001 -5.226618e+000  1.048370e+002
    endloop
  endfacet
  facet normal  0.000000e+000  0.000000e+000  1.000000e+000
    outer loop
      vertex -3.800000e+001 -3.226618e+000  1.073775e+002
      vertex -3.800000e+001 -5.226618e+000  1.073775e+002
      vertex  1.557330e+001 -3.226618e+000  1.073775e+002
    endloop
  endfacet
  facet normal  0.000000e+000  0.000000e+000  1.000000e+000
    outer loop
      vertex  1.557330e+001 -3.226618e+000  1.073775e+002
      vertex -3.800000e+001 -5.226618e+000  1.073775e+002
      vertex  1.557330e+001 -5.226618e+000  1.073775e+002
    endloop
  endfacet
endsolid CATIA STL
