<?xml version="1.0" encoding="UTF-8"?>
<svg xmlns="http://www.w3.org/2000/svg" xmlns:xlink="http://www.w3.org/1999/xlink" width="2790px" height="2150px" viewBox="0 0 2777 2150" version="1.1">
<g id="surface1">
<path style="fill:none;stroke-width:669.291;stroke-linecap:round;stroke-linejoin:round;stroke:rgb(0%,0%,0%);stroke-opacity:1;stroke-miterlimit:4;" d="M 18031.992708 1340.998466 L 18031.992708 1459.011224 " transform="matrix(0.0957586,0,0,0.0957921,0,0)"/>
<path style=" stroke:none;fill-rule:evenodd;fill:rgb(0%,0%,0%);fill-opacity:1;" d="M 1797.4375 96.496094 L 1796.519531 96.632812 L 1795.628906 96.859375 L 1794.757812 97.167969 L 1793.914062 97.566406 L 1793.128906 98.039062 L 1792.382812 98.589844 L 1791.691406 99.210938 L 1791.078125 99.898438 L 1790.523438 100.640625 L 1790.042969 101.433594 L 1789.652344 102.269531 L 1789.34375 103.140625 L 1789.117188 104.039062 L 1788.980469 104.953125 L 1788.933594 105.878906 L 1788.933594 162.453125 L 1788.980469 163.378906 L 1789.117188 164.292969 L 1789.34375 165.191406 L 1789.652344 166.0625 L 1790.042969 166.898438 L 1790.523438 167.691406 L 1791.078125 168.433594 L 1791.691406 169.117188 L 1792.382812 169.738281 L 1793.128906 170.289062 L 1793.914062 170.765625 L 1794.757812 171.160156 L 1795.628906 171.472656 L 1796.519531 171.699219 L 1797.4375 171.832031 L 1798.355469 171.878906 L 1843.601562 171.878906 L 1844.53125 171.832031 L 1845.441406 171.699219 L 1846.339844 171.472656 L 1847.210938 171.160156 L 1848.046875 170.765625 L 1848.839844 170.289062 L 1849.585938 169.738281 L 1850.265625 169.117188 L 1850.890625 168.433594 L 1851.433594 167.691406 L 1851.914062 166.898438 L 1852.308594 166.0625 L 1852.621094 165.191406 L 1852.84375 164.292969 L 1852.976562 163.378906 L 1853.023438 162.453125 L 1853.023438 105.878906 L 1852.976562 104.953125 L 1852.84375 104.039062 L 1852.621094 103.140625 L 1852.308594 102.269531 L 1851.914062 101.433594 L 1851.433594 100.640625 L 1850.890625 99.898438 L 1850.265625 99.210938 L 1849.585938 98.589844 L 1848.839844 98.039062 L 1848.046875 97.566406 L 1847.210938 97.167969 L 1846.339844 96.859375 L 1845.441406 96.632812 L 1844.53125 96.496094 L 1843.601562 96.453125 L 1798.355469 96.453125 Z M 1797.4375 96.496094 "/>
<path style="fill:none;stroke-width:629.921;stroke-linecap:round;stroke-linejoin:round;stroke:rgb(0%,0%,0%);stroke-opacity:1;stroke-miterlimit:4;" d="M 9266.01464 7900.004037 L 9266.01464 7900.004037 " transform="matrix(0.0957586,0,0,0.0957921,0,0)"/>
<path style="fill:none;stroke-width:629.921;stroke-linecap:round;stroke-linejoin:round;stroke:rgb(0%,0%,0%);stroke-opacity:1;stroke-miterlimit:4;" d="M 2265.992134 12900.00969 L 2265.992134 12900.00969 " transform="matrix(0.0957586,0,0,0.0957921,0,0)"/>
<path style="fill:none;stroke-width:629.921;stroke-linecap:round;stroke-linejoin:round;stroke:rgb(0%,0%,0%);stroke-opacity:1;stroke-miterlimit:4;" d="M 8265.982288 7900.004037 L 8265.982288 7900.004037 " transform="matrix(0.0957586,0,0,0.0957921,0,0)"/>
<path style="fill:none;stroke-width:629.921;stroke-linecap:round;stroke-linejoin:round;stroke:rgb(0%,0%,0%);stroke-opacity:1;stroke-miterlimit:4;" d="M 3265.983694 12900.00969 L 3265.983694 12900.00969 " transform="matrix(0.0957586,0,0,0.0957921,0,0)"/>
<path style="fill:none;stroke-width:629.921;stroke-linecap:round;stroke-linejoin:round;stroke:rgb(0%,0%,0%);stroke-opacity:1;stroke-miterlimit:4;" d="M 7265.990727 7900.004037 L 7265.990727 7900.004037 " transform="matrix(0.0957586,0,0,0.0957921,0,0)"/>
<path style="fill:none;stroke-width:629.921;stroke-linecap:round;stroke-linejoin:round;stroke:rgb(0%,0%,0%);stroke-opacity:1;stroke-miterlimit:4;" d="M 4266.016047 12900.00969 L 4266.016047 12900.00969 " transform="matrix(0.0957586,0,0,0.0957921,0,0)"/>
<path style="fill:none;stroke-width:629.921;stroke-linecap:round;stroke-linejoin:round;stroke:rgb(0%,0%,0%);stroke-opacity:1;stroke-miterlimit:4;" d="M 6265.999167 7900.004037 L 6265.999167 7900.004037 " transform="matrix(0.0957586,0,0,0.0957921,0,0)"/>
<path style="fill:none;stroke-width:629.921;stroke-linecap:round;stroke-linejoin:round;stroke:rgb(0%,0%,0%);stroke-opacity:1;stroke-miterlimit:4;" d="M 5266.007607 12900.00969 L 5266.007607 12900.00969 " transform="matrix(0.0957586,0,0,0.0957921,0,0)"/>
<path style="fill:none;stroke-width:629.921;stroke-linecap:round;stroke-linejoin:round;stroke:rgb(0%,0%,0%);stroke-opacity:1;stroke-miterlimit:4;" d="M 5266.007607 7900.004037 L 5266.007607 7900.004037 " transform="matrix(0.0957586,0,0,0.0957921,0,0)"/>
<path style="fill:none;stroke-width:629.921;stroke-linecap:round;stroke-linejoin:round;stroke:rgb(0%,0%,0%);stroke-opacity:1;stroke-miterlimit:4;" d="M 6265.999167 12900.00969 L 6265.999167 12900.00969 " transform="matrix(0.0957586,0,0,0.0957921,0,0)"/>
<path style="fill:none;stroke-width:629.921;stroke-linecap:round;stroke-linejoin:round;stroke:rgb(0%,0%,0%);stroke-opacity:1;stroke-miterlimit:4;" d="M 4266.016047 7900.004037 L 4266.016047 7900.004037 " transform="matrix(0.0957586,0,0,0.0957921,0,0)"/>
<path style="fill:none;stroke-width:629.921;stroke-linecap:round;stroke-linejoin:round;stroke:rgb(0%,0%,0%);stroke-opacity:1;stroke-miterlimit:4;" d="M 7265.990727 12900.00969 L 7265.990727 12900.00969 " transform="matrix(0.0957586,0,0,0.0957921,0,0)"/>
<path style="fill:none;stroke-width:629.921;stroke-linecap:round;stroke-linejoin:round;stroke:rgb(0%,0%,0%);stroke-opacity:1;stroke-miterlimit:4;" d="M 3265.983694 7900.004037 L 3265.983694 7900.004037 " transform="matrix(0.0957586,0,0,0.0957921,0,0)"/>
<path style="fill:none;stroke-width:629.921;stroke-linecap:round;stroke-linejoin:round;stroke:rgb(0%,0%,0%);stroke-opacity:1;stroke-miterlimit:4;" d="M 8265.982288 12900.00969 L 8265.982288 12900.00969 " transform="matrix(0.0957586,0,0,0.0957921,0,0)"/>
<path style="fill:none;stroke-width:629.921;stroke-linecap:round;stroke-linejoin:round;stroke:rgb(0%,0%,0%);stroke-opacity:1;stroke-miterlimit:4;" d="M 2265.992134 7900.004037 L 2265.992134 7900.004037 " transform="matrix(0.0957586,0,0,0.0957921,0,0)"/>
<path style=" stroke:none;fill-rule:evenodd;fill:rgb(0%,0%,0%);fill-opacity:1;" d="M 857.175781 1265.949219 L 917.496094 1265.949219 L 917.496094 1205.601562 L 857.175781 1205.601562 Z M 857.175781 1265.949219 "/>
<path style="fill:none;stroke-width:669.291;stroke-linecap:round;stroke-linejoin:round;stroke:rgb(0%,0%,0%);stroke-opacity:1;stroke-miterlimit:4;" d="M 10515.983694 13900.018976 L 10515.983694 13900.018976 " transform="matrix(0.0957586,0,0,0.0957921,0,0)"/>
<path style="fill:none;stroke-width:669.291;stroke-linecap:round;stroke-linejoin:round;stroke:rgb(0%,0%,0%);stroke-opacity:1;stroke-miterlimit:4;" d="M 10515.983694 14899.987484 L 10515.983694 14899.987484 " transform="matrix(0.0957586,0,0,0.0957921,0,0)"/>
<path style="fill:none;stroke-width:669.291;stroke-linecap:round;stroke-linejoin:round;stroke:rgb(0%,0%,0%);stroke-opacity:1;stroke-miterlimit:4;" d="M 10515.983694 15899.99677 L 10515.983694 15899.99677 " transform="matrix(0.0957586,0,0,0.0957921,0,0)"/>
<path style="fill:none;stroke-width:669.291;stroke-linecap:round;stroke-linejoin:round;stroke:rgb(0%,0%,0%);stroke-opacity:1;stroke-miterlimit:4;" d="M 10515.983694 16900.006056 L 10515.983694 16900.006056 " transform="matrix(0.0957586,0,0,0.0957921,0,0)"/>
<path style="fill:none;stroke-width:669.291;stroke-linecap:round;stroke-linejoin:round;stroke:rgb(0%,0%,0%);stroke-opacity:1;stroke-miterlimit:4;" d="M 10515.983694 17900.015342 L 10515.983694 17900.015342 " transform="matrix(0.0957586,0,0,0.0957921,0,0)"/>
<path style="fill:none;stroke-width:669.291;stroke-linecap:round;stroke-linejoin:round;stroke:rgb(0%,0%,0%);stroke-opacity:1;stroke-miterlimit:4;" d="M 10515.983694 18899.98385 L 10515.983694 18899.98385 " transform="matrix(0.0957586,0,0,0.0957921,0,0)"/>
<path style="fill:none;stroke-width:669.291;stroke-linecap:round;stroke-linejoin:round;stroke:rgb(0%,0%,0%);stroke-opacity:1;stroke-miterlimit:4;" d="M 10515.983694 19899.993136 L 10515.983694 19899.993136 " transform="matrix(0.0957586,0,0,0.0957921,0,0)"/>
<path style=" stroke:none;fill-rule:evenodd;fill:rgb(0%,0%,0%);fill-opacity:1;" d="M 974.984375 1970.050781 L 974.984375 2034.164062 L 1039.078125 2034.164062 L 1039.078125 1970.050781 Z M 974.984375 1970.050781 "/>
<path style=" stroke:none;fill-rule:evenodd;fill:rgb(0%,0%,0%);fill-opacity:1;" d="M 2602.882812 1986.269531 L 2666.972656 1986.269531 L 2666.972656 1922.152344 L 2602.882812 1922.152344 Z M 2602.882812 1986.269531 "/>
<path style="fill:none;stroke-width:669.291;stroke-linecap:round;stroke-linejoin:round;stroke:rgb(0%,0%,0%);stroke-opacity:1;stroke-miterlimit:4;" d="M 26516.011827 20400.018169 L 26516.011827 20400.018169 " transform="matrix(0.0957586,0,0,0.0957921,0,0)"/>
<path style="fill:none;stroke-width:669.291;stroke-linecap:round;stroke-linejoin:round;stroke:rgb(0%,0%,0%);stroke-opacity:1;stroke-miterlimit:4;" d="M 25516.020267 20400.018169 L 25516.020267 20400.018169 " transform="matrix(0.0957586,0,0,0.0957921,0,0)"/>
<path style="fill:none;stroke-width:669.291;stroke-linecap:round;stroke-linejoin:round;stroke:rgb(0%,0%,0%);stroke-opacity:1;stroke-miterlimit:4;" d="M 24515.987914 20400.018169 L 24515.987914 20400.018169 " transform="matrix(0.0957586,0,0,0.0957921,0,0)"/>
<path style="fill:none;stroke-width:669.291;stroke-linecap:round;stroke-linejoin:round;stroke:rgb(0%,0%,0%);stroke-opacity:1;stroke-miterlimit:4;" d="M 23515.996354 20400.018169 L 23515.996354 20400.018169 " transform="matrix(0.0957586,0,0,0.0957921,0,0)"/>
<path style="fill:none;stroke-width:669.291;stroke-linecap:round;stroke-linejoin:round;stroke:rgb(0%,0%,0%);stroke-opacity:1;stroke-miterlimit:4;" d="M 22516.004794 20400.018169 L 22516.004794 20400.018169 " transform="matrix(0.0957586,0,0,0.0957921,0,0)"/>
<path style=" stroke:none;fill-rule:evenodd;fill:rgb(0%,0%,0%);fill-opacity:1;" d="M 1803.257812 451.710938 L 1803.257812 391.371094 L 1742.941406 391.371094 L 1742.941406 451.710938 Z M 1803.257812 451.710938 "/>
<path style="fill:none;stroke-width:629.921;stroke-linecap:round;stroke-linejoin:round;stroke:rgb(0%,0%,0%);stroke-opacity:1;stroke-miterlimit:4;" d="M 12516.007607 17399.99031 L 12516.007607 17399.99031 " transform="matrix(0.0957586,0,0,0.0957921,0,0)"/>
<path style="fill:none;stroke-width:629.921;stroke-linecap:round;stroke-linejoin:round;stroke:rgb(0%,0%,0%);stroke-opacity:1;stroke-miterlimit:4;" d="M 18515.997761 5400.001211 L 18515.997761 5400.001211 " transform="matrix(0.0957586,0,0,0.0957921,0,0)"/>
<path style="fill:none;stroke-width:629.921;stroke-linecap:round;stroke-linejoin:round;stroke:rgb(0%,0%,0%);stroke-opacity:1;stroke-miterlimit:4;" d="M 12516.007607 16399.981024 L 12516.007607 16399.981024 " transform="matrix(0.0957586,0,0,0.0957921,0,0)"/>
<path style="fill:none;stroke-width:629.921;stroke-linecap:round;stroke-linejoin:round;stroke:rgb(0%,0%,0%);stroke-opacity:1;stroke-miterlimit:4;" d="M 18515.997761 6400.010497 L 18515.997761 6400.010497 " transform="matrix(0.0957586,0,0,0.0957921,0,0)"/>
<path style="fill:none;stroke-width:629.921;stroke-linecap:round;stroke-linejoin:round;stroke:rgb(0%,0%,0%);stroke-opacity:1;stroke-miterlimit:4;" d="M 12516.007607 15400.012516 L 12516.007607 15400.012516 " transform="matrix(0.0957586,0,0,0.0957921,0,0)"/>
<path style="fill:none;stroke-width:629.921;stroke-linecap:round;stroke-linejoin:round;stroke:rgb(0%,0%,0%);stroke-opacity:1;stroke-miterlimit:4;" d="M 18515.997761 7400.019784 L 18515.997761 7400.019784 " transform="matrix(0.0957586,0,0,0.0957921,0,0)"/>
<path style="fill:none;stroke-width:629.921;stroke-linecap:round;stroke-linejoin:round;stroke:rgb(0%,0%,0%);stroke-opacity:1;stroke-miterlimit:4;" d="M 12516.007607 14400.00323 L 12516.007607 14400.00323 " transform="matrix(0.0957586,0,0,0.0957921,0,0)"/>
<path style="fill:none;stroke-width:629.921;stroke-linecap:round;stroke-linejoin:round;stroke:rgb(0%,0%,0%);stroke-opacity:1;stroke-miterlimit:4;" d="M 18515.997761 8399.988291 L 18515.997761 8399.988291 " transform="matrix(0.0957586,0,0,0.0957921,0,0)"/>
<path style="fill:none;stroke-width:629.921;stroke-linecap:round;stroke-linejoin:round;stroke:rgb(0%,0%,0%);stroke-opacity:1;stroke-miterlimit:4;" d="M 12516.007607 13399.993944 L 12516.007607 13399.993944 " transform="matrix(0.0957586,0,0,0.0957921,0,0)"/>
<path style="fill:none;stroke-width:629.921;stroke-linecap:round;stroke-linejoin:round;stroke:rgb(0%,0%,0%);stroke-opacity:1;stroke-miterlimit:4;" d="M 18515.997761 9399.997578 L 18515.997761 9399.997578 " transform="matrix(0.0957586,0,0,0.0957921,0,0)"/>
<path style="fill:none;stroke-width:629.921;stroke-linecap:round;stroke-linejoin:round;stroke:rgb(0%,0%,0%);stroke-opacity:1;stroke-miterlimit:4;" d="M 12516.007607 12399.984658 L 12516.007607 12399.984658 " transform="matrix(0.0957586,0,0,0.0957921,0,0)"/>
<path style="fill:none;stroke-width:629.921;stroke-linecap:round;stroke-linejoin:round;stroke:rgb(0%,0%,0%);stroke-opacity:1;stroke-miterlimit:4;" d="M 18515.997761 10400.006864 L 18515.997761 10400.006864 " transform="matrix(0.0957586,0,0,0.0957921,0,0)"/>
<path style="fill:none;stroke-width:629.921;stroke-linecap:round;stroke-linejoin:round;stroke:rgb(0%,0%,0%);stroke-opacity:1;stroke-miterlimit:4;" d="M 12516.007607 11400.01615 L 12516.007607 11400.01615 " transform="matrix(0.0957586,0,0,0.0957921,0,0)"/>
<path style="fill:none;stroke-width:629.921;stroke-linecap:round;stroke-linejoin:round;stroke:rgb(0%,0%,0%);stroke-opacity:1;stroke-miterlimit:4;" d="M 18515.997761 11400.01615 L 18515.997761 11400.01615 " transform="matrix(0.0957586,0,0,0.0957921,0,0)"/>
<path style="fill:none;stroke-width:629.921;stroke-linecap:round;stroke-linejoin:round;stroke:rgb(0%,0%,0%);stroke-opacity:1;stroke-miterlimit:4;" d="M 12516.007607 10400.006864 L 12516.007607 10400.006864 " transform="matrix(0.0957586,0,0,0.0957921,0,0)"/>
<path style="fill:none;stroke-width:629.921;stroke-linecap:round;stroke-linejoin:round;stroke:rgb(0%,0%,0%);stroke-opacity:1;stroke-miterlimit:4;" d="M 18515.997761 12399.984658 L 18515.997761 12399.984658 " transform="matrix(0.0957586,0,0,0.0957921,0,0)"/>
<path style="fill:none;stroke-width:629.921;stroke-linecap:round;stroke-linejoin:round;stroke:rgb(0%,0%,0%);stroke-opacity:1;stroke-miterlimit:4;" d="M 12516.007607 9399.997578 L 12516.007607 9399.997578 " transform="matrix(0.0957586,0,0,0.0957921,0,0)"/>
<path style="fill:none;stroke-width:629.921;stroke-linecap:round;stroke-linejoin:round;stroke:rgb(0%,0%,0%);stroke-opacity:1;stroke-miterlimit:4;" d="M 18515.997761 13399.993944 L 18515.997761 13399.993944 " transform="matrix(0.0957586,0,0,0.0957921,0,0)"/>
<path style="fill:none;stroke-width:629.921;stroke-linecap:round;stroke-linejoin:round;stroke:rgb(0%,0%,0%);stroke-opacity:1;stroke-miterlimit:4;" d="M 12516.007607 8399.988291 L 12516.007607 8399.988291 " transform="matrix(0.0957586,0,0,0.0957921,0,0)"/>
<path style="fill:none;stroke-width:629.921;stroke-linecap:round;stroke-linejoin:round;stroke:rgb(0%,0%,0%);stroke-opacity:1;stroke-miterlimit:4;" d="M 18515.997761 14400.00323 L 18515.997761 14400.00323 " transform="matrix(0.0957586,0,0,0.0957921,0,0)"/>
<path style="fill:none;stroke-width:629.921;stroke-linecap:round;stroke-linejoin:round;stroke:rgb(0%,0%,0%);stroke-opacity:1;stroke-miterlimit:4;" d="M 12516.007607 7400.019784 L 12516.007607 7400.019784 " transform="matrix(0.0957586,0,0,0.0957921,0,0)"/>
<path style="fill:none;stroke-width:629.921;stroke-linecap:round;stroke-linejoin:round;stroke:rgb(0%,0%,0%);stroke-opacity:1;stroke-miterlimit:4;" d="M 18515.997761 15400.012516 L 18515.997761 15400.012516 " transform="matrix(0.0957586,0,0,0.0957921,0,0)"/>
<path style="fill:none;stroke-width:629.921;stroke-linecap:round;stroke-linejoin:round;stroke:rgb(0%,0%,0%);stroke-opacity:1;stroke-miterlimit:4;" d="M 12516.007607 6400.010497 L 12516.007607 6400.010497 " transform="matrix(0.0957586,0,0,0.0957921,0,0)"/>
<path style="fill:none;stroke-width:629.921;stroke-linecap:round;stroke-linejoin:round;stroke:rgb(0%,0%,0%);stroke-opacity:1;stroke-miterlimit:4;" d="M 18515.997761 16399.981024 L 18515.997761 16399.981024 " transform="matrix(0.0957586,0,0,0.0957921,0,0)"/>
<path style="fill:none;stroke-width:629.921;stroke-linecap:round;stroke-linejoin:round;stroke:rgb(0%,0%,0%);stroke-opacity:1;stroke-miterlimit:4;" d="M 12516.007607 5400.001211 L 12516.007607 5400.001211 " transform="matrix(0.0957586,0,0,0.0957921,0,0)"/>
<path style="fill:none;stroke-width:629.921;stroke-linecap:round;stroke-linejoin:round;stroke:rgb(0%,0%,0%);stroke-opacity:1;stroke-miterlimit:4;" d="M 18515.997761 17399.99031 L 18515.997761 17399.99031 " transform="matrix(0.0957586,0,0,0.0957921,0,0)"/>
<path style="fill:none;stroke-width:629.921;stroke-linecap:round;stroke-linejoin:round;stroke:rgb(0%,0%,0%);stroke-opacity:1;stroke-miterlimit:4;" d="M 12516.007607 4399.991925 L 12516.007607 4399.991925 " transform="matrix(0.0957586,0,0,0.0957921,0,0)"/>
<path style="fill:none;stroke-width:629.921;stroke-linecap:round;stroke-linejoin:round;stroke:rgb(0%,0%,0%);stroke-opacity:1;stroke-miterlimit:4;" d="M 18515.997761 18399.999596 L 18515.997761 18399.999596 " transform="matrix(0.0957586,0,0,0.0957921,0,0)"/>
<path style="fill:none;stroke-width:629.921;stroke-linecap:round;stroke-linejoin:round;stroke:rgb(0%,0%,0%);stroke-opacity:1;stroke-miterlimit:4;" d="M 12516.007607 18399.999596 L 12516.007607 18399.999596 " transform="matrix(0.0957586,0,0,0.0957921,0,0)"/>
<path style="fill:none;stroke-width:669.291;stroke-linecap:round;stroke-linejoin:round;stroke:rgb(0%,0%,0%);stroke-opacity:1;stroke-miterlimit:4;" d="M 22516.004794 1400.004845 L 22516.004794 1400.004845 " transform="matrix(0.0957586,0,0,0.0957921,0,0)"/>
<path style="fill:none;stroke-width:669.291;stroke-linecap:round;stroke-linejoin:round;stroke:rgb(0%,0%,0%);stroke-opacity:1;stroke-miterlimit:4;" d="M 23515.996354 1400.004845 L 23515.996354 1400.004845 " transform="matrix(0.0957586,0,0,0.0957921,0,0)"/>
<path style="fill:none;stroke-width:669.291;stroke-linecap:round;stroke-linejoin:round;stroke:rgb(0%,0%,0%);stroke-opacity:1;stroke-miterlimit:4;" d="M 24515.987914 1400.004845 L 24515.987914 1400.004845 " transform="matrix(0.0957586,0,0,0.0957921,0,0)"/>
<path style="fill:none;stroke-width:669.291;stroke-linecap:round;stroke-linejoin:round;stroke:rgb(0%,0%,0%);stroke-opacity:1;stroke-miterlimit:4;" d="M 25516.020267 1400.004845 L 25516.020267 1400.004845 " transform="matrix(0.0957586,0,0,0.0957921,0,0)"/>
<path style="fill:none;stroke-width:669.291;stroke-linecap:round;stroke-linejoin:round;stroke:rgb(0%,0%,0%);stroke-opacity:1;stroke-miterlimit:4;" d="M 26516.011827 1400.004845 L 26516.011827 1400.004845 " transform="matrix(0.0957586,0,0,0.0957921,0,0)"/>
<path style=" stroke:none;fill-rule:evenodd;fill:rgb(0%,0%,0%);fill-opacity:1;" d="M 2602.882812 166.222656 L 2666.972656 166.222656 L 2666.972656 102.109375 L 2602.882812 102.109375 Z M 2602.882812 166.222656 "/>
<path style=" stroke:none;fill-rule:nonzero;fill:rgb(0%,0%,0%);fill-opacity:1;" d="M 1044.71875 1092.085938 C 1044.71875 1112.90625 1027.847656 1129.78125 1007.035156 1129.78125 C 986.226562 1129.78125 969.355469 1112.90625 969.355469 1092.085938 C 969.355469 1071.269531 986.226562 1054.394531 1007.035156 1054.394531 C 1027.847656 1054.394531 1044.71875 1071.269531 1044.71875 1092.085938 Z M 1044.71875 1092.085938 "/>
<path style=" stroke:none;fill-rule:nonzero;fill:rgb(0%,0%,0%);fill-opacity:1;" d="M 829.257812 1475.253906 C 829.257812 1496.074219 812.386719 1512.949219 791.578125 1512.949219 C 770.765625 1512.949219 753.894531 1496.074219 753.894531 1475.253906 C 753.894531 1454.4375 770.765625 1437.5625 791.578125 1437.5625 C 812.386719 1437.5625 829.257812 1454.4375 829.257812 1475.253906 Z M 829.257812 1475.253906 "/>
<path style=" stroke:none;fill-rule:nonzero;fill:rgb(0%,0%,0%);fill-opacity:1;" d="M 941.4375 394.011719 C 941.4375 410.675781 927.933594 424.183594 911.277344 424.183594 C 894.617188 424.183594 881.113281 410.675781 881.113281 394.011719 C 881.113281 377.347656 894.617188 363.839844 911.277344 363.839844 C 927.933594 363.839844 941.4375 377.347656 941.4375 394.011719 Z M 941.4375 394.011719 "/>
<path style=" stroke:none;fill-rule:evenodd;fill:rgb(0%,0%,0%);fill-opacity:1;" d="M 881.117188 499.609375 L 941.4375 499.609375 L 941.4375 439.265625 L 881.117188 439.265625 Z M 881.117188 499.609375 "/>
<path style="fill:none;stroke-width:669.291;stroke-linecap:round;stroke-linejoin:round;stroke:rgb(0%,0%,0%);stroke-opacity:1;stroke-miterlimit:4;" d="M 2578.994306 4351.017038 L 2578.994306 4449.00759 " transform="matrix(0.0957586,0,0,0.0957921,0,0)"/>
<path style="fill:none;stroke-width:669.291;stroke-linecap:round;stroke-linejoin:round;stroke:rgb(0%,0%,0%);stroke-opacity:1;stroke-miterlimit:4;" d="M 3562.995139 4351.017038 L 3562.995139 4449.00759 " transform="matrix(0.0957586,0,0,0.0957921,0,0)"/>
<path style="fill:none;stroke-width:669.291;stroke-linecap:round;stroke-linejoin:round;stroke:rgb(0%,0%,0%);stroke-opacity:1;stroke-miterlimit:4;" d="M 4546.995971 4351.017038 L 4546.995971 4449.00759 " transform="matrix(0.0957586,0,0,0.0957921,0,0)"/>
<path style="fill:none;stroke-width:669.291;stroke-linecap:round;stroke-linejoin:round;stroke:rgb(0%,0%,0%);stroke-opacity:1;stroke-miterlimit:4;" d="M 5532.016621 4351.017038 L 5532.016621 4449.00759 " transform="matrix(0.0957586,0,0,0.0957921,0,0)"/>
<path style=" stroke:none;fill-rule:evenodd;fill:rgb(0%,0%,0%);fill-opacity:1;" d="M 600.453125 384.816406 L 599.535156 384.953125 L 598.640625 385.175781 L 597.769531 385.488281 L 596.933594 385.882812 L 596.140625 386.359375 L 595.398438 386.910156 L 594.714844 387.53125 L 594.09375 388.214844 L 593.542969 388.960938 L 593.066406 389.753906 L 592.671875 390.589844 L 592.359375 391.460938 L 592.136719 392.355469 L 592 393.273438 L 591.953125 394.195312 L 591.953125 448.886719 L 592 449.8125 L 592.136719 450.726562 L 592.359375 451.625 L 592.671875 452.492188 L 593.066406 453.332031 L 593.542969 454.125 L 594.09375 454.867188 L 594.714844 455.550781 L 595.398438 456.171875 L 596.140625 456.722656 L 596.933594 457.199219 L 597.769531 457.59375 L 598.640625 457.90625 L 599.535156 458.132812 L 600.453125 458.265625 L 601.375 458.3125 L 646.625 458.3125 L 647.546875 458.265625 L 648.460938 458.132812 L 649.359375 457.90625 L 650.230469 457.59375 L 651.066406 457.199219 L 651.859375 456.722656 L 652.601562 456.171875 L 653.285156 455.550781 L 653.90625 454.867188 L 654.457031 454.125 L 654.933594 453.332031 L 655.328125 452.492188 L 655.640625 451.625 L 655.863281 450.726562 L 656 449.8125 L 656.042969 448.886719 L 656.042969 394.195312 L 656 393.273438 L 655.863281 392.355469 L 655.640625 391.460938 L 655.328125 390.589844 L 654.933594 389.753906 L 654.457031 388.960938 L 653.90625 388.214844 L 653.285156 387.53125 L 652.601562 386.910156 L 651.859375 386.359375 L 651.066406 385.882812 L 650.230469 385.488281 L 649.359375 385.175781 L 648.460938 384.953125 L 647.546875 384.816406 L 646.625 384.769531 L 601.375 384.769531 Z M 600.453125 384.816406 "/>
<path style="fill:none;stroke-width:669.291;stroke-linecap:round;stroke-linejoin:round;stroke:rgb(0%,0%,0%);stroke-opacity:1;stroke-miterlimit:4;" d="M 8265.982288 17900.015342 L 8265.982288 17900.015342 " transform="matrix(0.0957586,0,0,0.0957921,0,0)"/>
<path style="fill:none;stroke-width:669.291;stroke-linecap:round;stroke-linejoin:round;stroke:rgb(0%,0%,0%);stroke-opacity:1;stroke-miterlimit:4;" d="M 7265.990727 17900.015342 L 7265.990727 17900.015342 " transform="matrix(0.0957586,0,0,0.0957921,0,0)"/>
<path style="fill:none;stroke-width:669.291;stroke-linecap:round;stroke-linejoin:round;stroke:rgb(0%,0%,0%);stroke-opacity:1;stroke-miterlimit:4;" d="M 6265.999167 17900.015342 L 6265.999167 17900.015342 " transform="matrix(0.0957586,0,0,0.0957921,0,0)"/>
<path style="fill:none;stroke-width:669.291;stroke-linecap:round;stroke-linejoin:round;stroke:rgb(0%,0%,0%);stroke-opacity:1;stroke-miterlimit:4;" d="M 5266.007607 17900.015342 L 5266.007607 17900.015342 " transform="matrix(0.0957586,0,0,0.0957921,0,0)"/>
<path style="fill:none;stroke-width:669.291;stroke-linecap:round;stroke-linejoin:round;stroke:rgb(0%,0%,0%);stroke-opacity:1;stroke-miterlimit:4;" d="M 4266.016047 17900.015342 L 4266.016047 17900.015342 " transform="matrix(0.0957586,0,0,0.0957921,0,0)"/>
<path style=" stroke:none;fill-rule:evenodd;fill:rgb(0%,0%,0%);fill-opacity:1;" d="M 344.828125 1682.675781 L 280.738281 1682.675781 L 280.738281 1746.789062 L 344.828125 1746.789062 Z M 344.828125 1682.675781 "/>
<path style="fill:none;stroke-width:98.4252;stroke-linecap:round;stroke-linejoin:round;stroke:rgb(0%,0%,0%);stroke-opacity:1;stroke-miterlimit:4;" d="M 9766.01042 8399.988291 L 9266.01464 7900.004037 " transform="matrix(0.0957586,0,0,0.0957921,0,0)"/>
<path style="fill:none;stroke-width:98.4252;stroke-linecap:round;stroke-linejoin:round;stroke:rgb(0%,0%,0%);stroke-opacity:1;stroke-miterlimit:4;" d="M 12516.007607 8399.988291 L 9766.01042 8399.988291 " transform="matrix(0.0957586,0,0,0.0957921,0,0)"/>
<path style="fill:none;stroke-width:98.4252;stroke-linecap:round;stroke-linejoin:round;stroke:rgb(0%,0%,0%);stroke-opacity:1;stroke-miterlimit:4;" d="M 4766.011827 10400.006864 L 2265.992134 7900.004037 " transform="matrix(0.0957586,0,0,0.0957921,0,0)"/>
<path style="fill:none;stroke-width:98.4252;stroke-linecap:round;stroke-linejoin:round;stroke:rgb(0%,0%,0%);stroke-opacity:1;stroke-miterlimit:4;" d="M 12516.007607 10400.006864 L 4766.011827 10400.006864 " transform="matrix(0.0957586,0,0,0.0957921,0,0)"/>
<path style="fill:none;stroke-width:98.4252;stroke-linecap:round;stroke-linejoin:round;stroke:rgb(0%,0%,0%);stroke-opacity:1;stroke-miterlimit:4;" d="M 5515.985101 7900.004037 L 4515.993541 7900.004037 " transform="matrix(0.0957586,0,0,0.0957921,0,0)"/>
<path style="fill:none;stroke-width:98.4252;stroke-linecap:round;stroke-linejoin:round;stroke:rgb(0%,0%,0%);stroke-opacity:1;stroke-miterlimit:4;" d="M 11016.020267 5899.985465 L 12516.007607 4399.991925 " transform="matrix(0.0957586,0,0,0.0957921,0,0)"/>
<path style="fill:none;stroke-width:98.4252;stroke-linecap:round;stroke-linejoin:round;stroke:rgb(0%,0%,0%);stroke-opacity:1;stroke-miterlimit:4;" d="M 9515.992134 4900.016957 L 9515.992134 5899.985465 " transform="matrix(0.0957586,0,0,0.0957921,0,0)"/>
<path style="fill:none;stroke-width:98.4252;stroke-linecap:round;stroke-linejoin:round;stroke:rgb(0%,0%,0%);stroke-opacity:1;stroke-miterlimit:4;" d="M 2265.992134 10899.991118 L 2265.992134 12900.00969 " transform="matrix(0.0957586,0,0,0.0957921,0,0)"/>
<path style="fill:none;stroke-width:98.4252;stroke-linecap:round;stroke-linejoin:round;stroke:rgb(0%,0%,0%);stroke-opacity:1;stroke-miterlimit:4;" d="M 515.986507 9149.985061 L 2265.992134 10899.991118 " transform="matrix(0.0957586,0,0,0.0957921,0,0)"/>
<path style="fill:none;stroke-width:98.4252;stroke-linecap:round;stroke-linejoin:round;stroke:rgb(0%,0%,0%);stroke-opacity:1;stroke-miterlimit:4;" d="M 11016.020267 5899.985465 L 9515.992134 5899.985465 " transform="matrix(0.0957586,0,0,0.0957921,0,0)"/>
<path style="fill:none;stroke-width:98.4252;stroke-linecap:round;stroke-linejoin:round;stroke:rgb(0%,0%,0%);stroke-opacity:1;stroke-miterlimit:4;" d="M 1516.01886 5899.985465 L 1266.000574 5899.985465 " transform="matrix(0.0957586,0,0,0.0957921,0,0)"/>
<path style="fill:none;stroke-width:98.4252;stroke-linecap:round;stroke-linejoin:round;stroke:rgb(0%,0%,0%);stroke-opacity:1;stroke-miterlimit:4;" d="M 9515.992134 5899.985465 L 1516.01886 5899.985465 " transform="matrix(0.0957586,0,0,0.0957921,0,0)"/>
<path style="fill:none;stroke-width:98.4252;stroke-linecap:round;stroke-linejoin:round;stroke:rgb(0%,0%,0%);stroke-opacity:1;stroke-miterlimit:4;" d="M 1266.000574 5899.985465 L 515.986507 6649.982235 " transform="matrix(0.0957586,0,0,0.0957921,0,0)"/>
<path style="fill:none;stroke-width:98.4252;stroke-linecap:round;stroke-linejoin:round;stroke:rgb(0%,0%,0%);stroke-opacity:1;stroke-miterlimit:4;" d="M 515.986507 6649.982235 L 515.986507 9149.985061 " transform="matrix(0.0957586,0,0,0.0957921,0,0)"/>
<path style="fill:none;stroke-width:98.4252;stroke-linecap:round;stroke-linejoin:round;stroke:rgb(0%,0%,0%);stroke-opacity:1;stroke-miterlimit:4;" d="M 515.986507 5149.988695 L 1266.000574 5899.985465 " transform="matrix(0.0957586,0,0,0.0957921,0,0)"/>
<path style="fill:none;stroke-width:98.4252;stroke-linecap:round;stroke-linejoin:round;stroke:rgb(0%,0%,0%);stroke-opacity:1;stroke-miterlimit:4;" d="M 4015.997761 899.979813 L 515.986507 4399.991925 " transform="matrix(0.0957586,0,0,0.0957921,0,0)"/>
<path style="fill:none;stroke-width:98.4252;stroke-linecap:round;stroke-linejoin:round;stroke:rgb(0%,0%,0%);stroke-opacity:1;stroke-miterlimit:4;" d="M 15015.986507 1400.004845 L 14515.990727 899.979813 " transform="matrix(0.0957586,0,0,0.0957921,0,0)"/>
<path style="fill:none;stroke-width:98.4252;stroke-linecap:round;stroke-linejoin:round;stroke:rgb(0%,0%,0%);stroke-opacity:1;stroke-miterlimit:4;" d="M 14515.990727 899.979813 L 4015.997761 899.979813 " transform="matrix(0.0957586,0,0,0.0957921,0,0)"/>
<path style="fill:none;stroke-width:98.4252;stroke-linecap:round;stroke-linejoin:round;stroke:rgb(0%,0%,0%);stroke-opacity:1;stroke-miterlimit:4;" d="M 515.986507 4399.991925 L 515.986507 5149.988695 " transform="matrix(0.0957586,0,0,0.0957921,0,0)"/>
<path style="fill:none;stroke-width:98.4252;stroke-linecap:round;stroke-linejoin:round;stroke:rgb(0%,0%,0%);stroke-opacity:1;stroke-miterlimit:4;" d="M 22516.004794 1400.004845 L 19015.993541 1400.004845 " transform="matrix(0.0957586,0,0,0.0957921,0,0)"/>
<path style="fill:none;stroke-width:98.4252;stroke-linecap:round;stroke-linejoin:round;stroke:rgb(0%,0%,0%);stroke-opacity:1;stroke-miterlimit:4;" d="M 7265.990727 7900.004037 L 6265.999167 7900.004037 " transform="matrix(0.0957586,0,0,0.0957921,0,0)"/>
<path style="fill:none;stroke-width:98.4252;stroke-linecap:round;stroke-linejoin:round;stroke:rgb(0%,0%,0%);stroke-opacity:1;stroke-miterlimit:4;" d="M 18031.992708 1400.004845 L 15015.986507 1400.004845 " transform="matrix(0.0957586,0,0,0.0957921,0,0)"/>
<path style="fill:none;stroke-width:98.4252;stroke-linecap:round;stroke-linejoin:round;stroke:rgb(0%,0%,0%);stroke-opacity:1;stroke-miterlimit:4;" d="M 11516.016047 6400.010497 L 12516.007607 5400.001211 " transform="matrix(0.0957586,0,0,0.0957921,0,0)"/>
<path style="fill:none;stroke-width:98.4252;stroke-linecap:round;stroke-linejoin:round;stroke:rgb(0%,0%,0%);stroke-opacity:1;stroke-miterlimit:4;" d="M 6802.993901 4112.993379 L 6516.017454 4399.991925 " transform="matrix(0.0957586,0,0,0.0957921,0,0)"/>
<path style="fill:none;stroke-width:98.4252;stroke-linecap:round;stroke-linejoin:round;stroke:rgb(0%,0%,0%);stroke-opacity:1;stroke-miterlimit:4;" d="M 9515.992134 4112.993379 L 6802.993901 4112.993379 " transform="matrix(0.0957586,0,0,0.0957921,0,0)"/>
<path style="fill:none;stroke-width:98.4252;stroke-linecap:round;stroke-linejoin:round;stroke:rgb(0%,0%,0%);stroke-opacity:1;stroke-miterlimit:4;" d="M 14015.994947 4900.016957 L 13515.999167 5400.001211 " transform="matrix(0.0957586,0,0,0.0957921,0,0)"/>
<path style="fill:none;stroke-width:98.4252;stroke-linecap:round;stroke-linejoin:round;stroke:rgb(0%,0%,0%);stroke-opacity:1;stroke-miterlimit:4;" d="M 9960.999392 4112.993379 L 10674.014505 3399.982639 " transform="matrix(0.0957586,0,0,0.0957921,0,0)"/>
<path style="fill:none;stroke-width:98.4252;stroke-linecap:round;stroke-linejoin:round;stroke:rgb(0%,0%,0%);stroke-opacity:1;stroke-miterlimit:4;" d="M 14015.994947 4399.991925 L 14015.994947 4900.016957 " transform="matrix(0.0957586,0,0,0.0957921,0,0)"/>
<path style="fill:none;stroke-width:98.4252;stroke-linecap:round;stroke-linejoin:round;stroke:rgb(0%,0%,0%);stroke-opacity:1;stroke-miterlimit:4;" d="M 9515.992134 4112.993379 L 9960.999392 4112.993379 " transform="matrix(0.0957586,0,0,0.0957921,0,0)"/>
<path style="fill:none;stroke-width:98.4252;stroke-linecap:round;stroke-linejoin:round;stroke:rgb(0%,0%,0%);stroke-opacity:1;stroke-miterlimit:4;" d="M 10674.014505 3399.982639 L 13016.003387 3399.982639 " transform="matrix(0.0957586,0,0,0.0957921,0,0)"/>
<path style="fill:none;stroke-width:98.4252;stroke-linecap:round;stroke-linejoin:round;stroke:rgb(0%,0%,0%);stroke-opacity:1;stroke-miterlimit:4;" d="M 13515.999167 5400.001211 L 12516.007607 5400.001211 " transform="matrix(0.0957586,0,0,0.0957921,0,0)"/>
<path style="fill:none;stroke-width:98.4252;stroke-linecap:round;stroke-linejoin:round;stroke:rgb(0%,0%,0%);stroke-opacity:1;stroke-miterlimit:4;" d="M 13016.003387 3399.982639 L 14015.994947 4399.991925 " transform="matrix(0.0957586,0,0,0.0957921,0,0)"/>
<path style="fill:none;stroke-width:98.4252;stroke-linecap:round;stroke-linejoin:round;stroke:rgb(0%,0%,0%);stroke-opacity:1;stroke-miterlimit:4;" d="M 3265.983694 17900.015342 L 3265.983694 12900.00969 " transform="matrix(0.0957586,0,0,0.0957921,0,0)"/>
<path style="fill:none;stroke-width:98.4252;stroke-linecap:round;stroke-linejoin:round;stroke:rgb(0%,0%,0%);stroke-opacity:1;stroke-miterlimit:4;" d="M 1765.996354 6400.010497 L 11516.016047 6400.010497 " transform="matrix(0.0957586,0,0,0.0957921,0,0)"/>
<path style="fill:none;stroke-width:98.4252;stroke-linecap:round;stroke-linejoin:round;stroke:rgb(0%,0%,0%);stroke-opacity:1;stroke-miterlimit:4;" d="M 3265.983694 10899.991118 L 3265.983694 12900.00969 " transform="matrix(0.0957586,0,0,0.0957921,0,0)"/>
<path style="fill:none;stroke-width:98.4252;stroke-linecap:round;stroke-linejoin:round;stroke:rgb(0%,0%,0%);stroke-opacity:1;stroke-miterlimit:4;" d="M 1015.982288 8650.000807 L 3265.983694 10899.991118 " transform="matrix(0.0957586,0,0,0.0957921,0,0)"/>
<path style="fill:none;stroke-width:98.4252;stroke-linecap:round;stroke-linejoin:round;stroke:rgb(0%,0%,0%);stroke-opacity:1;stroke-miterlimit:4;" d="M 1765.996354 6400.010497 L 1015.982288 7150.007267 " transform="matrix(0.0957586,0,0,0.0957921,0,0)"/>
<path style="fill:none;stroke-width:98.4252;stroke-linecap:round;stroke-linejoin:round;stroke:rgb(0%,0%,0%);stroke-opacity:1;stroke-miterlimit:4;" d="M 1015.982288 7150.007267 L 1015.982288 8650.000807 " transform="matrix(0.0957586,0,0,0.0957921,0,0)"/>
<path style="fill:none;stroke-width:98.4252;stroke-linecap:round;stroke-linejoin:round;stroke:rgb(0%,0%,0%);stroke-opacity:1;stroke-miterlimit:4;" d="M 8265.982288 15400.012516 L 8265.982288 17900.015342 " transform="matrix(0.0957586,0,0,0.0957921,0,0)"/>
<path style="fill:none;stroke-width:98.4252;stroke-linecap:round;stroke-linejoin:round;stroke:rgb(0%,0%,0%);stroke-opacity:1;stroke-miterlimit:4;" d="M 18515.997761 9399.997578 L 17016.01042 7900.004037 " transform="matrix(0.0957586,0,0,0.0957921,0,0)"/>
<path style="fill:none;stroke-width:98.4252;stroke-linecap:round;stroke-linejoin:round;stroke:rgb(0%,0%,0%);stroke-opacity:1;stroke-miterlimit:4;" d="M 17016.01042 7900.004037 L 17016.01042 4399.991925 " transform="matrix(0.0957586,0,0,0.0957921,0,0)"/>
<path style="fill:none;stroke-width:98.4252;stroke-linecap:round;stroke-linejoin:round;stroke:rgb(0%,0%,0%);stroke-opacity:1;stroke-miterlimit:4;" d="M 17016.01042 4399.991925 L 14515.990727 1899.989099 " transform="matrix(0.0957586,0,0,0.0957921,0,0)"/>
<path style="fill:none;stroke-width:98.4252;stroke-linecap:round;stroke-linejoin:round;stroke:rgb(0%,0%,0%);stroke-opacity:1;stroke-miterlimit:4;" d="M 3562.995139 3917.990956 L 3562.995139 4399.991925 " transform="matrix(0.0957586,0,0,0.0957921,0,0)"/>
<path style="fill:none;stroke-width:98.4252;stroke-linecap:round;stroke-linejoin:round;stroke:rgb(0%,0%,0%);stroke-opacity:1;stroke-miterlimit:4;" d="M 5581.00862 1899.989099 L 3562.995139 3917.990956 " transform="matrix(0.0957586,0,0,0.0957921,0,0)"/>
<path style="fill:none;stroke-width:98.4252;stroke-linecap:round;stroke-linejoin:round;stroke:rgb(0%,0%,0%);stroke-opacity:1;stroke-miterlimit:4;" d="M 14515.990727 1899.989099 L 5581.00862 1899.989099 " transform="matrix(0.0957586,0,0,0.0957921,0,0)"/>
<path style="fill:none;stroke-width:98.4252;stroke-linecap:round;stroke-linejoin:round;stroke:rgb(0%,0%,0%);stroke-opacity:1;stroke-miterlimit:4;" d="M 2578.994306 3917.990956 L 5097.003567 1400.004845 " transform="matrix(0.0957586,0,0,0.0957921,0,0)"/>
<path style="fill:none;stroke-width:98.4252;stroke-linecap:round;stroke-linejoin:round;stroke:rgb(0%,0%,0%);stroke-opacity:1;stroke-miterlimit:4;" d="M 2578.994306 4399.991925 L 2578.994306 3917.990956 " transform="matrix(0.0957586,0,0,0.0957921,0,0)"/>
<path style="fill:none;stroke-width:98.4252;stroke-linecap:round;stroke-linejoin:round;stroke:rgb(0%,0%,0%);stroke-opacity:1;stroke-miterlimit:4;" d="M 5097.003567 1400.004845 L 14515.990727 1400.004845 " transform="matrix(0.0957586,0,0,0.0957921,0,0)"/>
<path style="fill:none;stroke-width:98.4252;stroke-linecap:round;stroke-linejoin:round;stroke:rgb(0%,0%,0%);stroke-opacity:1;stroke-miterlimit:4;" d="M 14515.990727 1400.004845 L 17516.0062 4399.991925 " transform="matrix(0.0957586,0,0,0.0957921,0,0)"/>
<path style="fill:none;stroke-width:98.4252;stroke-linecap:round;stroke-linejoin:round;stroke:rgb(0%,0%,0%);stroke-opacity:1;stroke-miterlimit:4;" d="M 17516.0062 7400.019784 L 18515.997761 8399.988291 " transform="matrix(0.0957586,0,0,0.0957921,0,0)"/>
<path style="fill:none;stroke-width:98.4252;stroke-linecap:round;stroke-linejoin:round;stroke:rgb(0%,0%,0%);stroke-opacity:1;stroke-miterlimit:4;" d="M 17516.0062 4399.991925 L 17516.0062 7400.019784 " transform="matrix(0.0957586,0,0,0.0957921,0,0)"/>
<path style="fill:none;stroke-width:98.4252;stroke-linecap:round;stroke-linejoin:round;stroke:rgb(0%,0%,0%);stroke-opacity:1;stroke-miterlimit:4;" d="M 4546.995971 3917.990956 L 4546.995971 4399.991925 " transform="matrix(0.0957586,0,0,0.0957921,0,0)"/>
<path style="fill:none;stroke-width:98.4252;stroke-linecap:round;stroke-linejoin:round;stroke:rgb(0%,0%,0%);stroke-opacity:1;stroke-miterlimit:4;" d="M 16516.01464 8399.988291 L 16516.01464 4399.991925 " transform="matrix(0.0957586,0,0,0.0957921,0,0)"/>
<path style="fill:none;stroke-width:98.4252;stroke-linecap:round;stroke-linejoin:round;stroke:rgb(0%,0%,0%);stroke-opacity:1;stroke-miterlimit:4;" d="M 18515.997761 10400.006864 L 16516.01464 8399.988291 " transform="matrix(0.0957586,0,0,0.0957921,0,0)"/>
<path style="fill:none;stroke-width:98.4252;stroke-linecap:round;stroke-linejoin:round;stroke:rgb(0%,0%,0%);stroke-opacity:1;stroke-miterlimit:4;" d="M 16516.01464 4399.991925 L 14515.990727 2400.014131 " transform="matrix(0.0957586,0,0,0.0957921,0,0)"/>
<path style="fill:none;stroke-width:98.4252;stroke-linecap:round;stroke-linejoin:round;stroke:rgb(0%,0%,0%);stroke-opacity:1;stroke-miterlimit:4;" d="M 14515.990727 2400.014131 L 6065.013673 2400.014131 " transform="matrix(0.0957586,0,0,0.0957921,0,0)"/>
<path style="fill:none;stroke-width:98.4252;stroke-linecap:round;stroke-linejoin:round;stroke:rgb(0%,0%,0%);stroke-opacity:1;stroke-miterlimit:4;" d="M 6065.013673 2400.014131 L 4546.995971 3917.990956 " transform="matrix(0.0957586,0,0,0.0957921,0,0)"/>
<path style="fill:none;stroke-width:98.4252;stroke-linecap:round;stroke-linejoin:round;stroke:rgb(0%,0%,0%);stroke-opacity:1;stroke-miterlimit:4;" d="M 5266.007607 12900.00969 L 5266.007607 17900.015342 " transform="matrix(0.0957586,0,0,0.0957921,0,0)"/>
<path style="fill:none;stroke-width:98.4252;stroke-linecap:round;stroke-linejoin:round;stroke:rgb(0%,0%,0%);stroke-opacity:1;stroke-miterlimit:4;" d="M 6265.999167 12900.00969 L 6265.999167 17900.015342 " transform="matrix(0.0957586,0,0,0.0957921,0,0)"/>
<path style="fill:none;stroke-width:98.4252;stroke-linecap:round;stroke-linejoin:round;stroke:rgb(0%,0%,0%);stroke-opacity:1;stroke-miterlimit:4;" d="M 7265.990727 12900.00969 L 7265.990727 17900.015342 " transform="matrix(0.0957586,0,0,0.0957921,0,0)"/>
<path style="fill:none;stroke-width:98.4252;stroke-linecap:round;stroke-linejoin:round;stroke:rgb(0%,0%,0%);stroke-opacity:1;stroke-miterlimit:4;" d="M 4266.016047 12900.00969 L 4266.016047 17900.015342 " transform="matrix(0.0957586,0,0,0.0957921,0,0)"/>
<path style="fill:none;stroke-width:98.4252;stroke-linecap:round;stroke-linejoin:round;stroke:rgb(0%,0%,0%);stroke-opacity:1;stroke-miterlimit:4;" d="M 14515.990727 3900.007671 L 14515.990727 5400.001211 " transform="matrix(0.0957586,0,0,0.0957921,0,0)"/>
<path style="fill:none;stroke-width:98.4252;stroke-linecap:round;stroke-linejoin:round;stroke:rgb(0%,0%,0%);stroke-opacity:1;stroke-miterlimit:4;" d="M 6549.018725 2899.998385 L 13515.999167 2899.998385 " transform="matrix(0.0957586,0,0,0.0957921,0,0)"/>
<path style="fill:none;stroke-width:98.4252;stroke-linecap:round;stroke-linejoin:round;stroke:rgb(0%,0%,0%);stroke-opacity:1;stroke-miterlimit:4;" d="M 5532.016621 3917.990956 L 6549.018725 2899.998385 " transform="matrix(0.0957586,0,0,0.0957921,0,0)"/>
<path style="fill:none;stroke-width:98.4252;stroke-linecap:round;stroke-linejoin:round;stroke:rgb(0%,0%,0%);stroke-opacity:1;stroke-miterlimit:4;" d="M 13504.006122 2888.009528 L 13515.999167 2899.998385 " transform="matrix(0.0957586,0,0,0.0957921,0,0)"/>
<path style="fill:none;stroke-width:98.4252;stroke-linecap:round;stroke-linejoin:round;stroke:rgb(0%,0%,0%);stroke-opacity:1;stroke-miterlimit:4;" d="M 5532.016621 4399.991925 L 5532.016621 3917.990956 " transform="matrix(0.0957586,0,0,0.0957921,0,0)"/>
<path style="fill:none;stroke-width:98.4252;stroke-linecap:round;stroke-linejoin:round;stroke:rgb(0%,0%,0%);stroke-opacity:1;stroke-miterlimit:4;" d="M 13515.999167 2899.998385 L 14515.990727 3900.007671 " transform="matrix(0.0957586,0,0,0.0957921,0,0)"/>
<path style="fill:none;stroke-width:98.4252;stroke-linecap:round;stroke-linejoin:round;stroke:rgb(0%,0%,0%);stroke-opacity:1;stroke-miterlimit:4;" d="M 14515.990727 5400.001211 L 13515.999167 6400.010497 " transform="matrix(0.0957586,0,0,0.0957921,0,0)"/>
<path style="fill:none;stroke-width:98.4252;stroke-linecap:round;stroke-linejoin:round;stroke:rgb(0%,0%,0%);stroke-opacity:1;stroke-miterlimit:4;" d="M 13515.999167 6400.010497 L 12516.007607 7400.019784 " transform="matrix(0.0957586,0,0,0.0957921,0,0)"/>
<path style="fill:none;stroke-width:98.4252;stroke-linecap:round;stroke-linejoin:round;stroke:rgb(0%,0%,0%);stroke-opacity:1;stroke-miterlimit:4;" d="M 9266.01464 9399.997578 L 9015.996354 9399.997578 " transform="matrix(0.0957586,0,0,0.0957921,0,0)"/>
<path style="fill:none;stroke-width:98.4252;stroke-linecap:round;stroke-linejoin:round;stroke:rgb(0%,0%,0%);stroke-opacity:1;stroke-miterlimit:4;" d="M 12516.007607 9399.997578 L 9266.01464 9399.997578 " transform="matrix(0.0957586,0,0,0.0957921,0,0)"/>
<path style="fill:none;stroke-width:98.4252;stroke-linecap:round;stroke-linejoin:round;stroke:rgb(0%,0%,0%);stroke-opacity:1;stroke-miterlimit:4;" d="M 8265.982288 8650.000807 L 8265.982288 7900.004037 " transform="matrix(0.0957586,0,0,0.0957921,0,0)"/>
<path style="fill:none;stroke-width:98.4252;stroke-linecap:round;stroke-linejoin:round;stroke:rgb(0%,0%,0%);stroke-opacity:1;stroke-miterlimit:4;" d="M 9015.996354 9399.997578 L 8265.982288 8650.000807 " transform="matrix(0.0957586,0,0,0.0957921,0,0)"/>
<path style="fill:none;stroke-width:98.4252;stroke-linecap:round;stroke-linejoin:round;stroke:rgb(0%,0%,0%);stroke-opacity:1;stroke-miterlimit:4;" d="M 20448.999314 7400.019784 L 20015.985101 7400.019784 " transform="matrix(0.0957586,0,0,0.0957921,0,0)"/>
<path style="fill:none;stroke-width:98.4252;stroke-linecap:round;stroke-linejoin:round;stroke:rgb(0%,0%,0%);stroke-opacity:1;stroke-miterlimit:4;" d="M 20015.985101 7400.019784 L 18515.997761 7400.019784 " transform="matrix(0.0957586,0,0,0.0957921,0,0)"/>
<path style="fill:none;stroke-width:98.4252;stroke-linecap:round;stroke-linejoin:round;stroke:rgb(0%,0%,0%);stroke-opacity:1;stroke-miterlimit:4;" d="M 25015.983694 2832.999435 L 24515.987914 3399.982639 " transform="matrix(0.0957586,0,0,0.0957921,0,0)"/>
<path style="fill:none;stroke-width:98.4252;stroke-linecap:round;stroke-linejoin:round;stroke:rgb(0%,0%,0%);stroke-opacity:1;stroke-miterlimit:4;" d="M 11016.020267 19899.993136 L 10515.983694 19899.993136 " transform="matrix(0.0957586,0,0,0.0957921,0,0)"/>
<path style="fill:none;stroke-width:98.4252;stroke-linecap:round;stroke-linejoin:round;stroke:rgb(0%,0%,0%);stroke-opacity:1;stroke-miterlimit:4;" d="M 11265.997761 20150.005652 L 11016.020267 19899.993136 " transform="matrix(0.0957586,0,0,0.0957921,0,0)"/>
<path style="fill:none;stroke-width:98.4252;stroke-linecap:round;stroke-linejoin:round;stroke:rgb(0%,0%,0%);stroke-opacity:1;stroke-miterlimit:4;" d="M 19266.011827 20150.005652 L 11265.997761 20150.005652 " transform="matrix(0.0957586,0,0,0.0957921,0,0)"/>
<path style="fill:none;stroke-width:98.4252;stroke-linecap:round;stroke-linejoin:round;stroke:rgb(0%,0%,0%);stroke-opacity:1;stroke-miterlimit:4;" d="M 19589.008204 20077.012274 L 21265.994947 18399.999596 " transform="matrix(0.0957586,0,0,0.0957921,0,0)"/>
<path style="fill:none;stroke-width:98.4252;stroke-linecap:round;stroke-linejoin:round;stroke:rgb(0%,0%,0%);stroke-opacity:1;stroke-miterlimit:4;" d="M 21265.994947 6649.982235 L 21238.990199 6622.986919 " transform="matrix(0.0957586,0,0,0.0957921,0,0)"/>
<path style="fill:none;stroke-width:98.4252;stroke-linecap:round;stroke-linejoin:round;stroke:rgb(0%,0%,0%);stroke-opacity:1;stroke-miterlimit:4;" d="M 21265.994947 18399.999596 L 21265.994947 6649.982235 " transform="matrix(0.0957586,0,0,0.0957921,0,0)"/>
<path style="fill:none;stroke-width:98.4252;stroke-linecap:round;stroke-linejoin:round;stroke:rgb(0%,0%,0%);stroke-opacity:1;stroke-miterlimit:4;" d="M 24515.987914 3399.982639 L 21238.990199 6622.986919 " transform="matrix(0.0957586,0,0,0.0957921,0,0)"/>
<path style="fill:none;stroke-width:98.4252;stroke-linecap:round;stroke-linejoin:round;stroke:rgb(0%,0%,0%);stroke-opacity:1;stroke-miterlimit:4;" d="M 21238.990199 6622.986919 L 20448.999314 7400.019784 " transform="matrix(0.0957586,0,0,0.0957921,0,0)"/>
<path style="fill:none;stroke-width:98.4252;stroke-linecap:round;stroke-linejoin:round;stroke:rgb(0%,0%,0%);stroke-opacity:1;stroke-miterlimit:4;" d="M 19589.008204 20077.012274 L 19515.989321 20150.005652 " transform="matrix(0.0957586,0,0,0.0957921,0,0)"/>
<path style="fill:none;stroke-width:98.4252;stroke-linecap:round;stroke-linejoin:round;stroke:rgb(0%,0%,0%);stroke-opacity:1;stroke-miterlimit:4;" d="M 19515.989321 20150.005652 L 19266.011827 20150.005652 " transform="matrix(0.0957586,0,0,0.0957921,0,0)"/>
<path style="fill:none;stroke-width:98.4252;stroke-linecap:round;stroke-linejoin:round;stroke:rgb(0%,0%,0%);stroke-opacity:1;stroke-miterlimit:4;" d="M 27516.003387 1832.990149 L 27516.003387 1400.004845 " transform="matrix(0.0957586,0,0,0.0957921,0,0)"/>
<path style="fill:none;stroke-width:98.4252;stroke-linecap:round;stroke-linejoin:round;stroke:rgb(0%,0%,0%);stroke-opacity:1;stroke-miterlimit:4;" d="M 26516.011827 2832.999435 L 27516.003387 1832.990149 " transform="matrix(0.0957586,0,0,0.0957921,0,0)"/>
<path style="fill:none;stroke-width:98.4252;stroke-linecap:round;stroke-linejoin:round;stroke:rgb(0%,0%,0%);stroke-opacity:1;stroke-miterlimit:4;" d="M 25015.983694 2832.999435 L 26516.011827 2832.999435 " transform="matrix(0.0957586,0,0,0.0957921,0,0)"/>
<path style="fill:none;stroke-width:98.4252;stroke-linecap:round;stroke-linejoin:round;stroke:rgb(0%,0%,0%);stroke-opacity:1;stroke-miterlimit:4;" d="M 11765.993541 14400.00323 L 11265.997761 13900.018976 " transform="matrix(0.0957586,0,0,0.0957921,0,0)"/>
<path style="fill:none;stroke-width:98.4252;stroke-linecap:round;stroke-linejoin:round;stroke:rgb(0%,0%,0%);stroke-opacity:1;stroke-miterlimit:4;" d="M 12516.007607 17399.99031 L 11765.993541 16649.99354 " transform="matrix(0.0957586,0,0,0.0957921,0,0)"/>
<path style="fill:none;stroke-width:98.4252;stroke-linecap:round;stroke-linejoin:round;stroke:rgb(0%,0%,0%);stroke-opacity:1;stroke-miterlimit:4;" d="M 11265.997761 13900.018976 L 10515.983694 13900.018976 " transform="matrix(0.0957586,0,0,0.0957921,0,0)"/>
<path style="fill:none;stroke-width:98.4252;stroke-linecap:round;stroke-linejoin:round;stroke:rgb(0%,0%,0%);stroke-opacity:1;stroke-miterlimit:4;" d="M 11765.993541 16649.99354 L 11765.993541 14400.00323 " transform="matrix(0.0957586,0,0,0.0957921,0,0)"/>
<path style="fill:none;stroke-width:98.4252;stroke-linecap:round;stroke-linejoin:round;stroke:rgb(0%,0%,0%);stroke-opacity:1;stroke-miterlimit:4;" d="M 19266.011827 14400.00323 L 18515.997761 14400.00323 " transform="matrix(0.0957586,0,0,0.0957921,0,0)"/>
<path style="fill:none;stroke-width:98.4252;stroke-linecap:round;stroke-linejoin:round;stroke:rgb(0%,0%,0%);stroke-opacity:1;stroke-miterlimit:4;" d="M 12265.010297 19649.98062 L 10851.013909 18235.988776 " transform="matrix(0.0957586,0,0,0.0957921,0,0)"/>
<path style="fill:none;stroke-width:98.4252;stroke-linecap:round;stroke-linejoin:round;stroke:rgb(0%,0%,0%);stroke-opacity:1;stroke-miterlimit:4;" d="M 10851.013909 18235.988776 L 10851.013909 18235.010094 " transform="matrix(0.0957586,0,0,0.0957921,0,0)"/>
<path style="fill:none;stroke-width:98.4252;stroke-linecap:round;stroke-linejoin:round;stroke:rgb(0%,0%,0%);stroke-opacity:1;stroke-miterlimit:4;" d="M 10851.013909 18235.010094 L 10515.983694 17900.015342 " transform="matrix(0.0957586,0,0,0.0957921,0,0)"/>
<path style="fill:none;stroke-width:98.4252;stroke-linecap:round;stroke-linejoin:round;stroke:rgb(0%,0%,0%);stroke-opacity:1;stroke-miterlimit:4;" d="M 19266.011827 14400.00323 L 20266.003387 15400.012516 " transform="matrix(0.0957586,0,0,0.0957921,0,0)"/>
<path style="fill:none;stroke-width:98.4252;stroke-linecap:round;stroke-linejoin:round;stroke:rgb(0%,0%,0%);stroke-opacity:1;stroke-miterlimit:4;" d="M 20266.003387 15400.012516 L 20266.003387 18399.999596 " transform="matrix(0.0957586,0,0,0.0957921,0,0)"/>
<path style="fill:none;stroke-width:98.4252;stroke-linecap:round;stroke-linejoin:round;stroke:rgb(0%,0%,0%);stroke-opacity:1;stroke-miterlimit:4;" d="M 20266.003387 18399.999596 L 19015.993541 19649.98062 " transform="matrix(0.0957586,0,0,0.0957921,0,0)"/>
<path style="fill:none;stroke-width:98.4252;stroke-linecap:round;stroke-linejoin:round;stroke:rgb(0%,0%,0%);stroke-opacity:1;stroke-miterlimit:4;" d="M 19015.993541 19649.98062 L 12265.989321 19649.98062 " transform="matrix(0.0957586,0,0,0.0957921,0,0)"/>
<path style="fill:none;stroke-width:98.4252;stroke-linecap:round;stroke-linejoin:round;stroke:rgb(0%,0%,0%);stroke-opacity:1;stroke-miterlimit:4;" d="M 12265.010297 19400.008882 L 11016.020267 18151.006541 " transform="matrix(0.0957586,0,0,0.0957921,0,0)"/>
<path style="fill:none;stroke-width:98.4252;stroke-linecap:round;stroke-linejoin:round;stroke:rgb(0%,0%,0%);stroke-opacity:1;stroke-miterlimit:4;" d="M 11016.020267 17399.99031 L 10515.983694 16900.006056 " transform="matrix(0.0957586,0,0,0.0957921,0,0)"/>
<path style="fill:none;stroke-width:98.4252;stroke-linecap:round;stroke-linejoin:round;stroke:rgb(0%,0%,0%);stroke-opacity:1;stroke-miterlimit:4;" d="M 11016.020267 18151.006541 L 11016.020267 17399.99031 " transform="matrix(0.0957586,0,0,0.0957921,0,0)"/>
<path style="fill:none;stroke-width:98.4252;stroke-linecap:round;stroke-linejoin:round;stroke:rgb(0%,0%,0%);stroke-opacity:1;stroke-miterlimit:4;" d="M 19266.011827 15400.012516 L 19766.007607 15899.99677 " transform="matrix(0.0957586,0,0,0.0957921,0,0)"/>
<path style="fill:none;stroke-width:98.4252;stroke-linecap:round;stroke-linejoin:round;stroke:rgb(0%,0%,0%);stroke-opacity:1;stroke-miterlimit:4;" d="M 19266.011827 15400.012516 L 18515.997761 15400.012516 " transform="matrix(0.0957586,0,0,0.0957921,0,0)"/>
<path style="fill:none;stroke-width:98.4252;stroke-linecap:round;stroke-linejoin:round;stroke:rgb(0%,0%,0%);stroke-opacity:1;stroke-miterlimit:4;" d="M 19766.007607 15899.99677 L 19766.007607 18399.999596 " transform="matrix(0.0957586,0,0,0.0957921,0,0)"/>
<path style="fill:none;stroke-width:98.4252;stroke-linecap:round;stroke-linejoin:round;stroke:rgb(0%,0%,0%);stroke-opacity:1;stroke-miterlimit:4;" d="M 19766.007607 18399.999596 L 18766.016047 19400.008882 " transform="matrix(0.0957586,0,0,0.0957921,0,0)"/>
<path style="fill:none;stroke-width:98.4252;stroke-linecap:round;stroke-linejoin:round;stroke:rgb(0%,0%,0%);stroke-opacity:1;stroke-miterlimit:4;" d="M 18766.016047 19400.008882 L 12265.010297 19400.008882 " transform="matrix(0.0957586,0,0,0.0957921,0,0)"/>
<path style="fill:none;stroke-width:98.4252;stroke-linecap:round;stroke-linejoin:round;stroke:rgb(0%,0%,0%);stroke-opacity:1;stroke-miterlimit:4;" d="M 11265.997761 16649.99354 L 10515.983694 15899.99677 " transform="matrix(0.0957586,0,0,0.0957921,0,0)"/>
<path style="fill:none;stroke-width:98.4252;stroke-linecap:round;stroke-linejoin:round;stroke:rgb(0%,0%,0%);stroke-opacity:1;stroke-miterlimit:4;" d="M 18515.997761 17399.99031 L 16765.992134 19149.996366 " transform="matrix(0.0957586,0,0,0.0957921,0,0)"/>
<path style="fill:none;stroke-width:98.4252;stroke-linecap:round;stroke-linejoin:round;stroke:rgb(0%,0%,0%);stroke-opacity:1;stroke-miterlimit:4;" d="M 16765.992134 19149.996366 L 12265.989321 19149.996366 " transform="matrix(0.0957586,0,0,0.0957921,0,0)"/>
<path style="fill:none;stroke-width:98.4252;stroke-linecap:round;stroke-linejoin:round;stroke:rgb(0%,0%,0%);stroke-opacity:1;stroke-miterlimit:4;" d="M 12265.989321 19149.996366 L 11265.997761 18149.98708 " transform="matrix(0.0957586,0,0,0.0957921,0,0)"/>
<path style="fill:none;stroke-width:98.4252;stroke-linecap:round;stroke-linejoin:round;stroke:rgb(0%,0%,0%);stroke-opacity:1;stroke-miterlimit:4;" d="M 11265.997761 18149.98708 L 11265.997761 16649.99354 " transform="matrix(0.0957586,0,0,0.0957921,0,0)"/>
<path style="fill:none;stroke-width:98.4252;stroke-linecap:round;stroke-linejoin:round;stroke:rgb(0%,0%,0%);stroke-opacity:1;stroke-miterlimit:4;" d="M 12069.980532 18399.999596 L 11516.016047 17845.983931 " transform="matrix(0.0957586,0,0,0.0957921,0,0)"/>
<path style="fill:none;stroke-width:98.4252;stroke-linecap:round;stroke-linejoin:round;stroke:rgb(0%,0%,0%);stroke-opacity:1;stroke-miterlimit:4;" d="M 12516.007607 18399.999596 L 12069.980532 18399.999596 " transform="matrix(0.0957586,0,0,0.0957921,0,0)"/>
<path style="fill:none;stroke-width:98.4252;stroke-linecap:round;stroke-linejoin:round;stroke:rgb(0%,0%,0%);stroke-opacity:1;stroke-miterlimit:4;" d="M 11516.016047 15899.99677 L 10515.983694 14899.987484 " transform="matrix(0.0957586,0,0,0.0957921,0,0)"/>
<path style="fill:none;stroke-width:98.4252;stroke-linecap:round;stroke-linejoin:round;stroke:rgb(0%,0%,0%);stroke-opacity:1;stroke-miterlimit:4;" d="M 11516.016047 17845.983931 L 11516.016047 15899.99677 " transform="matrix(0.0957586,0,0,0.0957921,0,0)"/>
<path style="fill:none;stroke-width:98.4252;stroke-linecap:round;stroke-linejoin:round;stroke:rgb(0%,0%,0%);stroke-opacity:1;stroke-miterlimit:4;" d="M 4266.016047 7900.004037 L 3265.983694 7900.004037 " transform="matrix(0.0957586,0,0,0.0957921,0,0)"/>
<path style="fill:none;stroke-width:98.4252;stroke-linecap:round;stroke-linejoin:round;stroke:rgb(0%,0%,0%);stroke-opacity:1;stroke-miterlimit:4;" d="M 5266.007607 7454.989099 L 5820.012885 6899.994751 " transform="matrix(0.0957586,0,0,0.0957921,0,0)"/>
<path style="fill:none;stroke-width:98.4252;stroke-linecap:round;stroke-linejoin:round;stroke:rgb(0%,0%,0%);stroke-opacity:1;stroke-miterlimit:4;" d="M 5266.007607 7900.004037 L 5266.007607 7454.989099 " transform="matrix(0.0957586,0,0,0.0957921,0,0)"/>
<path style="fill:none;stroke-width:98.4252;stroke-linecap:round;stroke-linejoin:round;stroke:rgb(0%,0%,0%);stroke-opacity:1;stroke-miterlimit:4;" d="M 12016.011827 6899.994751 L 12391.01886 7274.993136 " transform="matrix(0.0957586,0,0,0.0957921,0,0)"/>
<path style="fill:none;stroke-width:98.4252;stroke-linecap:round;stroke-linejoin:round;stroke:rgb(0%,0%,0%);stroke-opacity:1;stroke-miterlimit:4;" d="M 5820.012885 6899.994751 L 12016.011827 6899.994751 " transform="matrix(0.0957586,0,0,0.0957921,0,0)"/>
<path style="fill:none;stroke-width:98.4252;stroke-linecap:round;stroke-linejoin:round;stroke:rgb(0%,0%,0%);stroke-opacity:1;stroke-miterlimit:4;" d="M 5820.012885 6899.994751 L 2016.01464 6899.994751 " transform="matrix(0.0957586,0,0,0.0957921,0,0)"/>
<path style="fill:none;stroke-width:98.4252;stroke-linecap:round;stroke-linejoin:round;stroke:rgb(0%,0%,0%);stroke-opacity:1;stroke-miterlimit:4;" d="M 2016.01464 6899.994751 L 1516.01886 7400.019784 " transform="matrix(0.0957586,0,0,0.0957921,0,0)"/>
<path style="fill:none;stroke-width:98.4252;stroke-linecap:round;stroke-linejoin:round;stroke:rgb(0%,0%,0%);stroke-opacity:1;stroke-miterlimit:4;" d="M 1516.01886 7400.019784 L 1516.01886 8150.016554 " transform="matrix(0.0957586,0,0,0.0957921,0,0)"/>
<path style="fill:none;stroke-width:98.4252;stroke-linecap:round;stroke-linejoin:round;stroke:rgb(0%,0%,0%);stroke-opacity:1;stroke-miterlimit:4;" d="M 1516.01886 8150.016554 L 4266.016047 10899.991118 " transform="matrix(0.0957586,0,0,0.0957921,0,0)"/>
<path style="fill:none;stroke-width:98.4252;stroke-linecap:round;stroke-linejoin:round;stroke:rgb(0%,0%,0%);stroke-opacity:1;stroke-miterlimit:4;" d="M 4266.016047 10899.991118 L 6265.999167 10899.991118 " transform="matrix(0.0957586,0,0,0.0957921,0,0)"/>
<path style="fill:none;stroke-width:98.4252;stroke-linecap:round;stroke-linejoin:round;stroke:rgb(0%,0%,0%);stroke-opacity:1;stroke-miterlimit:4;" d="M 6265.999167 10899.991118 L 8265.982288 12900.00969 " transform="matrix(0.0957586,0,0,0.0957921,0,0)"/>
<path style="fill:none;stroke-width:98.4252;stroke-linecap:round;stroke-linejoin:round;stroke:rgb(0%,0%,0%);stroke-opacity:1;stroke-miterlimit:4;" d="M 10083.010274 20900.002422 L 9766.01042 20582.990956 " transform="matrix(0.0957586,0,0,0.0957921,0,0)"/>
<path style="fill:none;stroke-width:98.4252;stroke-linecap:round;stroke-linejoin:round;stroke:rgb(0%,0%,0%);stroke-opacity:1;stroke-miterlimit:4;" d="M 10515.983694 20900.002422 L 10083.010274 20900.002422 " transform="matrix(0.0957586,0,0,0.0957921,0,0)"/>
<path style="fill:none;stroke-width:98.4252;stroke-linecap:round;stroke-linejoin:round;stroke:rgb(0%,0%,0%);stroke-opacity:1;stroke-miterlimit:4;" d="M 9766.01042 20582.990956 L 9766.01042 14400.00323 " transform="matrix(0.0957586,0,0,0.0957921,0,0)"/>
<path style="fill:none;stroke-width:98.4252;stroke-linecap:round;stroke-linejoin:round;stroke:rgb(0%,0%,0%);stroke-opacity:1;stroke-miterlimit:4;" d="M 9766.01042 14400.00323 L 8265.982288 12900.00969 " transform="matrix(0.0957586,0,0,0.0957921,0,0)"/>
<path style="fill:none;stroke-width:98.4252;stroke-linecap:round;stroke-linejoin:round;stroke:rgb(0%,0%,0%);stroke-opacity:1;stroke-miterlimit:4;" d="M 12265.989321 19899.993136 L 12193.011231 19826.999758 " transform="matrix(0.0957586,0,0,0.0957921,0,0)"/>
<path style="fill:none;stroke-width:98.4252;stroke-linecap:round;stroke-linejoin:round;stroke:rgb(0%,0%,0%);stroke-opacity:1;stroke-miterlimit:4;" d="M 12193.011231 19826.999758 L 12191.01239 19826.999758 " transform="matrix(0.0957586,0,0,0.0957921,0,0)"/>
<path style="fill:none;stroke-width:98.4252;stroke-linecap:round;stroke-linejoin:round;stroke:rgb(0%,0%,0%);stroke-opacity:1;stroke-miterlimit:4;" d="M 11263.99892 18899.98385 L 10515.983694 18899.98385 " transform="matrix(0.0957586,0,0,0.0957921,0,0)"/>
<path style="fill:none;stroke-width:98.4252;stroke-linecap:round;stroke-linejoin:round;stroke:rgb(0%,0%,0%);stroke-opacity:1;stroke-miterlimit:4;" d="M 12191.01239 19826.999758 L 11263.99892 18899.98385 " transform="matrix(0.0957586,0,0,0.0957921,0,0)"/>
<path style="fill:none;stroke-width:98.4252;stroke-linecap:round;stroke-linejoin:round;stroke:rgb(0%,0%,0%);stroke-opacity:1;stroke-miterlimit:4;" d="M 19266.011827 13399.993944 L 20765.999167 14899.987484 " transform="matrix(0.0957586,0,0,0.0957921,0,0)"/>
<path style="fill:none;stroke-width:98.4252;stroke-linecap:round;stroke-linejoin:round;stroke:rgb(0%,0%,0%);stroke-opacity:1;stroke-miterlimit:4;" d="M 19266.011827 13399.993944 L 18515.997761 13399.993944 " transform="matrix(0.0957586,0,0,0.0957921,0,0)"/>
<path style="fill:none;stroke-width:98.4252;stroke-linecap:round;stroke-linejoin:round;stroke:rgb(0%,0%,0%);stroke-opacity:1;stroke-miterlimit:4;" d="M 20765.999167 14899.987484 L 20765.999167 18399.999596 " transform="matrix(0.0957586,0,0,0.0957921,0,0)"/>
<path style="fill:none;stroke-width:98.4252;stroke-linecap:round;stroke-linejoin:round;stroke:rgb(0%,0%,0%);stroke-opacity:1;stroke-miterlimit:4;" d="M 20765.999167 18399.999596 L 19266.011827 19899.993136 " transform="matrix(0.0957586,0,0,0.0957921,0,0)"/>
<path style="fill:none;stroke-width:98.4252;stroke-linecap:round;stroke-linejoin:round;stroke:rgb(0%,0%,0%);stroke-opacity:1;stroke-miterlimit:4;" d="M 19266.011827 19899.993136 L 12265.989321 19899.993136 " transform="matrix(0.0957586,0,0,0.0957921,0,0)"/>
<path style="fill:none;stroke-width:98.4252;stroke-linecap:round;stroke-linejoin:round;stroke:rgb(0%,0%,0%);stroke-opacity:1;stroke-miterlimit:4;" d="M 12516.007607 11400.01615 L 10515.983694 11400.01615 " transform="matrix(0.0957586,0,0,0.0957921,0,0)"/>
<path style=" stroke:none;fill-rule:nonzero;fill:rgb(100%,100%,100%);fill-opacity:1;" d="M 1745.578125 134.164062 C 1745.578125 144.578125 1737.140625 153.023438 1726.730469 153.023438 C 1716.320312 153.023438 1707.878906 144.578125 1707.878906 134.164062 C 1707.878906 123.75 1716.320312 115.308594 1726.730469 115.308594 C 1737.140625 115.308594 1745.578125 123.75 1745.578125 134.164062 Z M 1745.578125 134.164062 "/>
<path style=" stroke:none;fill-rule:nonzero;fill:rgb(100%,100%,100%);fill-opacity:1;" d="M 1839.835938 134.164062 C 1839.835938 144.578125 1831.394531 153.023438 1820.984375 153.023438 C 1810.574219 153.023438 1802.132812 144.578125 1802.132812 134.164062 C 1802.132812 123.75 1810.574219 115.308594 1820.984375 115.308594 C 1831.394531 115.308594 1839.835938 123.75 1839.835938 134.164062 Z M 1839.835938 134.164062 "/>
<path style=" stroke:none;fill-rule:nonzero;fill:rgb(100%,100%,100%);fill-opacity:1;" d="M 902.414062 756.8125 C 902.414062 765.144531 895.664062 771.898438 887.335938 771.898438 C 879.007812 771.898438 872.253906 765.144531 872.253906 756.8125 C 872.253906 748.484375 879.007812 741.730469 887.335938 741.730469 C 895.664062 741.730469 902.414062 748.484375 902.414062 756.8125 Z M 902.414062 756.8125 "/>
<path style=" stroke:none;fill-rule:nonzero;fill:rgb(100%,100%,100%);fill-opacity:1;" d="M 232.105469 1235.773438 C 232.105469 1244.105469 225.355469 1250.859375 217.027344 1250.859375 C 208.695312 1250.859375 201.945312 1244.105469 201.945312 1235.773438 C 201.945312 1227.445312 208.695312 1220.691406 217.027344 1220.691406 C 225.355469 1220.691406 232.105469 1227.445312 232.105469 1235.773438 Z M 232.105469 1235.773438 "/>
<path style=" stroke:none;fill-rule:nonzero;fill:rgb(100%,100%,100%);fill-opacity:1;" d="M 806.65625 756.8125 C 806.65625 765.144531 799.90625 771.898438 791.578125 771.898438 C 783.25 771.898438 776.496094 765.144531 776.496094 756.8125 C 776.496094 748.484375 783.25 741.730469 791.578125 741.730469 C 799.90625 741.730469 806.65625 748.484375 806.65625 756.8125 Z M 806.65625 756.8125 "/>
<path style=" stroke:none;fill-rule:nonzero;fill:rgb(100%,100%,100%);fill-opacity:1;" d="M 327.863281 1235.773438 C 327.863281 1244.105469 321.113281 1250.859375 312.785156 1250.859375 C 304.457031 1250.859375 297.703125 1244.105469 297.703125 1235.773438 C 297.703125 1227.445312 304.457031 1220.691406 312.785156 1220.691406 C 321.113281 1220.691406 327.863281 1227.445312 327.863281 1235.773438 Z M 327.863281 1235.773438 "/>
<path style=" stroke:none;fill-rule:nonzero;fill:rgb(100%,100%,100%);fill-opacity:1;" d="M 710.898438 756.8125 C 710.898438 765.144531 704.148438 771.898438 695.820312 771.898438 C 687.488281 771.898438 680.738281 765.144531 680.738281 756.8125 C 680.738281 748.484375 687.488281 741.730469 695.820312 741.730469 C 704.148438 741.730469 710.898438 748.484375 710.898438 756.8125 Z M 710.898438 756.8125 "/>
<path style=" stroke:none;fill-rule:nonzero;fill:rgb(100%,100%,100%);fill-opacity:1;" d="M 423.621094 1235.773438 C 423.621094 1244.105469 416.871094 1250.859375 408.542969 1250.859375 C 400.214844 1250.859375 393.460938 1244.105469 393.460938 1235.773438 C 393.460938 1227.445312 400.214844 1220.691406 408.542969 1220.691406 C 416.871094 1220.691406 423.621094 1227.445312 423.621094 1235.773438 Z M 423.621094 1235.773438 "/>
<path style=" stroke:none;fill-rule:nonzero;fill:rgb(100%,100%,100%);fill-opacity:1;" d="M 615.140625 756.8125 C 615.140625 765.144531 608.386719 771.898438 600.058594 771.898438 C 591.730469 771.898438 584.980469 765.144531 584.980469 756.8125 C 584.980469 748.484375 591.730469 741.730469 600.058594 741.730469 C 608.386719 741.730469 615.140625 748.484375 615.140625 756.8125 Z M 615.140625 756.8125 "/>
<path style=" stroke:none;fill-rule:nonzero;fill:rgb(100%,100%,100%);fill-opacity:1;" d="M 519.382812 1235.773438 C 519.382812 1244.105469 512.628906 1250.859375 504.300781 1250.859375 C 495.972656 1250.859375 489.222656 1244.105469 489.222656 1235.773438 C 489.222656 1227.445312 495.972656 1220.691406 504.300781 1220.691406 C 512.628906 1220.691406 519.382812 1227.445312 519.382812 1235.773438 Z M 519.382812 1235.773438 "/>
<path style=" stroke:none;fill-rule:nonzero;fill:rgb(100%,100%,100%);fill-opacity:1;" d="M 519.382812 756.8125 C 519.382812 765.144531 512.628906 771.898438 504.300781 771.898438 C 495.972656 771.898438 489.222656 765.144531 489.222656 756.8125 C 489.222656 748.484375 495.972656 741.730469 504.300781 741.730469 C 512.628906 741.730469 519.382812 748.484375 519.382812 756.8125 Z M 519.382812 756.8125 "/>
<path style=" stroke:none;fill-rule:nonzero;fill:rgb(100%,100%,100%);fill-opacity:1;" d="M 615.140625 1235.773438 C 615.140625 1244.105469 608.386719 1250.859375 600.058594 1250.859375 C 591.730469 1250.859375 584.980469 1244.105469 584.980469 1235.773438 C 584.980469 1227.445312 591.730469 1220.691406 600.058594 1220.691406 C 608.386719 1220.691406 615.140625 1227.445312 615.140625 1235.773438 Z M 615.140625 1235.773438 "/>
<path style=" stroke:none;fill-rule:nonzero;fill:rgb(100%,100%,100%);fill-opacity:1;" d="M 423.621094 756.8125 C 423.621094 765.144531 416.871094 771.898438 408.542969 771.898438 C 400.214844 771.898438 393.460938 765.144531 393.460938 756.8125 C 393.460938 748.484375 400.214844 741.730469 408.542969 741.730469 C 416.871094 741.730469 423.621094 748.484375 423.621094 756.8125 Z M 423.621094 756.8125 "/>
<path style=" stroke:none;fill-rule:nonzero;fill:rgb(100%,100%,100%);fill-opacity:1;" d="M 710.898438 1235.773438 C 710.898438 1244.105469 704.148438 1250.859375 695.820312 1250.859375 C 687.488281 1250.859375 680.738281 1244.105469 680.738281 1235.773438 C 680.738281 1227.445312 687.488281 1220.691406 695.820312 1220.691406 C 704.148438 1220.691406 710.898438 1227.445312 710.898438 1235.773438 Z M 710.898438 1235.773438 "/>
<path style=" stroke:none;fill-rule:nonzero;fill:rgb(100%,100%,100%);fill-opacity:1;" d="M 327.863281 756.8125 C 327.863281 765.144531 321.113281 771.898438 312.785156 771.898438 C 304.457031 771.898438 297.703125 765.144531 297.703125 756.8125 C 297.703125 748.484375 304.457031 741.730469 312.785156 741.730469 C 321.113281 741.730469 327.863281 748.484375 327.863281 756.8125 Z M 327.863281 756.8125 "/>
<path style=" stroke:none;fill-rule:nonzero;fill:rgb(100%,100%,100%);fill-opacity:1;" d="M 806.65625 1235.773438 C 806.65625 1244.105469 799.90625 1250.859375 791.578125 1250.859375 C 783.25 1250.859375 776.496094 1244.105469 776.496094 1235.773438 C 776.496094 1227.445312 783.25 1220.691406 791.578125 1220.691406 C 799.90625 1220.691406 806.65625 1227.445312 806.65625 1235.773438 Z M 806.65625 1235.773438 "/>
<path style=" stroke:none;fill-rule:nonzero;fill:rgb(100%,100%,100%);fill-opacity:1;" d="M 232.105469 756.8125 C 232.105469 765.144531 225.355469 771.898438 217.027344 771.898438 C 208.695312 771.898438 201.945312 765.144531 201.945312 756.8125 C 201.945312 748.484375 208.695312 741.730469 217.027344 741.730469 C 225.355469 741.730469 232.105469 748.484375 232.105469 756.8125 Z M 232.105469 756.8125 "/>
<path style=" stroke:none;fill-rule:nonzero;fill:rgb(100%,100%,100%);fill-opacity:1;" d="M 902.414062 1235.773438 C 902.414062 1244.105469 895.664062 1250.859375 887.335938 1250.859375 C 879.007812 1250.859375 872.253906 1244.105469 872.253906 1235.773438 C 872.253906 1227.445312 879.007812 1220.691406 887.335938 1220.691406 C 895.664062 1220.691406 902.414062 1227.445312 902.414062 1235.773438 Z M 902.414062 1235.773438 "/>
<path style=" stroke:none;fill-rule:nonzero;fill:rgb(100%,100%,100%);fill-opacity:1;" d="M 1025.886719 1331.566406 C 1025.886719 1341.980469 1017.445312 1350.425781 1007.035156 1350.425781 C 996.625 1350.425781 988.1875 1341.980469 988.1875 1331.566406 C 988.1875 1321.152344 996.625 1312.710938 1007.035156 1312.710938 C 1017.445312 1312.710938 1025.886719 1321.152344 1025.886719 1331.566406 Z M 1025.886719 1331.566406 "/>
<path style=" stroke:none;fill-rule:nonzero;fill:rgb(100%,100%,100%);fill-opacity:1;" d="M 1025.886719 1427.359375 C 1025.886719 1437.773438 1017.445312 1446.214844 1007.035156 1446.214844 C 996.625 1446.214844 988.1875 1437.773438 988.1875 1427.359375 C 988.1875 1416.945312 996.625 1408.503906 1007.035156 1408.503906 C 1017.445312 1408.503906 1025.886719 1416.945312 1025.886719 1427.359375 Z M 1025.886719 1427.359375 "/>
<path style=" stroke:none;fill-rule:nonzero;fill:rgb(100%,100%,100%);fill-opacity:1;" d="M 1025.886719 1523.152344 C 1025.886719 1533.566406 1017.445312 1542.007812 1007.035156 1542.007812 C 996.625 1542.007812 988.1875 1533.566406 988.1875 1523.152344 C 988.1875 1512.738281 996.625 1504.292969 1007.035156 1504.292969 C 1017.445312 1504.292969 1025.886719 1512.738281 1025.886719 1523.152344 Z M 1025.886719 1523.152344 "/>
<path style=" stroke:none;fill-rule:nonzero;fill:rgb(100%,100%,100%);fill-opacity:1;" d="M 1025.886719 1618.945312 C 1025.886719 1629.359375 1017.445312 1637.800781 1007.035156 1637.800781 C 996.625 1637.800781 988.1875 1629.359375 988.1875 1618.945312 C 988.1875 1608.53125 996.625 1600.085938 1007.035156 1600.085938 C 1017.445312 1600.085938 1025.886719 1608.53125 1025.886719 1618.945312 Z M 1025.886719 1618.945312 "/>
<path style=" stroke:none;fill-rule:nonzero;fill:rgb(100%,100%,100%);fill-opacity:1;" d="M 1025.886719 1714.734375 C 1025.886719 1725.148438 1017.445312 1733.59375 1007.035156 1733.59375 C 996.625 1733.59375 988.1875 1725.148438 988.1875 1714.734375 C 988.1875 1704.320312 996.625 1695.878906 1007.035156 1695.878906 C 1017.445312 1695.878906 1025.886719 1704.320312 1025.886719 1714.734375 Z M 1025.886719 1714.734375 "/>
<path style=" stroke:none;fill-rule:nonzero;fill:rgb(100%,100%,100%);fill-opacity:1;" d="M 1025.886719 1810.527344 C 1025.886719 1820.941406 1017.445312 1829.382812 1007.035156 1829.382812 C 996.625 1829.382812 988.1875 1820.941406 988.1875 1810.527344 C 988.1875 1800.113281 996.625 1791.671875 1007.035156 1791.671875 C 1017.445312 1791.671875 1025.886719 1800.113281 1025.886719 1810.527344 Z M 1025.886719 1810.527344 "/>
<path style=" stroke:none;fill-rule:nonzero;fill:rgb(100%,100%,100%);fill-opacity:1;" d="M 1025.886719 1906.320312 C 1025.886719 1916.734375 1017.445312 1925.175781 1007.035156 1925.175781 C 996.625 1925.175781 988.1875 1916.734375 988.1875 1906.320312 C 988.1875 1895.90625 996.625 1887.464844 1007.035156 1887.464844 C 1017.445312 1887.464844 1025.886719 1895.90625 1025.886719 1906.320312 Z M 1025.886719 1906.320312 "/>
<path style=" stroke:none;fill-rule:nonzero;fill:rgb(100%,100%,100%);fill-opacity:1;" d="M 1025.886719 2002.113281 C 1025.886719 2012.527344 1017.445312 2020.96875 1007.035156 2020.96875 C 996.625 2020.96875 988.1875 2012.527344 988.1875 2002.113281 C 988.1875 1991.699219 996.625 1983.253906 1007.035156 1983.253906 C 1017.445312 1983.253906 1025.886719 1991.699219 1025.886719 2002.113281 Z M 1025.886719 2002.113281 "/>
<path style=" stroke:none;fill-rule:nonzero;fill:rgb(100%,100%,100%);fill-opacity:1;" d="M 2653.78125 1954.214844 C 2653.78125 1964.628906 2645.34375 1973.074219 2634.933594 1973.074219 C 2624.523438 1973.074219 2616.082031 1964.628906 2616.082031 1954.214844 C 2616.082031 1943.800781 2624.523438 1935.359375 2634.933594 1935.359375 C 2645.34375 1935.359375 2653.78125 1943.800781 2653.78125 1954.214844 Z M 2653.78125 1954.214844 "/>
<path style=" stroke:none;fill-rule:nonzero;fill:rgb(100%,100%,100%);fill-opacity:1;" d="M 2558.023438 1954.214844 C 2558.023438 1964.628906 2549.585938 1973.074219 2539.175781 1973.074219 C 2528.761719 1973.074219 2520.324219 1964.628906 2520.324219 1954.214844 C 2520.324219 1943.800781 2528.761719 1935.359375 2539.175781 1935.359375 C 2549.585938 1935.359375 2558.023438 1943.800781 2558.023438 1954.214844 Z M 2558.023438 1954.214844 "/>
<path style=" stroke:none;fill-rule:nonzero;fill:rgb(100%,100%,100%);fill-opacity:1;" d="M 2462.265625 1954.214844 C 2462.265625 1964.628906 2453.824219 1973.074219 2443.414062 1973.074219 C 2433.003906 1973.074219 2424.566406 1964.628906 2424.566406 1954.214844 C 2424.566406 1943.800781 2433.003906 1935.359375 2443.414062 1935.359375 C 2453.824219 1935.359375 2462.265625 1943.800781 2462.265625 1954.214844 Z M 2462.265625 1954.214844 "/>
<path style=" stroke:none;fill-rule:nonzero;fill:rgb(100%,100%,100%);fill-opacity:1;" d="M 2366.507812 1954.214844 C 2366.507812 1964.628906 2358.066406 1973.074219 2347.65625 1973.074219 C 2337.246094 1973.074219 2328.804688 1964.628906 2328.804688 1954.214844 C 2328.804688 1943.800781 2337.246094 1935.359375 2347.65625 1935.359375 C 2358.066406 1935.359375 2366.507812 1943.800781 2366.507812 1954.214844 Z M 2366.507812 1954.214844 "/>
<path style=" stroke:none;fill-rule:nonzero;fill:rgb(100%,100%,100%);fill-opacity:1;" d="M 2270.75 1954.214844 C 2270.75 1964.628906 2262.308594 1973.074219 2251.898438 1973.074219 C 2241.488281 1973.074219 2233.046875 1964.628906 2233.046875 1954.214844 C 2233.046875 1943.800781 2241.488281 1935.359375 2251.898438 1935.359375 C 2262.308594 1935.359375 2270.75 1943.800781 2270.75 1954.214844 Z M 2270.75 1954.214844 "/>
<path style=" stroke:none;fill-rule:nonzero;fill:rgb(100%,100%,100%);fill-opacity:1;" d="M 2174.988281 1954.214844 C 2174.988281 1964.628906 2166.550781 1973.074219 2156.140625 1973.074219 C 2145.730469 1973.074219 2137.289062 1964.628906 2137.289062 1954.214844 C 2137.289062 1943.800781 2145.730469 1935.359375 2156.140625 1935.359375 C 2166.550781 1935.359375 2174.988281 1943.800781 2174.988281 1954.214844 Z M 2174.988281 1954.214844 "/>
<path style=" stroke:none;fill-rule:nonzero;fill:rgb(100%,100%,100%);fill-opacity:1;" d="M 1788.183594 421.542969 C 1788.183594 429.875 1781.433594 436.628906 1773.105469 436.628906 C 1764.777344 436.628906 1758.023438 429.875 1758.023438 421.542969 C 1758.023438 413.210938 1764.777344 406.457031 1773.105469 406.457031 C 1781.433594 406.457031 1788.183594 413.210938 1788.183594 421.542969 Z M 1788.183594 421.542969 "/>
<path style=" stroke:none;fill-rule:nonzero;fill:rgb(100%,100%,100%);fill-opacity:1;" d="M 1213.632812 1666.839844 C 1213.632812 1675.171875 1206.882812 1681.925781 1198.554688 1681.925781 C 1190.226562 1681.925781 1183.472656 1675.171875 1183.472656 1666.839844 C 1183.472656 1658.507812 1190.226562 1651.753906 1198.554688 1651.753906 C 1206.882812 1651.753906 1213.632812 1658.507812 1213.632812 1666.839844 Z M 1213.632812 1666.839844 "/>
<path style=" stroke:none;fill-rule:nonzero;fill:rgb(100%,100%,100%);fill-opacity:1;" d="M 1788.183594 517.332031 C 1788.183594 525.664062 1781.433594 532.417969 1773.105469 532.417969 C 1764.777344 532.417969 1758.023438 525.664062 1758.023438 517.332031 C 1758.023438 509.003906 1764.777344 502.25 1773.105469 502.25 C 1781.433594 502.25 1788.183594 509.003906 1788.183594 517.332031 Z M 1788.183594 517.332031 "/>
<path style=" stroke:none;fill-rule:nonzero;fill:rgb(100%,100%,100%);fill-opacity:1;" d="M 1213.632812 1571.046875 C 1213.632812 1579.378906 1206.882812 1586.132812 1198.554688 1586.132812 C 1190.226562 1586.132812 1183.472656 1579.378906 1183.472656 1571.046875 C 1183.472656 1562.714844 1190.226562 1555.960938 1198.554688 1555.960938 C 1206.882812 1555.960938 1213.632812 1562.714844 1213.632812 1571.046875 Z M 1213.632812 1571.046875 "/>
<path style=" stroke:none;fill-rule:nonzero;fill:rgb(100%,100%,100%);fill-opacity:1;" d="M 1788.183594 613.125 C 1788.183594 621.457031 1781.433594 628.210938 1773.105469 628.210938 C 1764.777344 628.210938 1758.023438 621.457031 1758.023438 613.125 C 1758.023438 604.792969 1764.777344 598.039062 1773.105469 598.039062 C 1781.433594 598.039062 1788.183594 604.792969 1788.183594 613.125 Z M 1788.183594 613.125 "/>
<path style=" stroke:none;fill-rule:nonzero;fill:rgb(100%,100%,100%);fill-opacity:1;" d="M 1213.632812 1475.253906 C 1213.632812 1483.585938 1206.882812 1490.339844 1198.554688 1490.339844 C 1190.226562 1490.339844 1183.472656 1483.585938 1183.472656 1475.253906 C 1183.472656 1466.925781 1190.226562 1460.171875 1198.554688 1460.171875 C 1206.882812 1460.171875 1213.632812 1466.925781 1213.632812 1475.253906 Z M 1213.632812 1475.253906 "/>
<path style=" stroke:none;fill-rule:nonzero;fill:rgb(100%,100%,100%);fill-opacity:1;" d="M 1788.183594 708.917969 C 1788.183594 717.25 1781.433594 724.003906 1773.105469 724.003906 C 1764.777344 724.003906 1758.023438 717.25 1758.023438 708.917969 C 1758.023438 700.585938 1764.777344 693.832031 1773.105469 693.832031 C 1781.433594 693.832031 1788.183594 700.585938 1788.183594 708.917969 Z M 1788.183594 708.917969 "/>
<path style=" stroke:none;fill-rule:nonzero;fill:rgb(100%,100%,100%);fill-opacity:1;" d="M 1213.632812 1379.464844 C 1213.632812 1387.792969 1206.882812 1394.546875 1198.554688 1394.546875 C 1190.226562 1394.546875 1183.472656 1387.792969 1183.472656 1379.464844 C 1183.472656 1371.132812 1190.226562 1364.378906 1198.554688 1364.378906 C 1206.882812 1364.378906 1213.632812 1371.132812 1213.632812 1379.464844 Z M 1213.632812 1379.464844 "/>
<path style=" stroke:none;fill-rule:nonzero;fill:rgb(100%,100%,100%);fill-opacity:1;" d="M 1788.183594 804.710938 C 1788.183594 813.042969 1781.433594 819.796875 1773.105469 819.796875 C 1764.777344 819.796875 1758.023438 813.042969 1758.023438 804.710938 C 1758.023438 796.378906 1764.777344 789.625 1773.105469 789.625 C 1781.433594 789.625 1788.183594 796.378906 1788.183594 804.710938 Z M 1788.183594 804.710938 "/>
<path style=" stroke:none;fill-rule:nonzero;fill:rgb(100%,100%,100%);fill-opacity:1;" d="M 1213.632812 1283.671875 C 1213.632812 1292.003906 1206.882812 1298.757812 1198.554688 1298.757812 C 1190.226562 1298.757812 1183.472656 1292.003906 1183.472656 1283.671875 C 1183.472656 1275.339844 1190.226562 1268.585938 1198.554688 1268.585938 C 1206.882812 1268.585938 1213.632812 1275.339844 1213.632812 1283.671875 Z M 1213.632812 1283.671875 "/>
<path style=" stroke:none;fill-rule:nonzero;fill:rgb(100%,100%,100%);fill-opacity:1;" d="M 1788.183594 900.503906 C 1788.183594 908.832031 1781.433594 915.585938 1773.105469 915.585938 C 1764.777344 915.585938 1758.023438 908.832031 1758.023438 900.503906 C 1758.023438 892.171875 1764.777344 885.417969 1773.105469 885.417969 C 1781.433594 885.417969 1788.183594 892.171875 1788.183594 900.503906 Z M 1788.183594 900.503906 "/>
<path style=" stroke:none;fill-rule:nonzero;fill:rgb(100%,100%,100%);fill-opacity:1;" d="M 1213.632812 1187.878906 C 1213.632812 1196.210938 1206.882812 1202.964844 1198.554688 1202.964844 C 1190.226562 1202.964844 1183.472656 1196.210938 1183.472656 1187.878906 C 1183.472656 1179.546875 1190.226562 1172.792969 1198.554688 1172.792969 C 1206.882812 1172.792969 1213.632812 1179.546875 1213.632812 1187.878906 Z M 1213.632812 1187.878906 "/>
<path style=" stroke:none;fill-rule:nonzero;fill:rgb(100%,100%,100%);fill-opacity:1;" d="M 1788.183594 996.296875 C 1788.183594 1004.625 1781.433594 1011.378906 1773.105469 1011.378906 C 1764.777344 1011.378906 1758.023438 1004.625 1758.023438 996.296875 C 1758.023438 987.964844 1764.777344 981.210938 1773.105469 981.210938 C 1781.433594 981.210938 1788.183594 987.964844 1788.183594 996.296875 Z M 1788.183594 996.296875 "/>
<path style=" stroke:none;fill-rule:nonzero;fill:rgb(100%,100%,100%);fill-opacity:1;" d="M 1213.632812 1092.085938 C 1213.632812 1100.417969 1206.882812 1107.171875 1198.554688 1107.171875 C 1190.226562 1107.171875 1183.472656 1100.417969 1183.472656 1092.085938 C 1183.472656 1083.753906 1190.226562 1077 1198.554688 1077 C 1206.882812 1077 1213.632812 1083.753906 1213.632812 1092.085938 Z M 1213.632812 1092.085938 "/>
<path style=" stroke:none;fill-rule:nonzero;fill:rgb(100%,100%,100%);fill-opacity:1;" d="M 1788.183594 1092.085938 C 1788.183594 1100.417969 1781.433594 1107.171875 1773.105469 1107.171875 C 1764.777344 1107.171875 1758.023438 1100.417969 1758.023438 1092.085938 C 1758.023438 1083.753906 1764.777344 1077 1773.105469 1077 C 1781.433594 1077 1788.183594 1083.753906 1788.183594 1092.085938 Z M 1788.183594 1092.085938 "/>
<path style=" stroke:none;fill-rule:nonzero;fill:rgb(100%,100%,100%);fill-opacity:1;" d="M 1213.632812 996.296875 C 1213.632812 1004.625 1206.882812 1011.378906 1198.554688 1011.378906 C 1190.226562 1011.378906 1183.472656 1004.625 1183.472656 996.296875 C 1183.472656 987.964844 1190.226562 981.210938 1198.554688 981.210938 C 1206.882812 981.210938 1213.632812 987.964844 1213.632812 996.296875 Z M 1213.632812 996.296875 "/>
<path style=" stroke:none;fill-rule:nonzero;fill:rgb(100%,100%,100%);fill-opacity:1;" d="M 1788.183594 1187.878906 C 1788.183594 1196.210938 1781.433594 1202.964844 1773.105469 1202.964844 C 1764.777344 1202.964844 1758.023438 1196.210938 1758.023438 1187.878906 C 1758.023438 1179.546875 1764.777344 1172.792969 1773.105469 1172.792969 C 1781.433594 1172.792969 1788.183594 1179.546875 1788.183594 1187.878906 Z M 1788.183594 1187.878906 "/>
<path style=" stroke:none;fill-rule:nonzero;fill:rgb(100%,100%,100%);fill-opacity:1;" d="M 1213.632812 900.503906 C 1213.632812 908.832031 1206.882812 915.585938 1198.554688 915.585938 C 1190.226562 915.585938 1183.472656 908.832031 1183.472656 900.503906 C 1183.472656 892.171875 1190.226562 885.417969 1198.554688 885.417969 C 1206.882812 885.417969 1213.632812 892.171875 1213.632812 900.503906 Z M 1213.632812 900.503906 "/>
<path style=" stroke:none;fill-rule:nonzero;fill:rgb(100%,100%,100%);fill-opacity:1;" d="M 1788.183594 1283.671875 C 1788.183594 1292.003906 1781.433594 1298.757812 1773.105469 1298.757812 C 1764.777344 1298.757812 1758.023438 1292.003906 1758.023438 1283.671875 C 1758.023438 1275.339844 1764.777344 1268.585938 1773.105469 1268.585938 C 1781.433594 1268.585938 1788.183594 1275.339844 1788.183594 1283.671875 Z M 1788.183594 1283.671875 "/>
<path style=" stroke:none;fill-rule:nonzero;fill:rgb(100%,100%,100%);fill-opacity:1;" d="M 1213.632812 804.710938 C 1213.632812 813.042969 1206.882812 819.796875 1198.554688 819.796875 C 1190.226562 819.796875 1183.472656 813.042969 1183.472656 804.710938 C 1183.472656 796.378906 1190.226562 789.625 1198.554688 789.625 C 1206.882812 789.625 1213.632812 796.378906 1213.632812 804.710938 Z M 1213.632812 804.710938 "/>
<path style=" stroke:none;fill-rule:nonzero;fill:rgb(100%,100%,100%);fill-opacity:1;" d="M 1788.183594 1379.464844 C 1788.183594 1387.792969 1781.433594 1394.546875 1773.105469 1394.546875 C 1764.777344 1394.546875 1758.023438 1387.792969 1758.023438 1379.464844 C 1758.023438 1371.132812 1764.777344 1364.378906 1773.105469 1364.378906 C 1781.433594 1364.378906 1788.183594 1371.132812 1788.183594 1379.464844 Z M 1788.183594 1379.464844 "/>
<path style=" stroke:none;fill-rule:nonzero;fill:rgb(100%,100%,100%);fill-opacity:1;" d="M 1213.632812 708.917969 C 1213.632812 717.25 1206.882812 724.003906 1198.554688 724.003906 C 1190.226562 724.003906 1183.472656 717.25 1183.472656 708.917969 C 1183.472656 700.585938 1190.226562 693.832031 1198.554688 693.832031 C 1206.882812 693.832031 1213.632812 700.585938 1213.632812 708.917969 Z M 1213.632812 708.917969 "/>
<path style=" stroke:none;fill-rule:nonzero;fill:rgb(100%,100%,100%);fill-opacity:1;" d="M 1788.183594 1475.253906 C 1788.183594 1483.585938 1781.433594 1490.339844 1773.105469 1490.339844 C 1764.777344 1490.339844 1758.023438 1483.585938 1758.023438 1475.253906 C 1758.023438 1466.925781 1764.777344 1460.171875 1773.105469 1460.171875 C 1781.433594 1460.171875 1788.183594 1466.925781 1788.183594 1475.253906 Z M 1788.183594 1475.253906 "/>
<path style=" stroke:none;fill-rule:nonzero;fill:rgb(100%,100%,100%);fill-opacity:1;" d="M 1213.632812 613.125 C 1213.632812 621.457031 1206.882812 628.210938 1198.554688 628.210938 C 1190.226562 628.210938 1183.472656 621.457031 1183.472656 613.125 C 1183.472656 604.792969 1190.226562 598.039062 1198.554688 598.039062 C 1206.882812 598.039062 1213.632812 604.792969 1213.632812 613.125 Z M 1213.632812 613.125 "/>
<path style=" stroke:none;fill-rule:nonzero;fill:rgb(100%,100%,100%);fill-opacity:1;" d="M 1788.183594 1571.046875 C 1788.183594 1579.378906 1781.433594 1586.132812 1773.105469 1586.132812 C 1764.777344 1586.132812 1758.023438 1579.378906 1758.023438 1571.046875 C 1758.023438 1562.714844 1764.777344 1555.960938 1773.105469 1555.960938 C 1781.433594 1555.960938 1788.183594 1562.714844 1788.183594 1571.046875 Z M 1788.183594 1571.046875 "/>
<path style=" stroke:none;fill-rule:nonzero;fill:rgb(100%,100%,100%);fill-opacity:1;" d="M 1213.632812 517.332031 C 1213.632812 525.664062 1206.882812 532.417969 1198.554688 532.417969 C 1190.226562 532.417969 1183.472656 525.664062 1183.472656 517.332031 C 1183.472656 509.003906 1190.226562 502.25 1198.554688 502.25 C 1206.882812 502.25 1213.632812 509.003906 1213.632812 517.332031 Z M 1213.632812 517.332031 "/>
<path style=" stroke:none;fill-rule:nonzero;fill:rgb(100%,100%,100%);fill-opacity:1;" d="M 1788.183594 1666.839844 C 1788.183594 1675.171875 1781.433594 1681.925781 1773.105469 1681.925781 C 1764.777344 1681.925781 1758.023438 1675.171875 1758.023438 1666.839844 C 1758.023438 1658.507812 1764.777344 1651.753906 1773.105469 1651.753906 C 1781.433594 1651.753906 1788.183594 1658.507812 1788.183594 1666.839844 Z M 1788.183594 1666.839844 "/>
<path style=" stroke:none;fill-rule:nonzero;fill:rgb(100%,100%,100%);fill-opacity:1;" d="M 1213.632812 421.542969 C 1213.632812 429.875 1206.882812 436.628906 1198.554688 436.628906 C 1190.226562 436.628906 1183.472656 429.875 1183.472656 421.542969 C 1183.472656 413.210938 1190.226562 406.457031 1198.554688 406.457031 C 1206.882812 406.457031 1213.632812 413.210938 1213.632812 421.542969 Z M 1213.632812 421.542969 "/>
<path style=" stroke:none;fill-rule:nonzero;fill:rgb(100%,100%,100%);fill-opacity:1;" d="M 1788.183594 1762.632812 C 1788.183594 1770.964844 1781.433594 1777.71875 1773.105469 1777.71875 C 1764.777344 1777.71875 1758.023438 1770.964844 1758.023438 1762.632812 C 1758.023438 1754.300781 1764.777344 1747.546875 1773.105469 1747.546875 C 1781.433594 1747.546875 1788.183594 1754.300781 1788.183594 1762.632812 Z M 1788.183594 1762.632812 "/>
<path style=" stroke:none;fill-rule:nonzero;fill:rgb(100%,100%,100%);fill-opacity:1;" d="M 1213.632812 1762.632812 C 1213.632812 1770.964844 1206.882812 1777.71875 1198.554688 1777.71875 C 1190.226562 1777.71875 1183.472656 1770.964844 1183.472656 1762.632812 C 1183.472656 1754.300781 1190.226562 1747.546875 1198.554688 1747.546875 C 1206.882812 1747.546875 1213.632812 1754.300781 1213.632812 1762.632812 Z M 1213.632812 1762.632812 "/>
<path style=" stroke:none;fill-rule:nonzero;fill:rgb(100%,100%,100%);fill-opacity:1;" d="M 2174.988281 134.164062 C 2174.988281 144.578125 2166.550781 153.023438 2156.140625 153.023438 C 2145.730469 153.023438 2137.289062 144.578125 2137.289062 134.164062 C 2137.289062 123.75 2145.730469 115.308594 2156.140625 115.308594 C 2166.550781 115.308594 2174.988281 123.75 2174.988281 134.164062 Z M 2174.988281 134.164062 "/>
<path style=" stroke:none;fill-rule:nonzero;fill:rgb(100%,100%,100%);fill-opacity:1;" d="M 2270.75 134.164062 C 2270.75 144.578125 2262.308594 153.023438 2251.898438 153.023438 C 2241.488281 153.023438 2233.046875 144.578125 2233.046875 134.164062 C 2233.046875 123.75 2241.488281 115.308594 2251.898438 115.308594 C 2262.308594 115.308594 2270.75 123.75 2270.75 134.164062 Z M 2270.75 134.164062 "/>
<path style=" stroke:none;fill-rule:nonzero;fill:rgb(100%,100%,100%);fill-opacity:1;" d="M 2366.507812 134.164062 C 2366.507812 144.578125 2358.066406 153.023438 2347.65625 153.023438 C 2337.246094 153.023438 2328.804688 144.578125 2328.804688 134.164062 C 2328.804688 123.75 2337.246094 115.308594 2347.65625 115.308594 C 2358.066406 115.308594 2366.507812 123.75 2366.507812 134.164062 Z M 2366.507812 134.164062 "/>
<path style=" stroke:none;fill-rule:nonzero;fill:rgb(100%,100%,100%);fill-opacity:1;" d="M 2462.265625 134.164062 C 2462.265625 144.578125 2453.824219 153.023438 2443.414062 153.023438 C 2433.003906 153.023438 2424.566406 144.578125 2424.566406 134.164062 C 2424.566406 123.75 2433.003906 115.308594 2443.414062 115.308594 C 2453.824219 115.308594 2462.265625 123.75 2462.265625 134.164062 Z M 2462.265625 134.164062 "/>
<path style=" stroke:none;fill-rule:nonzero;fill:rgb(100%,100%,100%);fill-opacity:1;" d="M 2558.023438 134.164062 C 2558.023438 144.578125 2549.585938 153.023438 2539.175781 153.023438 C 2528.761719 153.023438 2520.324219 144.578125 2520.324219 134.164062 C 2520.324219 123.75 2528.761719 115.308594 2539.175781 115.308594 C 2549.585938 115.308594 2558.023438 123.75 2558.023438 134.164062 Z M 2558.023438 134.164062 "/>
<path style=" stroke:none;fill-rule:nonzero;fill:rgb(100%,100%,100%);fill-opacity:1;" d="M 2653.78125 134.164062 C 2653.78125 144.578125 2645.34375 153.023438 2634.933594 153.023438 C 2624.523438 153.023438 2616.082031 144.578125 2616.082031 134.164062 C 2616.082031 123.75 2624.523438 115.308594 2634.933594 115.308594 C 2645.34375 115.308594 2653.78125 123.75 2653.78125 134.164062 Z M 2653.78125 134.164062 "/>
<path style=" stroke:none;fill-rule:nonzero;fill:rgb(100%,100%,100%);fill-opacity:1;" d="M 1022.117188 1092.085938 C 1022.117188 1100.417969 1015.367188 1107.175781 1007.035156 1107.175781 C 998.707031 1107.175781 991.953125 1100.417969 991.953125 1092.085938 C 991.953125 1083.753906 998.707031 1077 1007.035156 1077 C 1015.367188 1077 1022.117188 1083.753906 1022.117188 1092.085938 Z M 1022.117188 1092.085938 "/>
<path style=" stroke:none;fill-rule:nonzero;fill:rgb(100%,100%,100%);fill-opacity:1;" d="M 806.660156 1475.253906 C 806.660156 1483.589844 799.90625 1490.34375 791.578125 1490.34375 C 783.246094 1490.34375 776.496094 1483.589844 776.496094 1475.253906 C 776.496094 1466.921875 783.246094 1460.167969 791.578125 1460.167969 C 799.90625 1460.167969 806.660156 1466.921875 806.660156 1475.253906 Z M 806.660156 1475.253906 "/>
<path style=" stroke:none;fill-rule:nonzero;fill:rgb(100%,100%,100%);fill-opacity:1;" d="M 926.355469 394.011719 C 926.355469 402.34375 919.605469 409.097656 911.277344 409.097656 C 902.945312 409.097656 896.195312 402.34375 896.195312 394.011719 C 896.195312 385.679688 902.945312 378.925781 911.277344 378.925781 C 919.605469 378.925781 926.355469 385.679688 926.355469 394.011719 Z M 926.355469 394.011719 "/>
<path style=" stroke:none;fill-rule:nonzero;fill:rgb(100%,100%,100%);fill-opacity:1;" d="M 926.355469 469.4375 C 926.355469 477.769531 919.605469 484.523438 911.277344 484.523438 C 902.945312 484.523438 896.195312 477.769531 896.195312 469.4375 C 896.195312 461.105469 902.945312 454.351562 911.277344 454.351562 C 919.605469 454.351562 926.355469 461.105469 926.355469 469.4375 Z M 926.355469 469.4375 "/>
<path style=" stroke:none;fill-rule:nonzero;fill:rgb(100%,100%,100%);fill-opacity:1;" d="M 264.90625 421.542969 C 264.90625 431.433594 256.886719 439.457031 246.996094 439.457031 C 237.105469 439.457031 229.089844 431.433594 229.089844 421.542969 C 229.089844 411.648438 237.105469 403.628906 246.996094 403.628906 C 256.886719 403.628906 264.90625 411.648438 264.90625 421.542969 Z M 264.90625 421.542969 "/>
<path style=" stroke:none;fill-rule:nonzero;fill:rgb(100%,100%,100%);fill-opacity:1;" d="M 359.15625 421.542969 C 359.15625 431.433594 351.136719 439.457031 341.246094 439.457031 C 331.355469 439.457031 323.339844 431.433594 323.339844 421.542969 C 323.339844 411.648438 331.355469 403.628906 341.246094 403.628906 C 351.136719 403.628906 359.15625 411.648438 359.15625 421.542969 Z M 359.15625 421.542969 "/>
<path style=" stroke:none;fill-rule:nonzero;fill:rgb(100%,100%,100%);fill-opacity:1;" d="M 453.40625 421.542969 C 453.40625 431.433594 445.386719 439.457031 435.496094 439.457031 C 425.609375 439.457031 417.589844 431.433594 417.589844 421.542969 C 417.589844 411.648438 425.609375 403.628906 435.496094 403.628906 C 445.386719 403.628906 453.40625 411.648438 453.40625 421.542969 Z M 453.40625 421.542969 "/>
<path style=" stroke:none;fill-rule:nonzero;fill:rgb(100%,100%,100%);fill-opacity:1;" d="M 547.65625 421.542969 C 547.65625 431.433594 539.640625 439.457031 529.75 439.457031 C 519.859375 439.457031 511.839844 431.433594 511.839844 421.542969 C 511.839844 411.648438 519.859375 403.628906 529.75 403.628906 C 539.640625 403.628906 547.65625 411.648438 547.65625 421.542969 Z M 547.65625 421.542969 "/>
<path style=" stroke:none;fill-rule:nonzero;fill:rgb(100%,100%,100%);fill-opacity:1;" d="M 641.90625 421.542969 C 641.90625 431.433594 633.890625 439.457031 624 439.457031 C 614.109375 439.457031 606.09375 431.433594 606.09375 421.542969 C 606.09375 411.648438 614.109375 403.628906 624 403.628906 C 633.890625 403.628906 641.90625 411.648438 641.90625 421.542969 Z M 641.90625 421.542969 "/>
<path style=" stroke:none;fill-rule:nonzero;fill:rgb(100%,100%,100%);fill-opacity:1;" d="M 810.425781 1714.734375 C 810.425781 1725.148438 801.988281 1733.59375 791.578125 1733.59375 C 781.167969 1733.59375 772.726562 1725.148438 772.726562 1714.734375 C 772.726562 1704.320312 781.167969 1695.878906 791.578125 1695.878906 C 801.988281 1695.878906 810.425781 1704.320312 810.425781 1714.734375 Z M 810.425781 1714.734375 "/>
<path style=" stroke:none;fill-rule:nonzero;fill:rgb(100%,100%,100%);fill-opacity:1;" d="M 714.667969 1714.734375 C 714.667969 1725.148438 706.230469 1733.59375 695.820312 1733.59375 C 685.40625 1733.59375 676.96875 1725.148438 676.96875 1714.734375 C 676.96875 1704.320312 685.40625 1695.878906 695.820312 1695.878906 C 706.230469 1695.878906 714.667969 1704.320312 714.667969 1714.734375 Z M 714.667969 1714.734375 "/>
<path style=" stroke:none;fill-rule:nonzero;fill:rgb(100%,100%,100%);fill-opacity:1;" d="M 618.910156 1714.734375 C 618.910156 1725.148438 610.46875 1733.59375 600.058594 1733.59375 C 589.648438 1733.59375 581.210938 1725.148438 581.210938 1714.734375 C 581.210938 1704.320312 589.648438 1695.878906 600.058594 1695.878906 C 610.46875 1695.878906 618.910156 1704.320312 618.910156 1714.734375 Z M 618.910156 1714.734375 "/>
<path style=" stroke:none;fill-rule:nonzero;fill:rgb(100%,100%,100%);fill-opacity:1;" d="M 523.152344 1714.734375 C 523.152344 1725.148438 514.710938 1733.59375 504.300781 1733.59375 C 493.890625 1733.59375 485.453125 1725.148438 485.453125 1714.734375 C 485.453125 1704.320312 493.890625 1695.878906 504.300781 1695.878906 C 514.710938 1695.878906 523.152344 1704.320312 523.152344 1714.734375 Z M 523.152344 1714.734375 "/>
<path style=" stroke:none;fill-rule:nonzero;fill:rgb(100%,100%,100%);fill-opacity:1;" d="M 427.394531 1714.734375 C 427.394531 1725.148438 418.953125 1733.59375 408.542969 1733.59375 C 398.132812 1733.59375 389.691406 1725.148438 389.691406 1714.734375 C 389.691406 1704.320312 398.132812 1695.878906 408.542969 1695.878906 C 418.953125 1695.878906 427.394531 1704.320312 427.394531 1714.734375 Z M 427.394531 1714.734375 "/>
<path style=" stroke:none;fill-rule:nonzero;fill:rgb(100%,100%,100%);fill-opacity:1;" d="M 331.632812 1714.734375 C 331.632812 1725.148438 323.195312 1733.59375 312.785156 1733.59375 C 302.375 1733.59375 293.933594 1725.148438 293.933594 1714.734375 C 293.933594 1704.320312 302.375 1695.878906 312.785156 1695.878906 C 323.195312 1695.878906 331.632812 1704.320312 331.632812 1714.734375 Z M 331.632812 1714.734375 "/>
</g>
</svg>
