G04 #@! TF.GenerationSoftware,KiCad,Pcbnew,(5.1.5)-3*
G04 #@! TF.CreationDate,2021-10-13T22:58:00+02:00*
G04 #@! TF.ProjectId,pcb,7063622e-6b69-4636-9164-5f7063625858,rev?*
G04 #@! TF.SameCoordinates,Original*
G04 #@! TF.FileFunction,Copper,L1,Top*
G04 #@! TF.FilePolarity,Positive*
%FSLAX46Y46*%
G04 Gerber Fmt 4.6, Leading zero omitted, Abs format (unit mm)*
G04 Created by KiCad (PCBNEW (5.1.5)-3) date 2021-10-13 22:58:00*
%MOMM*%
%LPD*%
G04 APERTURE LIST*
%ADD10C,1.600000*%
%ADD11R,1.600000X1.600000*%
%ADD12O,1.600000X1.600000*%
%ADD13O,1.700000X1.950000*%
%ADD14C,0.100000*%
%ADD15O,1.700000X1.700000*%
%ADD16R,1.700000X1.700000*%
%ADD17C,0.250000*%
G04 APERTURE END LIST*
D10*
X105410000Y-50070000D03*
D11*
X105410000Y-52070000D03*
X82550000Y-50800000D03*
D12*
X97790000Y-83820000D03*
X82550000Y-53340000D03*
X97790000Y-81280000D03*
X82550000Y-55880000D03*
X97790000Y-78740000D03*
X82550000Y-58420000D03*
X97790000Y-76200000D03*
X82550000Y-60960000D03*
X97790000Y-73660000D03*
X82550000Y-63500000D03*
X97790000Y-71120000D03*
X82550000Y-66040000D03*
X97790000Y-68580000D03*
X82550000Y-68580000D03*
X97790000Y-66040000D03*
X82550000Y-71120000D03*
X97790000Y-63500000D03*
X82550000Y-73660000D03*
X97790000Y-60960000D03*
X82550000Y-76200000D03*
X97790000Y-58420000D03*
X82550000Y-78740000D03*
X97790000Y-55880000D03*
X82550000Y-81280000D03*
X97790000Y-53340000D03*
X82550000Y-83820000D03*
X97790000Y-50800000D03*
X82550000Y-86360000D03*
X97790000Y-86360000D03*
D13*
X123030000Y-50800000D03*
X120530000Y-50800000D03*
X118030000Y-50800000D03*
X115530000Y-50800000D03*
G04 #@! TA.AperFunction,ComponentPad*
D14*
G36*
X113654594Y-49826203D02*
G01*
X113678853Y-49829802D01*
X113702642Y-49835761D01*
X113725733Y-49844023D01*
X113747902Y-49854508D01*
X113768937Y-49867116D01*
X113788635Y-49881725D01*
X113806806Y-49898194D01*
X113823275Y-49916365D01*
X113837884Y-49936063D01*
X113850492Y-49957098D01*
X113860977Y-49979267D01*
X113869239Y-50002358D01*
X113875198Y-50026147D01*
X113878797Y-50050406D01*
X113880000Y-50074900D01*
X113880000Y-51525100D01*
X113878797Y-51549594D01*
X113875198Y-51573853D01*
X113869239Y-51597642D01*
X113860977Y-51620733D01*
X113850492Y-51642902D01*
X113837884Y-51663937D01*
X113823275Y-51683635D01*
X113806806Y-51701806D01*
X113788635Y-51718275D01*
X113768937Y-51732884D01*
X113747902Y-51745492D01*
X113725733Y-51755977D01*
X113702642Y-51764239D01*
X113678853Y-51770198D01*
X113654594Y-51773797D01*
X113630100Y-51775000D01*
X112429900Y-51775000D01*
X112405406Y-51773797D01*
X112381147Y-51770198D01*
X112357358Y-51764239D01*
X112334267Y-51755977D01*
X112312098Y-51745492D01*
X112291063Y-51732884D01*
X112271365Y-51718275D01*
X112253194Y-51701806D01*
X112236725Y-51683635D01*
X112222116Y-51663937D01*
X112209508Y-51642902D01*
X112199023Y-51620733D01*
X112190761Y-51597642D01*
X112184802Y-51573853D01*
X112181203Y-51549594D01*
X112180000Y-51525100D01*
X112180000Y-50074900D01*
X112181203Y-50050406D01*
X112184802Y-50026147D01*
X112190761Y-50002358D01*
X112199023Y-49979267D01*
X112209508Y-49957098D01*
X112222116Y-49936063D01*
X112236725Y-49916365D01*
X112253194Y-49898194D01*
X112271365Y-49881725D01*
X112291063Y-49867116D01*
X112312098Y-49854508D01*
X112334267Y-49844023D01*
X112357358Y-49835761D01*
X112381147Y-49829802D01*
X112405406Y-49826203D01*
X112429900Y-49825000D01*
X113630100Y-49825000D01*
X113654594Y-49826203D01*
G37*
G04 #@! TD.AperFunction*
D12*
X110490000Y-59690000D03*
X128270000Y-72390000D03*
X113030000Y-59690000D03*
X125730000Y-72390000D03*
X115570000Y-59690000D03*
X123190000Y-72390000D03*
X118110000Y-59690000D03*
X120650000Y-72390000D03*
X120650000Y-59690000D03*
X118110000Y-72390000D03*
X123190000Y-59690000D03*
X115570000Y-72390000D03*
X125730000Y-59690000D03*
X113030000Y-72390000D03*
X128270000Y-59690000D03*
D11*
X110490000Y-72390000D03*
D15*
X113030000Y-80010000D03*
X115570000Y-80010000D03*
X118110000Y-80010000D03*
X120650000Y-80010000D03*
X123190000Y-80010000D03*
D16*
X125730000Y-80010000D03*
D17*
X109220000Y-60960000D02*
X110490000Y-59690000D01*
X97790000Y-60960000D02*
X109220000Y-60960000D01*
X121920000Y-66040000D02*
X128270000Y-59690000D01*
X97790000Y-66040000D02*
X121920000Y-66040000D01*
X115570000Y-59690000D02*
X118110000Y-59690000D01*
X101600000Y-54610000D02*
X97790000Y-50800000D01*
X128270000Y-69850000D02*
X133350000Y-64770000D01*
X128270000Y-72390000D02*
X128270000Y-69850000D01*
X133350000Y-64770000D02*
X133350000Y-55880000D01*
X132080000Y-54610000D02*
X101600000Y-54610000D01*
X133350000Y-55880000D02*
X132080000Y-54610000D01*
X105410000Y-52070000D02*
X105410000Y-54610000D01*
X125730000Y-80010000D02*
X125730000Y-72390000D01*
X125730000Y-72390000D02*
X125730000Y-69850000D01*
X125730000Y-69850000D02*
X132080000Y-63500000D01*
X132080000Y-63500000D02*
X132080000Y-57150000D01*
X132080000Y-57150000D02*
X130810000Y-55880000D01*
X100330000Y-55880000D02*
X97790000Y-53340000D01*
X130810000Y-55880000D02*
X100330000Y-55880000D01*
X112300000Y-50070000D02*
X113030000Y-50800000D01*
X105410000Y-50070000D02*
X112300000Y-50070000D01*
X93980000Y-52070000D02*
X95250000Y-53340000D01*
X104278630Y-50070000D02*
X102468630Y-48260000D01*
X93980000Y-50800000D02*
X93980000Y-52070000D01*
X105410000Y-50070000D02*
X104278630Y-50070000D01*
X102468630Y-48260000D02*
X96520000Y-48260000D01*
X95250000Y-53340000D02*
X97790000Y-53340000D01*
X96520000Y-48260000D02*
X93980000Y-50800000D01*
X113030000Y-80010000D02*
X101600000Y-68580000D01*
X101600000Y-68580000D02*
X97790000Y-68580000D01*
X120650000Y-59690000D02*
X123190000Y-59690000D01*
X123190000Y-59690000D02*
X125730000Y-59690000D01*
X120650000Y-80010000D02*
X120650000Y-72390000D01*
X118110000Y-80010000D02*
X118110000Y-72390000D01*
X115570000Y-80010000D02*
X115570000Y-72390000D01*
X113030000Y-59690000D02*
X109220000Y-63500000D01*
X97790000Y-63500000D02*
X109220000Y-63500000D01*
X123190000Y-80010000D02*
X123190000Y-72390000D01*
X125730000Y-59690000D02*
X125730000Y-58420000D01*
X125730000Y-58420000D02*
X127000000Y-57150000D01*
X127000000Y-57150000D02*
X129540000Y-57150000D01*
X129540000Y-57150000D02*
X130810000Y-58420000D01*
X130810000Y-58420000D02*
X130810000Y-62230000D01*
X130810000Y-62230000D02*
X123190000Y-69850000D01*
X115570000Y-69850000D02*
X113030000Y-72390000D01*
X123190000Y-69850000D02*
X115570000Y-69850000D01*
X97790000Y-58420000D02*
X99060000Y-58420000D01*
X99060000Y-58420000D02*
X100330000Y-57150000D01*
X118110000Y-57150000D02*
X120650000Y-59690000D01*
X100330000Y-57150000D02*
X118110000Y-57150000D01*
X92710000Y-53340000D02*
X97790000Y-58420000D01*
X92710000Y-49530000D02*
X92710000Y-53340000D01*
X112945000Y-46990000D02*
X95250000Y-46990000D01*
X115530000Y-49575000D02*
X112945000Y-46990000D01*
X95280010Y-46959990D02*
X95250000Y-46990000D01*
X115530000Y-50800000D02*
X115530000Y-49575000D01*
X95250000Y-46990000D02*
X92710000Y-49530000D01*
M02*
