solid CATIA STL
  facet normal  0.000000e+000 -1.000000e+000  0.000000e+000
    outer loop
      vertex -4.172736e+001  1.466865e+003  3.936261e+000
      vertex -4.470235e+001  1.466865e+003  2.163363e+001
      vertex -4.467936e+001  1.466865e+003  2.144909e+001
    endloop
  endfacet
  facet normal  0.000000e+000 -1.000000e+000  0.000000e+000
    outer loop
      vertex -4.172736e+001  1.466865e+003  3.936261e+000
      vertex -4.467936e+001  1.466865e+003  2.144909e+001
      vertex -4.467167e+001  1.466865e+003  2.126329e+001
    endloop
  endfacet
  facet normal  0.000000e+000 -1.000000e+000  0.000000e+000
    outer loop
      vertex -4.172736e+001  1.466865e+003  3.936261e+000
      vertex -4.467167e+001  1.466865e+003  2.126329e+001
      vertex -4.319864e+001  1.466865e+003  3.936261e+000
    endloop
  endfacet
  facet normal  0.000000e+000 -1.000000e+000  0.000000e+000
    outer loop
      vertex -4.172736e+001  1.466865e+003  2.639499e+001
      vertex -8.606704e+001  1.466865e+003  2.639499e+001
      vertex -8.606704e+001  1.466865e+003  2.351329e+001
    endloop
  endfacet
  facet normal  0.000000e+000 -1.000000e+000  0.000000e+000
    outer loop
      vertex -4.172736e+001  1.466865e+003  2.639499e+001
      vertex -8.606704e+001  1.466865e+003  2.351329e+001
      vertex -4.692167e+001  1.466865e+003  2.351329e+001
    endloop
  endfacet
  facet normal  0.000000e+000 -1.000000e+000  0.000000e+000
    outer loop
      vertex -4.172736e+001  1.466865e+003  2.639499e+001
      vertex -4.692167e+001  1.466865e+003  2.351329e+001
      vertex -4.673587e+001  1.466865e+003  2.350561e+001
    endloop
  endfacet
  facet normal  0.000000e+000 -1.000000e+000  0.000000e+000
    outer loop
      vertex -4.172736e+001  1.466865e+003  2.639499e+001
      vertex -4.673587e+001  1.466865e+003  2.350561e+001
      vertex -4.655133e+001  1.466865e+003  2.348260e+001
    endloop
  endfacet
  facet normal  0.000000e+000 -1.000000e+000  0.000000e+000
    outer loop
      vertex -4.172736e+001  1.466865e+003  2.639499e+001
      vertex -4.655133e+001  1.466865e+003  2.348260e+001
      vertex -4.636933e+001  1.466865e+003  2.344444e+001
    endloop
  endfacet
  facet normal  0.000000e+000 -1.000000e+000  0.000000e+000
    outer loop
      vertex -4.172736e+001  1.466865e+003  2.639499e+001
      vertex -4.636933e+001  1.466865e+003  2.344444e+001
      vertex -4.619109e+001  1.466865e+003  2.339138e+001
    endloop
  endfacet
  facet normal  0.000000e+000 -1.000000e+000  0.000000e+000
    outer loop
      vertex -4.172736e+001  1.466865e+003  2.639499e+001
      vertex -4.619109e+001  1.466865e+003  2.339138e+001
      vertex -4.601785e+001  1.466865e+003  2.332378e+001
    endloop
  endfacet
  facet normal  0.000000e+000 -1.000000e+000  0.000000e+000
    outer loop
      vertex -4.172736e+001  1.466865e+003  2.639499e+001
      vertex -4.601785e+001  1.466865e+003  2.332378e+001
      vertex -4.585079e+001  1.466865e+003  2.324211e+001
    endloop
  endfacet
  facet normal  0.000000e+000 -1.000000e+000  0.000000e+000
    outer loop
      vertex -4.172736e+001  1.466865e+003  2.639499e+001
      vertex -4.585079e+001  1.466865e+003  2.324211e+001
      vertex -4.569104e+001  1.466865e+003  2.314692e+001
    endloop
  endfacet
  facet normal  0.000000e+000 -1.000000e+000  0.000000e+000
    outer loop
      vertex -4.172736e+001  1.466865e+003  2.639499e+001
      vertex -4.569104e+001  1.466865e+003  2.314692e+001
      vertex -4.553969e+001  1.466865e+003  2.303886e+001
    endloop
  endfacet
  facet normal  0.000000e+000 -1.000000e+000  0.000000e+000
    outer loop
      vertex -4.172736e+001  1.466865e+003  2.639499e+001
      vertex -4.553969e+001  1.466865e+003  2.303886e+001
      vertex -4.539779e+001  1.466865e+003  2.291867e+001
    endloop
  endfacet
  facet normal  0.000000e+000 -1.000000e+000  0.000000e+000
    outer loop
      vertex -4.172736e+001  1.466865e+003  2.639499e+001
      vertex -4.539779e+001  1.466865e+003  2.291867e+001
      vertex -4.526629e+001  1.466865e+003  2.278717e+001
    endloop
  endfacet
  facet normal  0.000000e+000 -1.000000e+000  0.000000e+000
    outer loop
      vertex -4.172736e+001  1.466865e+003  2.639499e+001
      vertex -4.526629e+001  1.466865e+003  2.278717e+001
      vertex -4.514610e+001  1.466865e+003  2.264527e+001
    endloop
  endfacet
  facet normal  0.000000e+000 -1.000000e+000  0.000000e+000
    outer loop
      vertex -4.172736e+001  1.466865e+003  2.639499e+001
      vertex -4.514610e+001  1.466865e+003  2.264527e+001
      vertex -4.503804e+001  1.466865e+003  2.249392e+001
    endloop
  endfacet
  facet normal  0.000000e+000 -1.000000e+000  0.000000e+000
    outer loop
      vertex -4.172736e+001  1.466865e+003  2.639499e+001
      vertex -4.503804e+001  1.466865e+003  2.249392e+001
      vertex -4.494285e+001  1.466865e+003  2.233417e+001
    endloop
  endfacet
  facet normal  0.000000e+000 -1.000000e+000  0.000000e+000
    outer loop
      vertex -4.172736e+001  1.466865e+003  2.639499e+001
      vertex -4.494285e+001  1.466865e+003  2.233417e+001
      vertex -4.486118e+001  1.466865e+003  2.216710e+001
    endloop
  endfacet
  facet normal  0.000000e+000 -1.000000e+000  0.000000e+000
    outer loop
      vertex -4.172736e+001  1.466865e+003  2.639499e+001
      vertex -4.486118e+001  1.466865e+003  2.216710e+001
      vertex -4.479358e+001  1.466865e+003  2.199386e+001
    endloop
  endfacet
  facet normal  0.000000e+000 -1.000000e+000  0.000000e+000
    outer loop
      vertex -4.172736e+001  1.466865e+003  2.639499e+001
      vertex -4.479358e+001  1.466865e+003  2.199386e+001
      vertex -4.474052e+001  1.466865e+003  2.181563e+001
    endloop
  endfacet
  facet normal  0.000000e+000 -1.000000e+000  0.000000e+000
    outer loop
      vertex -4.172736e+001  1.466865e+003  2.639499e+001
      vertex -4.474052e+001  1.466865e+003  2.181563e+001
      vertex -4.470235e+001  1.466865e+003  2.163363e+001
    endloop
  endfacet
  facet normal  0.000000e+000 -1.000000e+000  0.000000e+000
    outer loop
      vertex -4.172736e+001  1.466865e+003  2.639499e+001
      vertex -4.470235e+001  1.466865e+003  2.163363e+001
      vertex -4.172736e+001  1.466865e+003  3.936261e+000
    endloop
  endfacet
  facet normal  0.000000e+000 -1.000000e+000  0.000000e+000
    outer loop
      vertex -4.467167e+001  1.466865e+003 -5.108137e-001
      vertex -4.319864e+001  1.466865e+003 -5.108137e-001
      vertex -4.467167e+001  1.466865e+003  2.126329e+001
    endloop
  endfacet
  facet normal  0.000000e+000 -1.000000e+000  0.000000e+000
    outer loop
      vertex -4.467167e+001  1.466865e+003  2.126329e+001
      vertex -4.319864e+001  1.466865e+003 -5.108137e-001
      vertex -4.319864e+001  1.466865e+003  3.936261e+000
    endloop
  endfacet
  facet normal  1.000000e+000  0.000000e+000  0.000000e+000
    outer loop
      vertex -4.172736e+001  1.491865e+003  4.315279e+001
      vertex -4.172736e+001  1.488394e+003  4.315279e+001
      vertex -4.172736e+001  1.467684e+003  2.800944e+001
    endloop
  endfacet
  facet normal  1.000000e+000  0.000000e+000  0.000000e+000
    outer loop
      vertex -4.172736e+001  1.491865e+003  4.315279e+001
      vertex -4.172736e+001  1.467684e+003  2.800944e+001
      vertex -4.172736e+001  1.467551e+003  2.790286e+001
    endloop
  endfacet
  facet normal  1.000000e+000  0.000000e+000  0.000000e+000
    outer loop
      vertex -4.172736e+001  1.491865e+003  4.315279e+001
      vertex -4.172736e+001  1.467551e+003  2.790286e+001
      vertex -4.172736e+001  1.467427e+003  2.778529e+001
    endloop
  endfacet
  facet normal  1.000000e+000  0.000000e+000  0.000000e+000
    outer loop
      vertex -4.172736e+001  1.491865e+003  4.315279e+001
      vertex -4.172736e+001  1.467427e+003  2.778529e+001
      vertex -4.172736e+001  1.467314e+003  2.765759e+001
    endloop
  endfacet
  facet normal  1.000000e+000  0.000000e+000  0.000000e+000
    outer loop
      vertex -4.172736e+001  1.491865e+003  4.315279e+001
      vertex -4.172736e+001  1.467314e+003  2.765759e+001
      vertex -4.172736e+001  1.467212e+003  2.752068e+001
    endloop
  endfacet
  facet normal  1.000000e+000  0.000000e+000  0.000000e+000
    outer loop
      vertex -4.172736e+001  1.491865e+003  4.315279e+001
      vertex -4.172736e+001  1.467212e+003  2.752068e+001
      vertex -4.172736e+001  1.467122e+003  2.737557e+001
    endloop
  endfacet
  facet normal  1.000000e+000  0.000000e+000  0.000000e+000
    outer loop
      vertex -4.172736e+001  1.491865e+003  4.315279e+001
      vertex -4.172736e+001  1.467122e+003  2.737557e+001
      vertex -4.172736e+001  1.467044e+003  2.722330e+001
    endloop
  endfacet
  facet normal  1.000000e+000  0.000000e+000  0.000000e+000
    outer loop
      vertex -4.172736e+001  1.491865e+003  4.315279e+001
      vertex -4.172736e+001  1.467044e+003  2.722330e+001
      vertex -4.172736e+001  1.466980e+003  2.706501e+001
    endloop
  endfacet
  facet normal  1.000000e+000  0.000000e+000  0.000000e+000
    outer loop
      vertex -4.172736e+001  1.491865e+003  4.315279e+001
      vertex -4.172736e+001  1.466980e+003  2.706501e+001
      vertex -4.172736e+001  1.466930e+003  2.690182e+001
    endloop
  endfacet
  facet normal  1.000000e+000  0.000000e+000  0.000000e+000
    outer loop
      vertex -4.172736e+001  1.491865e+003  4.315279e+001
      vertex -4.172736e+001  1.466930e+003  2.690182e+001
      vertex -4.172736e+001  1.466894e+003  2.673495e+001
    endloop
  endfacet
  facet normal  1.000000e+000  0.000000e+000  0.000000e+000
    outer loop
      vertex -4.172736e+001  1.491865e+003  4.315279e+001
      vertex -4.172736e+001  1.466894e+003  2.673495e+001
      vertex -4.172736e+001  1.466872e+003  2.656559e+001
    endloop
  endfacet
  facet normal  1.000000e+000  0.000000e+000  0.000000e+000
    outer loop
      vertex -4.172736e+001  1.491865e+003  4.315279e+001
      vertex -4.172736e+001  1.466872e+003  2.656559e+001
      vertex -4.172736e+001  1.466865e+003  2.639499e+001
    endloop
  endfacet
  facet normal  1.000000e+000  0.000000e+000  0.000000e+000
    outer loop
      vertex -4.172736e+001  1.491865e+003  4.315279e+001
      vertex -4.172736e+001  1.466865e+003  2.639499e+001
      vertex -4.172736e+001  1.466865e+003  3.936261e+000
    endloop
  endfacet
  facet normal  1.000000e+000  0.000000e+000  0.000000e+000
    outer loop
      vertex -4.172736e+001  1.491865e+003  4.315279e+001
      vertex -4.172736e+001  1.466865e+003  3.936261e+000
      vertex -4.172736e+001  1.491865e+003  3.936261e+000
    endloop
  endfacet
  facet normal -1.467154e-006 -5.902490e-001  8.072212e-001
    outer loop
      vertex -8.347736e+001  1.490104e+003  4.440279e+001
      vertex -8.347736e+001  1.486001e+003  4.140279e+001
      vertex -4.172736e+001  1.467684e+003  2.800944e+001
    endloop
  endfacet
  facet normal  4.324785e-007 -5.902467e-001  8.072229e-001
    outer loop
      vertex -8.347736e+001  1.490104e+003  4.440279e+001
      vertex -4.172736e+001  1.467684e+003  2.800944e+001
      vertex -4.172736e+001  1.488394e+003  4.315279e+001
    endloop
  endfacet
  facet normal -8.708071e-008 -5.902550e-001  8.072169e-001
    outer loop
      vertex -8.347736e+001  1.490104e+003  4.440279e+001
      vertex -4.172736e+001  1.488394e+003  4.315279e+001
      vertex -4.173466e+001  1.488725e+003  4.339433e+001
    endloop
  endfacet
  facet normal  3.869287e-006 -5.901769e-001  8.072739e-001
    outer loop
      vertex -8.347736e+001  1.490104e+003  4.440279e+001
      vertex -4.173466e+001  1.488725e+003  4.339433e+001
      vertex -4.175660e+001  1.489055e+003  4.363555e+001
    endloop
  endfacet
  facet normal -1.828283e-006 -5.903246e-001  8.071660e-001
    outer loop
      vertex -8.347736e+001  1.490104e+003  4.440279e+001
      vertex -4.175660e+001  1.489055e+003  4.363555e+001
      vertex -4.179331e+001  1.489384e+003  4.387615e+001
    endloop
  endfacet
  facet normal  1.094597e-006 -5.902143e-001  8.072466e-001
    outer loop
      vertex -8.347736e+001  1.490104e+003  4.440279e+001
      vertex -4.179331e+001  1.489384e+003  4.387615e+001
      vertex -4.184501e+001  1.489711e+003  4.411579e+001
    endloop
  endfacet
  facet normal  1.641509e-006 -5.901765e-001  8.072742e-001
    outer loop
      vertex -8.347736e+001  1.490104e+003  4.440279e+001
      vertex -4.184501e+001  1.489711e+003  4.411579e+001
      vertex -4.190671e+001  1.490014e+003  4.433711e+001
    endloop
  endfacet
  facet normal  1.360577e-006 -5.902613e-001  8.072122e-001
    outer loop
      vertex -8.347736e+001  1.490104e+003  4.440279e+001
      vertex -4.190671e+001  1.490014e+003  4.433711e+001
      vertex -4.198193e+001  1.490315e+003  4.455696e+001
    endloop
  endfacet
  facet normal  1.025589e-006 -5.902184e-001  8.072436e-001
    outer loop
      vertex -8.347736e+001  1.490104e+003  4.440279e+001
      vertex -4.198193e+001  1.490315e+003  4.455696e+001
      vertex -8.606704e+001  1.491486e+003  4.541366e+001
    endloop
  endfacet
  facet normal  0.000000e+000 -5.902196e-001  8.072428e-001
    outer loop
      vertex -8.347736e+001  1.490104e+003  4.440279e+001
      vertex -8.606704e+001  1.491486e+003  4.541366e+001
      vertex -8.606704e+001  1.490104e+003  4.440279e+001
    endloop
  endfacet
  facet normal -3.615883e-006 -5.903322e-001  8.071604e-001
    outer loop
      vertex -8.606704e+001  1.491486e+003  4.541366e+001
      vertex -4.198193e+001  1.490315e+003  4.455696e+001
      vertex -4.207107e+001  1.490613e+003  4.477498e+001
    endloop
  endfacet
  facet normal  1.033679e-006 -5.901796e-001  8.072720e-001
    outer loop
      vertex -8.606704e+001  1.491486e+003  4.541366e+001
      vertex -4.207107e+001  1.490613e+003  4.477498e+001
      vertex -4.217464e+001  1.490908e+003  4.499077e+001
    endloop
  endfacet
  facet normal -7.127983e-008 -5.902342e-001  8.072320e-001
    outer loop
      vertex -8.606704e+001  1.491486e+003  4.541366e+001
      vertex -4.217464e+001  1.490908e+003  4.499077e+001
      vertex -4.223258e+001  1.491056e+003  4.509868e+001
    endloop
  endfacet
  facet normal -2.680770e-006 -5.904073e-001  8.071055e-001
    outer loop
      vertex -8.606704e+001  1.491486e+003  4.541366e+001
      vertex -4.223258e+001  1.491056e+003  4.509868e+001
      vertex -4.229443e+001  1.491202e+003  4.520584e+001
    endloop
  endfacet
  facet normal -1.509065e-006 -5.902897e-001  8.071915e-001
    outer loop
      vertex -8.606704e+001  1.491486e+003  4.541366e+001
      vertex -4.229443e+001  1.491202e+003  4.520584e+001
      vertex -4.235904e+001  1.491345e+003  4.531019e+001
    endloop
  endfacet
  facet normal  0.000000e+000 -5.899860e-001  8.074135e-001
    outer loop
      vertex -8.606704e+001  1.491486e+003  4.541366e+001
      vertex -4.235904e+001  1.491345e+003  4.531019e+001
      vertex -4.242760e+001  1.491486e+003  4.541366e+001
    endloop
  endfacet
  facet normal  0.000000e+000 -5.902468e-001  8.072228e-001
    outer loop
      vertex -8.347736e+001  1.486001e+003  4.140279e+001
      vertex -8.606704e+001  1.486001e+003  4.140279e+001
      vertex -4.172736e+001  1.467684e+003  2.800944e+001
    endloop
  endfacet
  facet normal  0.000000e+000 -5.902469e-001  8.072228e-001
    outer loop
      vertex -4.172736e+001  1.467684e+003  2.800944e+001
      vertex -8.606704e+001  1.486001e+003  4.140279e+001
      vertex -8.606704e+001  1.467684e+003  2.800944e+001
    endloop
  endfacet
  facet normal -1.000000e+000  0.000000e+000  0.000000e+000
    outer loop
      vertex -8.606704e+001  1.466865e+003  2.351329e+001
      vertex -8.606704e+001  1.466865e+003  2.639499e+001
      vertex -8.606704e+001  1.466872e+003  2.656559e+001
    endloop
  endfacet
  facet normal -1.000000e+000  0.000000e+000  0.000000e+000
    outer loop
      vertex -8.606704e+001  1.466865e+003  2.351329e+001
      vertex -8.606704e+001  1.466872e+003  2.656559e+001
      vertex -8.606704e+001  1.466894e+003  2.673495e+001
    endloop
  endfacet
  facet normal -1.000000e+000  0.000000e+000  0.000000e+000
    outer loop
      vertex -8.606704e+001  1.466865e+003  2.351329e+001
      vertex -8.606704e+001  1.466894e+003  2.673495e+001
      vertex -8.606704e+001  1.466930e+003  2.690182e+001
    endloop
  endfacet
  facet normal -1.000000e+000  0.000000e+000  0.000000e+000
    outer loop
      vertex -8.606704e+001  1.466865e+003  2.351329e+001
      vertex -8.606704e+001  1.466930e+003  2.690182e+001
      vertex -8.606704e+001  1.466980e+003  2.706501e+001
    endloop
  endfacet
  facet normal -1.000000e+000  0.000000e+000  0.000000e+000
    outer loop
      vertex -8.606704e+001  1.466865e+003  2.351329e+001
      vertex -8.606704e+001  1.466980e+003  2.706501e+001
      vertex -8.606704e+001  1.467044e+003  2.722330e+001
    endloop
  endfacet
  facet normal -1.000000e+000  0.000000e+000  0.000000e+000
    outer loop
      vertex -8.606704e+001  1.466865e+003  2.351329e+001
      vertex -8.606704e+001  1.467044e+003  2.722330e+001
      vertex -8.606704e+001  1.467122e+003  2.737557e+001
    endloop
  endfacet
  facet normal -1.000000e+000  0.000000e+000  0.000000e+000
    outer loop
      vertex -8.606704e+001  1.466865e+003  2.351329e+001
      vertex -8.606704e+001  1.467122e+003  2.737557e+001
      vertex -8.606704e+001  1.467212e+003  2.752068e+001
    endloop
  endfacet
  facet normal -1.000000e+000  0.000000e+000  0.000000e+000
    outer loop
      vertex -8.606704e+001  1.466865e+003  2.351329e+001
      vertex -8.606704e+001  1.467212e+003  2.752068e+001
      vertex -8.606704e+001  1.467314e+003  2.765759e+001
    endloop
  endfacet
  facet normal -1.000000e+000  0.000000e+000  0.000000e+000
    outer loop
      vertex -8.606704e+001  1.466865e+003  2.351329e+001
      vertex -8.606704e+001  1.467314e+003  2.765759e+001
      vertex -8.606704e+001  1.467427e+003  2.778529e+001
    endloop
  endfacet
  facet normal -1.000000e+000  0.000000e+000  0.000000e+000
    outer loop
      vertex -8.606704e+001  1.466865e+003  2.351329e+001
      vertex -8.606704e+001  1.467427e+003  2.778529e+001
      vertex -8.606704e+001  1.467551e+003  2.790286e+001
    endloop
  endfacet
  facet normal -1.000000e+000  0.000000e+000  0.000000e+000
    outer loop
      vertex -8.606704e+001  1.466865e+003  2.351329e+001
      vertex -8.606704e+001  1.467551e+003  2.790286e+001
      vertex -8.606704e+001  1.467684e+003  2.800944e+001
    endloop
  endfacet
  facet normal -1.000000e+000  0.000000e+000  0.000000e+000
    outer loop
      vertex -8.606704e+001  1.466865e+003  2.351329e+001
      vertex -8.606704e+001  1.467684e+003  2.800944e+001
      vertex -8.606704e+001  1.468865e+003  2.351329e+001
    endloop
  endfacet
  facet normal -1.000000e+000  0.000000e+000  0.000000e+000
    outer loop
      vertex -8.606704e+001  1.486001e+003  4.140279e+001
      vertex -8.606704e+001  1.489390e+003  4.140279e+001
      vertex -8.606704e+001  1.467684e+003  2.800944e+001
    endloop
  endfacet
  facet normal -1.000000e+000  0.000000e+000  0.000000e+000
    outer loop
      vertex -8.606704e+001  1.467684e+003  2.800944e+001
      vertex -8.606704e+001  1.489390e+003  4.140279e+001
      vertex -8.606704e+001  1.468865e+003  2.639499e+001
    endloop
  endfacet
  facet normal -1.000000e+000  0.000000e+000  0.000000e+000
    outer loop
      vertex -8.606704e+001  1.467684e+003  2.800944e+001
      vertex -8.606704e+001  1.468865e+003  2.639499e+001
      vertex -8.606704e+001  1.468865e+003  2.351329e+001
    endloop
  endfacet
  facet normal  0.000000e+000 -9.990797e-001  4.289286e-002
    outer loop
      vertex -8.606704e+001  1.466865e+003  2.639499e+001
      vertex -4.172736e+001  1.466865e+003  2.639499e+001
      vertex -8.606704e+001  1.466872e+003  2.656559e+001
    endloop
  endfacet
  facet normal  0.000000e+000 -9.990797e-001  4.289286e-002
    outer loop
      vertex -8.606704e+001  1.466872e+003  2.656559e+001
      vertex -4.172736e+001  1.466865e+003  2.639499e+001
      vertex -4.172736e+001  1.466872e+003  2.656559e+001
    endloop
  endfacet
  facet normal  0.000000e+000 -9.918694e-001  1.272596e-001
    outer loop
      vertex -8.606704e+001  1.466872e+003  2.656559e+001
      vertex -4.172736e+001  1.466872e+003  2.656559e+001
      vertex -8.606704e+001  1.466894e+003  2.673495e+001
    endloop
  endfacet
  facet normal  0.000000e+000 -9.918694e-001  1.272596e-001
    outer loop
      vertex -8.606704e+001  1.466894e+003  2.673495e+001
      vertex -4.172736e+001  1.466872e+003  2.656559e+001
      vertex -4.172736e+001  1.466894e+003  2.673495e+001
    endloop
  endfacet
  facet normal  0.000000e+000 -9.772042e-001  2.123017e-001
    outer loop
      vertex -8.606704e+001  1.466894e+003  2.673495e+001
      vertex -4.172736e+001  1.466894e+003  2.673495e+001
      vertex -8.606704e+001  1.466930e+003  2.690182e+001
    endloop
  endfacet
  facet normal  0.000000e+000 -9.772042e-001  2.123017e-001
    outer loop
      vertex -8.606704e+001  1.466930e+003  2.690182e+001
      vertex -4.172736e+001  1.466894e+003  2.673495e+001
      vertex -4.172736e+001  1.466930e+003  2.690182e+001
    endloop
  endfacet
  facet normal  0.000000e+000 -9.556417e-001  2.945316e-001
    outer loop
      vertex -8.606704e+001  1.466930e+003  2.690182e+001
      vertex -4.172736e+001  1.466930e+003  2.690182e+001
      vertex -8.606704e+001  1.466980e+003  2.706501e+001
    endloop
  endfacet
  facet normal  0.000000e+000 -9.556417e-001  2.945316e-001
    outer loop
      vertex -8.606704e+001  1.466980e+003  2.706501e+001
      vertex -4.172736e+001  1.466930e+003  2.690182e+001
      vertex -4.172736e+001  1.466980e+003  2.706501e+001
    endloop
  endfacet
  facet normal  0.000000e+000 -9.271674e-001  3.746474e-001
    outer loop
      vertex -8.606704e+001  1.466980e+003  2.706501e+001
      vertex -4.172736e+001  1.466980e+003  2.706501e+001
      vertex -8.606704e+001  1.467044e+003  2.722330e+001
    endloop
  endfacet
  facet normal  0.000000e+000 -9.271674e-001  3.746474e-001
    outer loop
      vertex -8.606704e+001  1.467044e+003  2.722330e+001
      vertex -4.172736e+001  1.466980e+003  2.706501e+001
      vertex -4.172736e+001  1.467044e+003  2.722330e+001
    endloop
  endfacet
  facet normal  0.000000e+000 -8.917415e-001  4.525452e-001
    outer loop
      vertex -8.606704e+001  1.467044e+003  2.722330e+001
      vertex -4.172736e+001  1.467044e+003  2.722330e+001
      vertex -8.606704e+001  1.467122e+003  2.737557e+001
    endloop
  endfacet
  facet normal  0.000000e+000 -8.917415e-001  4.525452e-001
    outer loop
      vertex -8.606704e+001  1.467122e+003  2.737557e+001
      vertex -4.172736e+001  1.467044e+003  2.722330e+001
      vertex -4.172736e+001  1.467122e+003  2.737557e+001
    endloop
  endfacet
  facet normal  0.000000e+000 -8.499138e-001  5.269217e-001
    outer loop
      vertex -8.606704e+001  1.467122e+003  2.737557e+001
      vertex -4.172736e+001  1.467122e+003  2.737557e+001
      vertex -8.606704e+001  1.467212e+003  2.752068e+001
    endloop
  endfacet
  facet normal  0.000000e+000 -8.499138e-001  5.269217e-001
    outer loop
      vertex -8.606704e+001  1.467212e+003  2.752068e+001
      vertex -4.172736e+001  1.467122e+003  2.737557e+001
      vertex -4.172736e+001  1.467212e+003  2.752068e+001
    endloop
  endfacet
  facet normal  0.000000e+000 -8.017672e-001  5.976365e-001
    outer loop
      vertex -8.606704e+001  1.467212e+003  2.752068e+001
      vertex -4.172736e+001  1.467212e+003  2.752068e+001
      vertex -8.606704e+001  1.467314e+003  2.765759e+001
    endloop
  endfacet
  facet normal  0.000000e+000 -8.017672e-001  5.976365e-001
    outer loop
      vertex -8.606704e+001  1.467314e+003  2.765759e+001
      vertex -4.172736e+001  1.467212e+003  2.752068e+001
      vertex -4.172736e+001  1.467314e+003  2.765759e+001
    endloop
  endfacet
  facet normal  0.000000e+000 -7.477345e-001  6.639978e-001
    outer loop
      vertex -8.606704e+001  1.467314e+003  2.765759e+001
      vertex -4.172736e+001  1.467314e+003  2.765759e+001
      vertex -8.606704e+001  1.467427e+003  2.778529e+001
    endloop
  endfacet
  facet normal  0.000000e+000 -7.477345e-001  6.639978e-001
    outer loop
      vertex -8.606704e+001  1.467427e+003  2.778529e+001
      vertex -4.172736e+001  1.467314e+003  2.765759e+001
      vertex -4.172736e+001  1.467427e+003  2.778529e+001
    endloop
  endfacet
  facet normal  0.000000e+000 -6.886837e-001  7.250619e-001
    outer loop
      vertex -8.606704e+001  1.467427e+003  2.778529e+001
      vertex -4.172736e+001  1.467427e+003  2.778529e+001
      vertex -8.606704e+001  1.467551e+003  2.790286e+001
    endloop
  endfacet
  facet normal  0.000000e+000 -6.886837e-001  7.250619e-001
    outer loop
      vertex -8.606704e+001  1.467551e+003  2.790286e+001
      vertex -4.172736e+001  1.467427e+003  2.778529e+001
      vertex -4.172736e+001  1.467551e+003  2.790286e+001
    endloop
  endfacet
  facet normal  0.000000e+000 -6.241323e-001  7.813187e-001
    outer loop
      vertex -8.606704e+001  1.467551e+003  2.790286e+001
      vertex -4.172736e+001  1.467551e+003  2.790286e+001
      vertex -8.606704e+001  1.467684e+003  2.800944e+001
    endloop
  endfacet
  facet normal  0.000000e+000 -6.241323e-001  7.813187e-001
    outer loop
      vertex -8.606704e+001  1.467684e+003  2.800944e+001
      vertex -4.172736e+001  1.467551e+003  2.790286e+001
      vertex -4.172736e+001  1.467684e+003  2.800944e+001
    endloop
  endfacet
  facet normal -4.132423e-002  0.000000e+000 -9.991458e-001
    outer loop
      vertex -4.692167e+001  1.468865e+003  2.351329e+001
      vertex -4.673587e+001  1.466865e+003  2.350561e+001
      vertex -4.692167e+001  1.466865e+003  2.351329e+001
    endloop
  endfacet
  facet normal -4.132423e-002  0.000000e+000 -9.991458e-001
    outer loop
      vertex -4.692167e+001  1.468865e+003  2.351329e+001
      vertex -4.692167e+001  1.486865e+003  2.351329e+001
      vertex -4.673587e+001  1.466865e+003  2.350561e+001
    endloop
  endfacet
  facet normal -4.132423e-002  0.000000e+000 -9.991458e-001
    outer loop
      vertex -4.673587e+001  1.466865e+003  2.350561e+001
      vertex -4.692167e+001  1.486865e+003  2.351329e+001
      vertex -4.673587e+001  1.486865e+003  2.350561e+001
    endloop
  endfacet
  facet normal -1.236939e-001  0.000000e+000 -9.923204e-001
    outer loop
      vertex -4.673587e+001  1.466865e+003  2.350561e+001
      vertex -4.673587e+001  1.486865e+003  2.350561e+001
      vertex -4.655133e+001  1.466865e+003  2.348260e+001
    endloop
  endfacet
  facet normal -1.236939e-001  0.000000e+000 -9.923204e-001
    outer loop
      vertex -4.655133e+001  1.466865e+003  2.348260e+001
      vertex -4.673587e+001  1.486865e+003  2.350561e+001
      vertex -4.655133e+001  1.486865e+003  2.348260e+001
    endloop
  endfacet
  facet normal -2.052164e-001  0.000000e+000 -9.787166e-001
    outer loop
      vertex -4.655133e+001  1.466865e+003  2.348260e+001
      vertex -4.655133e+001  1.486865e+003  2.348260e+001
      vertex -4.636933e+001  1.466865e+003  2.344444e+001
    endloop
  endfacet
  facet normal -2.052164e-001  0.000000e+000 -9.787166e-001
    outer loop
      vertex -4.636933e+001  1.466865e+003  2.344444e+001
      vertex -4.655133e+001  1.486865e+003  2.348260e+001
      vertex -4.636933e+001  1.486865e+003  2.344444e+001
    endloop
  endfacet
  facet normal -2.853355e-001  0.000000e+000 -9.584277e-001
    outer loop
      vertex -4.636933e+001  1.466865e+003  2.344444e+001
      vertex -4.636933e+001  1.486865e+003  2.344444e+001
      vertex -4.619109e+001  1.466865e+003  2.339138e+001
    endloop
  endfacet
  facet normal -2.853355e-001  0.000000e+000 -9.584277e-001
    outer loop
      vertex -4.619109e+001  1.466865e+003  2.339138e+001
      vertex -4.636933e+001  1.486865e+003  2.344444e+001
      vertex -4.619109e+001  1.486865e+003  2.339138e+001
    endloop
  endfacet
  facet normal -3.635062e-001  0.000000e+000 -9.315917e-001
    outer loop
      vertex -4.619109e+001  1.466865e+003  2.339138e+001
      vertex -4.619109e+001  1.486865e+003  2.339138e+001
      vertex -4.601785e+001  1.466865e+003  2.332378e+001
    endloop
  endfacet
  facet normal -3.635062e-001  0.000000e+000 -9.315917e-001
    outer loop
      vertex -4.601785e+001  1.466865e+003  2.332378e+001
      vertex -4.619109e+001  1.486865e+003  2.339138e+001
      vertex -4.601785e+001  1.486865e+003  2.332378e+001
    endloop
  endfacet
  facet normal -4.392037e-001  0.000000e+000 -8.983875e-001
    outer loop
      vertex -4.601785e+001  1.466865e+003  2.332378e+001
      vertex -4.601785e+001  1.486865e+003  2.332378e+001
      vertex -4.585079e+001  1.466865e+003  2.324211e+001
    endloop
  endfacet
  facet normal -4.392037e-001  0.000000e+000 -8.983875e-001
    outer loop
      vertex -4.585079e+001  1.466865e+003  2.324211e+001
      vertex -4.601785e+001  1.486865e+003  2.332378e+001
      vertex -4.585079e+001  1.486865e+003  2.324211e+001
    endloop
  endfacet
  facet normal -5.118794e-001  0.000000e+000 -8.590573e-001
    outer loop
      vertex -4.585079e+001  1.466865e+003  2.324211e+001
      vertex -4.585079e+001  1.486865e+003  2.324211e+001
      vertex -4.569104e+001  1.466865e+003  2.314692e+001
    endloop
  endfacet
  facet normal -5.118794e-001  0.000000e+000 -8.590573e-001
    outer loop
      vertex -4.569104e+001  1.466865e+003  2.314692e+001
      vertex -4.585079e+001  1.486865e+003  2.324211e+001
      vertex -4.569104e+001  1.486865e+003  2.314692e+001
    endloop
  endfacet
  facet normal -5.810810e-001  0.000000e+000 -8.138458e-001
    outer loop
      vertex -4.569104e+001  1.466865e+003  2.314692e+001
      vertex -4.569104e+001  1.486865e+003  2.314692e+001
      vertex -4.553969e+001  1.466865e+003  2.303886e+001
    endloop
  endfacet
  facet normal -5.810810e-001  0.000000e+000 -8.138458e-001
    outer loop
      vertex -4.553969e+001  1.466865e+003  2.303886e+001
      vertex -4.569104e+001  1.486865e+003  2.314692e+001
      vertex -4.553969e+001  1.486865e+003  2.303886e+001
    endloop
  endfacet
  facet normal -6.462957e-001  0.000000e+000 -7.630870e-001
    outer loop
      vertex -4.553969e+001  1.466865e+003  2.303886e+001
      vertex -4.553969e+001  1.486865e+003  2.303886e+001
      vertex -4.539779e+001  1.466865e+003  2.291867e+001
    endloop
  endfacet
  facet normal -6.462957e-001  0.000000e+000 -7.630870e-001
    outer loop
      vertex -4.539779e+001  1.466865e+003  2.291867e+001
      vertex -4.553969e+001  1.486865e+003  2.303886e+001
      vertex -4.539779e+001  1.486865e+003  2.291867e+001
    endloop
  endfacet
  facet normal -7.071016e-001  0.000000e+000 -7.071119e-001
    outer loop
      vertex -4.539779e+001  1.466865e+003  2.291867e+001
      vertex -4.539779e+001  1.486865e+003  2.291867e+001
      vertex -4.526629e+001  1.466865e+003  2.278717e+001
    endloop
  endfacet
  facet normal -7.071016e-001  0.000000e+000 -7.071119e-001
    outer loop
      vertex -4.526629e+001  1.466865e+003  2.278717e+001
      vertex -4.539779e+001  1.486865e+003  2.291867e+001
      vertex -4.526629e+001  1.486865e+003  2.278717e+001
    endloop
  endfacet
  facet normal -7.630878e-001  0.000000e+000 -6.462948e-001
    outer loop
      vertex -4.526629e+001  1.466865e+003  2.278717e+001
      vertex -4.526629e+001  1.486865e+003  2.278717e+001
      vertex -4.514610e+001  1.466865e+003  2.264527e+001
    endloop
  endfacet
  facet normal -7.630878e-001  0.000000e+000 -6.462948e-001
    outer loop
      vertex -4.514610e+001  1.466865e+003  2.264527e+001
      vertex -4.526629e+001  1.486865e+003  2.278717e+001
      vertex -4.514610e+001  1.486865e+003  2.264527e+001
    endloop
  endfacet
  facet normal -8.138492e-001  0.000000e+000 -5.810761e-001
    outer loop
      vertex -4.514610e+001  1.466865e+003  2.264527e+001
      vertex -4.514610e+001  1.486865e+003  2.264527e+001
      vertex -4.503804e+001  1.466865e+003  2.249392e+001
    endloop
  endfacet
  facet normal -8.138492e-001  0.000000e+000 -5.810761e-001
    outer loop
      vertex -4.503804e+001  1.466865e+003  2.249392e+001
      vertex -4.514610e+001  1.486865e+003  2.264527e+001
      vertex -4.503804e+001  1.486865e+003  2.249392e+001
    endloop
  endfacet
  facet normal -8.590528e-001  0.000000e+000 -5.118870e-001
    outer loop
      vertex -4.503804e+001  1.466865e+003  2.249392e+001
      vertex -4.503804e+001  1.486865e+003  2.249392e+001
      vertex -4.494285e+001  1.466865e+003  2.233417e+001
    endloop
  endfacet
  facet normal -8.590528e-001  0.000000e+000 -5.118870e-001
    outer loop
      vertex -4.494285e+001  1.466865e+003  2.233417e+001
      vertex -4.503804e+001  1.486865e+003  2.249392e+001
      vertex -4.494285e+001  1.486865e+003  2.233417e+001
    endloop
  endfacet
  facet normal -8.983935e-001  0.000000e+000 -4.391914e-001
    outer loop
      vertex -4.494285e+001  1.466865e+003  2.233417e+001
      vertex -4.494285e+001  1.486865e+003  2.233417e+001
      vertex -4.486118e+001  1.466865e+003  2.216710e+001
    endloop
  endfacet
  facet normal -8.983935e-001  0.000000e+000 -4.391914e-001
    outer loop
      vertex -4.486118e+001  1.466865e+003  2.216710e+001
      vertex -4.494285e+001  1.486865e+003  2.233417e+001
      vertex -4.486118e+001  1.486865e+003  2.216710e+001
    endloop
  endfacet
  facet normal -9.315883e-001  0.000000e+000 -3.635151e-001
    outer loop
      vertex -4.486118e+001  1.466865e+003  2.216710e+001
      vertex -4.486118e+001  1.486865e+003  2.216710e+001
      vertex -4.479358e+001  1.466865e+003  2.199386e+001
    endloop
  endfacet
  facet normal -9.315883e-001  0.000000e+000 -3.635151e-001
    outer loop
      vertex -4.479358e+001  1.466865e+003  2.199386e+001
      vertex -4.486118e+001  1.486865e+003  2.216710e+001
      vertex -4.479358e+001  1.486865e+003  2.199386e+001
    endloop
  endfacet
  facet normal -9.584269e-001  0.000000e+000 -2.853383e-001
    outer loop
      vertex -4.479358e+001  1.466865e+003  2.199386e+001
      vertex -4.479358e+001  1.486865e+003  2.199386e+001
      vertex -4.474052e+001  1.466865e+003  2.181563e+001
    endloop
  endfacet
  facet normal -9.584269e-001  0.000000e+000 -2.853383e-001
    outer loop
      vertex -4.474052e+001  1.466865e+003  2.181563e+001
      vertex -4.479358e+001  1.486865e+003  2.199386e+001
      vertex -4.474052e+001  1.486865e+003  2.181563e+001
    endloop
  endfacet
  facet normal -9.787166e-001  0.000000e+000 -2.052164e-001
    outer loop
      vertex -4.474052e+001  1.466865e+003  2.181563e+001
      vertex -4.474052e+001  1.486865e+003  2.181563e+001
      vertex -4.470235e+001  1.466865e+003  2.163363e+001
    endloop
  endfacet
  facet normal -9.787166e-001  0.000000e+000 -2.052164e-001
    outer loop
      vertex -4.470235e+001  1.466865e+003  2.163363e+001
      vertex -4.474052e+001  1.486865e+003  2.181563e+001
      vertex -4.470235e+001  1.486865e+003  2.163363e+001
    endloop
  endfacet
  facet normal -9.923228e-001  0.000000e+000 -1.236750e-001
    outer loop
      vertex -4.470235e+001  1.466865e+003  2.163363e+001
      vertex -4.470235e+001  1.486865e+003  2.163363e+001
      vertex -4.467936e+001  1.466865e+003  2.144909e+001
    endloop
  endfacet
  facet normal -9.923228e-001  0.000000e+000 -1.236750e-001
    outer loop
      vertex -4.467936e+001  1.466865e+003  2.144909e+001
      vertex -4.470235e+001  1.486865e+003  2.163363e+001
      vertex -4.467936e+001  1.486865e+003  2.144909e+001
    endloop
  endfacet
  facet normal -9.991454e-001  0.000000e+000 -4.133404e-002
    outer loop
      vertex -4.467936e+001  1.466865e+003  2.144909e+001
      vertex -4.467936e+001  1.486865e+003  2.144909e+001
      vertex -4.467167e+001  1.466865e+003  2.126329e+001
    endloop
  endfacet
  facet normal -9.991454e-001  0.000000e+000 -4.133404e-002
    outer loop
      vertex -4.467167e+001  1.466865e+003  2.126329e+001
      vertex -4.467936e+001  1.486865e+003  2.144909e+001
      vertex -4.467167e+001  1.486865e+003  2.126329e+001
    endloop
  endfacet
  facet normal -1.000000e+000  0.000000e+000  0.000000e+000
    outer loop
      vertex -4.467167e+001  1.489390e+003  4.140279e+001
      vertex -4.467167e+001  1.491865e+003  4.140279e+001
      vertex -4.467167e+001  1.468865e+003  2.639499e+001
    endloop
  endfacet
  facet normal -1.000000e+000  0.000000e+000  0.000000e+000
    outer loop
      vertex -4.467167e+001  1.468865e+003  2.351329e+001
      vertex -4.467167e+001  1.468865e+003  2.639499e+001
      vertex -4.467167e+001  1.486865e+003  2.351329e+001
    endloop
  endfacet
  facet normal -1.000000e+000  0.000000e+000  0.000000e+000
    outer loop
      vertex -4.467167e+001  1.486865e+003  2.351329e+001
      vertex -4.467167e+001  1.468865e+003  2.639499e+001
      vertex -4.467167e+001  1.491865e+003  4.140279e+001
    endloop
  endfacet
  facet normal -1.000000e+000  0.000000e+000  0.000000e+000
    outer loop
      vertex -4.467167e+001  1.486865e+003  2.351329e+001
      vertex -4.467167e+001  1.491865e+003  4.140279e+001
      vertex -4.467167e+001  1.486865e+003  2.126329e+001
    endloop
  endfacet
  facet normal -1.000000e+000  0.000000e+000  0.000000e+000
    outer loop
      vertex -4.467167e+001  1.486865e+003  2.126329e+001
      vertex -4.467167e+001  1.491865e+003  4.140279e+001
      vertex -4.467167e+001  1.491865e+003 -5.108137e-001
    endloop
  endfacet
  facet normal -1.000000e+000  0.000000e+000  0.000000e+000
    outer loop
      vertex -4.467167e+001  1.486865e+003  2.126329e+001
      vertex -4.467167e+001  1.491865e+003 -5.108137e-001
      vertex -4.467167e+001  1.466865e+003  2.126329e+001
    endloop
  endfacet
  facet normal -1.000000e+000  0.000000e+000  0.000000e+000
    outer loop
      vertex -4.467167e+001  1.466865e+003  2.126329e+001
      vertex -4.467167e+001  1.491865e+003 -5.108137e-001
      vertex -4.467167e+001  1.466865e+003 -5.108137e-001
    endloop
  endfacet
  facet normal  0.000000e+000  0.000000e+000 -1.000000e+000
    outer loop
      vertex -4.692167e+001  1.468865e+003  2.351329e+001
      vertex -4.692167e+001  1.466865e+003  2.351329e+001
      vertex -8.606704e+001  1.468865e+003  2.351329e+001
    endloop
  endfacet
  facet normal  0.000000e+000  0.000000e+000 -1.000000e+000
    outer loop
      vertex -8.606704e+001  1.468865e+003  2.351329e+001
      vertex -4.692167e+001  1.466865e+003  2.351329e+001
      vertex -8.606704e+001  1.466865e+003  2.351329e+001
    endloop
  endfacet
  facet normal  0.000000e+000  0.000000e+000  1.000000e+000
    outer loop
      vertex -4.467167e+001  1.468865e+003  2.351329e+001
      vertex -4.467167e+001  1.486865e+003  2.351329e+001
      vertex -4.692167e+001  1.468865e+003  2.351329e+001
    endloop
  endfacet
  facet normal  0.000000e+000  0.000000e+000  1.000000e+000
    outer loop
      vertex -4.692167e+001  1.468865e+003  2.351329e+001
      vertex -4.467167e+001  1.486865e+003  2.351329e+001
      vertex -4.692167e+001  1.486865e+003  2.351329e+001
    endloop
  endfacet
  facet normal  0.000000e+000  1.000000e+000  0.000000e+000
    outer loop
      vertex -4.467167e+001  1.486865e+003  2.351329e+001
      vertex -4.467167e+001  1.486865e+003  2.126329e+001
      vertex -4.467936e+001  1.486865e+003  2.144909e+001
    endloop
  endfacet
  facet normal  0.000000e+000  1.000000e+000  0.000000e+000
    outer loop
      vertex -4.467167e+001  1.486865e+003  2.351329e+001
      vertex -4.467936e+001  1.486865e+003  2.144909e+001
      vertex -4.470235e+001  1.486865e+003  2.163363e+001
    endloop
  endfacet
  facet normal  0.000000e+000  1.000000e+000  0.000000e+000
    outer loop
      vertex -4.467167e+001  1.486865e+003  2.351329e+001
      vertex -4.470235e+001  1.486865e+003  2.163363e+001
      vertex -4.474052e+001  1.486865e+003  2.181563e+001
    endloop
  endfacet
  facet normal  0.000000e+000  1.000000e+000  0.000000e+000
    outer loop
      vertex -4.467167e+001  1.486865e+003  2.351329e+001
      vertex -4.474052e+001  1.486865e+003  2.181563e+001
      vertex -4.479358e+001  1.486865e+003  2.199386e+001
    endloop
  endfacet
  facet normal  0.000000e+000  1.000000e+000  0.000000e+000
    outer loop
      vertex -4.467167e+001  1.486865e+003  2.351329e+001
      vertex -4.479358e+001  1.486865e+003  2.199386e+001
      vertex -4.486118e+001  1.486865e+003  2.216710e+001
    endloop
  endfacet
  facet normal  0.000000e+000  1.000000e+000  0.000000e+000
    outer loop
      vertex -4.467167e+001  1.486865e+003  2.351329e+001
      vertex -4.486118e+001  1.486865e+003  2.216710e+001
      vertex -4.494285e+001  1.486865e+003  2.233417e+001
    endloop
  endfacet
  facet normal  0.000000e+000  1.000000e+000  0.000000e+000
    outer loop
      vertex -4.467167e+001  1.486865e+003  2.351329e+001
      vertex -4.494285e+001  1.486865e+003  2.233417e+001
      vertex -4.503804e+001  1.486865e+003  2.249392e+001
    endloop
  endfacet
  facet normal  0.000000e+000  1.000000e+000  0.000000e+000
    outer loop
      vertex -4.467167e+001  1.486865e+003  2.351329e+001
      vertex -4.503804e+001  1.486865e+003  2.249392e+001
      vertex -4.514610e+001  1.486865e+003  2.264527e+001
    endloop
  endfacet
  facet normal  0.000000e+000  1.000000e+000  0.000000e+000
    outer loop
      vertex -4.467167e+001  1.486865e+003  2.351329e+001
      vertex -4.514610e+001  1.486865e+003  2.264527e+001
      vertex -4.526629e+001  1.486865e+003  2.278717e+001
    endloop
  endfacet
  facet normal  0.000000e+000  1.000000e+000  0.000000e+000
    outer loop
      vertex -4.467167e+001  1.486865e+003  2.351329e+001
      vertex -4.526629e+001  1.486865e+003  2.278717e+001
      vertex -4.539779e+001  1.486865e+003  2.291867e+001
    endloop
  endfacet
  facet normal  0.000000e+000  1.000000e+000  0.000000e+000
    outer loop
      vertex -4.467167e+001  1.486865e+003  2.351329e+001
      vertex -4.539779e+001  1.486865e+003  2.291867e+001
      vertex -4.553969e+001  1.486865e+003  2.303886e+001
    endloop
  endfacet
  facet normal  0.000000e+000  1.000000e+000  0.000000e+000
    outer loop
      vertex -4.467167e+001  1.486865e+003  2.351329e+001
      vertex -4.553969e+001  1.486865e+003  2.303886e+001
      vertex -4.569104e+001  1.486865e+003  2.314692e+001
    endloop
  endfacet
  facet normal  0.000000e+000  1.000000e+000  0.000000e+000
    outer loop
      vertex -4.467167e+001  1.486865e+003  2.351329e+001
      vertex -4.569104e+001  1.486865e+003  2.314692e+001
      vertex -4.585079e+001  1.486865e+003  2.324211e+001
    endloop
  endfacet
  facet normal  0.000000e+000  1.000000e+000  0.000000e+000
    outer loop
      vertex -4.467167e+001  1.486865e+003  2.351329e+001
      vertex -4.585079e+001  1.486865e+003  2.324211e+001
      vertex -4.601785e+001  1.486865e+003  2.332378e+001
    endloop
  endfacet
  facet normal  0.000000e+000  1.000000e+000  0.000000e+000
    outer loop
      vertex -4.467167e+001  1.486865e+003  2.351329e+001
      vertex -4.601785e+001  1.486865e+003  2.332378e+001
      vertex -4.619109e+001  1.486865e+003  2.339138e+001
    endloop
  endfacet
  facet normal  0.000000e+000  1.000000e+000  0.000000e+000
    outer loop
      vertex -4.467167e+001  1.486865e+003  2.351329e+001
      vertex -4.619109e+001  1.486865e+003  2.339138e+001
      vertex -4.636933e+001  1.486865e+003  2.344444e+001
    endloop
  endfacet
  facet normal  0.000000e+000  1.000000e+000  0.000000e+000
    outer loop
      vertex -4.467167e+001  1.486865e+003  2.351329e+001
      vertex -4.636933e+001  1.486865e+003  2.344444e+001
      vertex -4.655133e+001  1.486865e+003  2.348260e+001
    endloop
  endfacet
  facet normal  0.000000e+000  1.000000e+000  0.000000e+000
    outer loop
      vertex -4.467167e+001  1.486865e+003  2.351329e+001
      vertex -4.655133e+001  1.486865e+003  2.348260e+001
      vertex -4.673587e+001  1.486865e+003  2.350561e+001
    endloop
  endfacet
  facet normal  0.000000e+000  1.000000e+000  0.000000e+000
    outer loop
      vertex -4.467167e+001  1.486865e+003  2.351329e+001
      vertex -4.673587e+001  1.486865e+003  2.350561e+001
      vertex -4.692167e+001  1.486865e+003  2.351329e+001
    endloop
  endfacet
  facet normal  0.000000e+000  1.000000e+000  0.000000e+000
    outer loop
      vertex -8.606704e+001  1.468865e+003  2.351329e+001
      vertex -8.606704e+001  1.468865e+003  2.639499e+001
      vertex -4.692167e+001  1.468865e+003  2.351329e+001
    endloop
  endfacet
  facet normal  0.000000e+000  1.000000e+000  0.000000e+000
    outer loop
      vertex -4.692167e+001  1.468865e+003  2.351329e+001
      vertex -8.606704e+001  1.468865e+003  2.639499e+001
      vertex -4.467167e+001  1.468865e+003  2.639499e+001
    endloop
  endfacet
  facet normal  0.000000e+000  1.000000e+000  0.000000e+000
    outer loop
      vertex -4.692167e+001  1.468865e+003  2.351329e+001
      vertex -4.467167e+001  1.468865e+003  2.639499e+001
      vertex -4.467167e+001  1.468865e+003  2.351329e+001
    endloop
  endfacet
  facet normal  0.000000e+000  5.902475e-001 -8.072223e-001
    outer loop
      vertex -8.160461e+001  1.489390e+003  4.140279e+001
      vertex -4.467167e+001  1.489390e+003  4.140279e+001
      vertex -4.467167e+001  1.468865e+003  2.639499e+001
    endloop
  endfacet
  facet normal  0.000000e+000  5.902475e-001 -8.072224e-001
    outer loop
      vertex -8.606704e+001  1.468865e+003  2.639499e+001
      vertex -8.606704e+001  1.489390e+003  4.140279e+001
      vertex -4.467167e+001  1.468865e+003  2.639499e+001
    endloop
  endfacet
  facet normal  0.000000e+000  5.902475e-001 -8.072224e-001
    outer loop
      vertex -4.467167e+001  1.468865e+003  2.639499e+001
      vertex -8.606704e+001  1.489390e+003  4.140279e+001
      vertex -8.347736e+001  1.489390e+003  4.140279e+001
    endloop
  endfacet
  facet normal  0.000000e+000  5.902475e-001 -8.072223e-001
    outer loop
      vertex -4.467167e+001  1.468865e+003  2.639499e+001
      vertex -8.347736e+001  1.489390e+003  4.140279e+001
      vertex -8.160461e+001  1.489390e+003  4.140279e+001
    endloop
  endfacet
  facet normal  0.000000e+000  0.000000e+000 -1.000000e+000
    outer loop
      vertex -4.467167e+001  1.491865e+003  4.140279e+001
      vertex -4.467167e+001  1.489390e+003  4.140279e+001
      vertex -8.347736e+001  1.491865e+003  4.140279e+001
    endloop
  endfacet
  facet normal  0.000000e+000  0.000000e+000 -1.000000e+000
    outer loop
      vertex -8.347736e+001  1.491865e+003  4.140279e+001
      vertex -4.467167e+001  1.489390e+003  4.140279e+001
      vertex -8.160461e+001  1.489390e+003  4.140279e+001
    endloop
  endfacet
  facet normal  0.000000e+000  0.000000e+000 -1.000000e+000
    outer loop
      vertex -8.347736e+001  1.491865e+003  4.140279e+001
      vertex -8.160461e+001  1.489390e+003  4.140279e+001
      vertex -8.347736e+001  1.489390e+003  4.140279e+001
    endloop
  endfacet
  facet normal  0.000000e+000  1.000000e+000  0.000000e+000
    outer loop
      vertex -4.198437e+001  1.491865e+003  4.456345e+001
      vertex -4.190643e+001  1.491865e+003  4.433620e+001
      vertex -8.347736e+001  1.491865e+003  4.440279e+001
    endloop
  endfacet
  facet normal  0.000000e+000  1.000000e+000  0.000000e+000
    outer loop
      vertex -8.606704e+001  1.491865e+003  4.440279e+001
      vertex -8.606704e+001  1.491865e+003  4.541366e+001
      vertex -4.242760e+001  1.491865e+003  4.541366e+001
    endloop
  endfacet
  facet normal  0.000000e+000  1.000000e+000  0.000000e+000
    outer loop
      vertex -8.606704e+001  1.491865e+003  4.440279e+001
      vertex -4.242760e+001  1.491865e+003  4.541366e+001
      vertex -4.229782e+001  1.491865e+003  4.521149e+001
    endloop
  endfacet
  facet normal  0.000000e+000  1.000000e+000  0.000000e+000
    outer loop
      vertex -8.606704e+001  1.491865e+003  4.440279e+001
      vertex -4.229782e+001  1.491865e+003  4.521149e+001
      vertex -4.218041e+001  1.491865e+003  4.500189e+001
    endloop
  endfacet
  facet normal  0.000000e+000  1.000000e+000  0.000000e+000
    outer loop
      vertex -8.606704e+001  1.491865e+003  4.440279e+001
      vertex -4.218041e+001  1.491865e+003  4.500189e+001
      vertex -4.207580e+001  1.491865e+003  4.478561e+001
    endloop
  endfacet
  facet normal  0.000000e+000  1.000000e+000  0.000000e+000
    outer loop
      vertex -8.606704e+001  1.491865e+003  4.440279e+001
      vertex -4.207580e+001  1.491865e+003  4.478561e+001
      vertex -4.198437e+001  1.491865e+003  4.456345e+001
    endloop
  endfacet
  facet normal  0.000000e+000  1.000000e+000  0.000000e+000
    outer loop
      vertex -8.606704e+001  1.491865e+003  4.440279e+001
      vertex -4.198437e+001  1.491865e+003  4.456345e+001
      vertex -8.347736e+001  1.491865e+003  4.440279e+001
    endloop
  endfacet
  facet normal  0.000000e+000  1.000000e+000  0.000000e+000
    outer loop
      vertex -8.347736e+001  1.491865e+003  4.140279e+001
      vertex -8.347736e+001  1.491865e+003  4.440279e+001
      vertex -4.190643e+001  1.491865e+003  4.433620e+001
    endloop
  endfacet
  facet normal  0.000000e+000  1.000000e+000  0.000000e+000
    outer loop
      vertex -8.347736e+001  1.491865e+003  4.140279e+001
      vertex -4.190643e+001  1.491865e+003  4.433620e+001
      vertex -4.184228e+001  1.491865e+003  4.410469e+001
    endloop
  endfacet
  facet normal  0.000000e+000  1.000000e+000  0.000000e+000
    outer loop
      vertex -8.347736e+001  1.491865e+003  4.140279e+001
      vertex -4.184228e+001  1.491865e+003  4.410469e+001
      vertex -4.179214e+001  1.491865e+003  4.386973e+001
    endloop
  endfacet
  facet normal  0.000000e+000  1.000000e+000  0.000000e+000
    outer loop
      vertex -8.347736e+001  1.491865e+003  4.140279e+001
      vertex -4.179214e+001  1.491865e+003  4.386973e+001
      vertex -4.175620e+001  1.491865e+003  4.363219e+001
    endloop
  endfacet
  facet normal  0.000000e+000  1.000000e+000  0.000000e+000
    outer loop
      vertex -8.347736e+001  1.491865e+003  4.140279e+001
      vertex -4.175620e+001  1.491865e+003  4.363219e+001
      vertex -4.173458e+001  1.491865e+003  4.339293e+001
    endloop
  endfacet
  facet normal  0.000000e+000  1.000000e+000  0.000000e+000
    outer loop
      vertex -8.347736e+001  1.491865e+003  4.140279e+001
      vertex -4.173458e+001  1.491865e+003  4.339293e+001
      vertex -4.172736e+001  1.491865e+003  4.315279e+001
    endloop
  endfacet
  facet normal  0.000000e+000  1.000000e+000  0.000000e+000
    outer loop
      vertex -8.347736e+001  1.491865e+003  4.140279e+001
      vertex -4.172736e+001  1.491865e+003  4.315279e+001
      vertex -4.467167e+001  1.491865e+003  4.140279e+001
    endloop
  endfacet
  facet normal  0.000000e+000  1.000000e+000  0.000000e+000
    outer loop
      vertex -4.319864e+001  1.491865e+003 -5.108137e-001
      vertex -4.467167e+001  1.491865e+003 -5.108137e-001
      vertex -4.319864e+001  1.491865e+003  3.936261e+000
    endloop
  endfacet
  facet normal  0.000000e+000  1.000000e+000  0.000000e+000
    outer loop
      vertex -4.319864e+001  1.491865e+003  3.936261e+000
      vertex -4.467167e+001  1.491865e+003 -5.108137e-001
      vertex -4.467167e+001  1.491865e+003  4.140279e+001
    endloop
  endfacet
  facet normal  0.000000e+000  1.000000e+000  0.000000e+000
    outer loop
      vertex -4.319864e+001  1.491865e+003  3.936261e+000
      vertex -4.467167e+001  1.491865e+003  4.140279e+001
      vertex -4.172736e+001  1.491865e+003  3.936261e+000
    endloop
  endfacet
  facet normal  0.000000e+000  1.000000e+000  0.000000e+000
    outer loop
      vertex -4.172736e+001  1.491865e+003  3.936261e+000
      vertex -4.467167e+001  1.491865e+003  4.140279e+001
      vertex -4.172736e+001  1.491865e+003  4.315279e+001
    endloop
  endfacet
  facet normal  0.000000e+000  0.000000e+000  1.000000e+000
    outer loop
      vertex -8.606704e+001  1.489390e+003  4.140279e+001
      vertex -8.606704e+001  1.486001e+003  4.140279e+001
      vertex -8.347736e+001  1.489390e+003  4.140279e+001
    endloop
  endfacet
  facet normal  0.000000e+000  0.000000e+000  1.000000e+000
    outer loop
      vertex -8.347736e+001  1.489390e+003  4.140279e+001
      vertex -8.606704e+001  1.486001e+003  4.140279e+001
      vertex -8.347736e+001  1.486001e+003  4.140279e+001
    endloop
  endfacet
  facet normal -1.000000e+000  0.000000e+000  0.000000e+000
    outer loop
      vertex -8.347736e+001  1.491865e+003  4.440279e+001
      vertex -8.347736e+001  1.491865e+003  4.140279e+001
      vertex -8.347736e+001  1.490104e+003  4.440279e+001
    endloop
  endfacet
  facet normal -1.000000e+000  0.000000e+000  0.000000e+000
    outer loop
      vertex -8.347736e+001  1.490104e+003  4.440279e+001
      vertex -8.347736e+001  1.491865e+003  4.140279e+001
      vertex -8.347736e+001  1.489390e+003  4.140279e+001
    endloop
  endfacet
  facet normal -1.000000e+000  0.000000e+000  0.000000e+000
    outer loop
      vertex -8.347736e+001  1.490104e+003  4.440279e+001
      vertex -8.347736e+001  1.489390e+003  4.140279e+001
      vertex -8.347736e+001  1.486001e+003  4.140279e+001
    endloop
  endfacet
  facet normal -1.000000e+000  0.000000e+000  0.000000e+000
    outer loop
      vertex -8.606704e+001  1.491865e+003  4.440279e+001
      vertex -8.606704e+001  1.490104e+003  4.440279e+001
      vertex -8.606704e+001  1.491865e+003  4.541366e+001
    endloop
  endfacet
  facet normal -1.000000e+000  0.000000e+000  0.000000e+000
    outer loop
      vertex -8.606704e+001  1.491865e+003  4.541366e+001
      vertex -8.606704e+001  1.490104e+003  4.440279e+001
      vertex -8.606704e+001  1.491486e+003  4.541366e+001
    endloop
  endfacet
  facet normal  0.000000e+000  0.000000e+000 -1.000000e+000
    outer loop
      vertex -8.347736e+001  1.490104e+003  4.440279e+001
      vertex -8.606704e+001  1.490104e+003  4.440279e+001
      vertex -8.347736e+001  1.491865e+003  4.440279e+001
    endloop
  endfacet
  facet normal  0.000000e+000  0.000000e+000 -1.000000e+000
    outer loop
      vertex -8.347736e+001  1.491865e+003  4.440279e+001
      vertex -8.606704e+001  1.490104e+003  4.440279e+001
      vertex -8.606704e+001  1.491865e+003  4.440279e+001
    endloop
  endfacet
  facet normal  8.415451e-001  0.000000e+000  5.401869e-001
    outer loop
      vertex -4.242760e+001  1.491865e+003  4.541366e+001
      vertex -4.242760e+001  1.491486e+003  4.541366e+001
      vertex -4.229782e+001  1.491865e+003  4.521149e+001
    endloop
  endfacet
  facet normal  8.369483e-001  5.353091e-003  5.472558e-001
    outer loop
      vertex -4.229782e+001  1.491865e+003  4.521149e+001
      vertex -4.242760e+001  1.491486e+003  4.541366e+001
      vertex -4.235904e+001  1.491345e+003  4.531019e+001
    endloop
  endfacet
  facet normal  8.501731e-001 -1.427375e-004  5.265032e-001
    outer loop
      vertex -4.229782e+001  1.491865e+003  4.521149e+001
      vertex -4.235904e+001  1.491345e+003  4.531019e+001
      vertex -4.229443e+001  1.491202e+003  4.520584e+001
    endloop
  endfacet
  facet normal  8.724464e-001  2.932936e-004  4.887097e-001
    outer loop
      vertex -4.229782e+001  1.491865e+003  4.521149e+001
      vertex -4.229443e+001  1.491202e+003  4.520584e+001
      vertex -4.218041e+001  1.491865e+003  4.500189e+001
    endloop
  endfacet
  facet normal  8.680834e-001  3.412615e-003  4.964066e-001
    outer loop
      vertex -4.218041e+001  1.491865e+003  4.500189e+001
      vertex -4.229443e+001  1.491202e+003  4.520584e+001
      vertex -4.223258e+001  1.491056e+003  4.509868e+001
    endloop
  endfacet
  facet normal  8.809244e-001 -1.843266e-004  4.732569e-001
    outer loop
      vertex -4.218041e+001  1.491865e+003  4.500189e+001
      vertex -4.223258e+001  1.491056e+003  4.509868e+001
      vertex -4.217464e+001  1.490908e+003  4.499077e+001
    endloop
  endfacet
  facet normal  9.002218e-001  3.715414e-004  4.354314e-001
    outer loop
      vertex -4.218041e+001  1.491865e+003  4.500189e+001
      vertex -4.217464e+001  1.490908e+003  4.499077e+001
      vertex -4.207580e+001  1.491865e+003  4.478561e+001
    endloop
  endfacet
  facet normal  9.013898e-001 -2.686531e-004  4.330084e-001
    outer loop
      vertex -4.207580e+001  1.491865e+003  4.478561e+001
      vertex -4.217464e+001  1.490908e+003  4.499077e+001
      vertex -4.207107e+001  1.490613e+003  4.477498e+001
    endloop
  endfacet
  facet normal  9.247415e-001  2.647357e-004  3.805956e-001
    outer loop
      vertex -4.207580e+001  1.491865e+003  4.478561e+001
      vertex -4.207107e+001  1.490613e+003  4.477498e+001
      vertex -4.198437e+001  1.491865e+003  4.456345e+001
    endloop
  endfacet
  facet normal  9.255562e-001 -1.271363e-004  3.786102e-001
    outer loop
      vertex -4.198437e+001  1.491865e+003  4.456345e+001
      vertex -4.207107e+001  1.490613e+003  4.477498e+001
      vertex -4.198193e+001  1.490315e+003  4.455696e+001
    endloop
  endfacet
  facet normal  9.459152e-001  1.318058e-004  3.244140e-001
    outer loop
      vertex -4.198437e+001  1.491865e+003  4.456345e+001
      vertex -4.198193e+001  1.490315e+003  4.455696e+001
      vertex -4.190643e+001  1.491865e+003  4.433620e+001
    endloop
  endfacet
  facet normal  9.461678e-001  1.446681e-005  3.236766e-001
    outer loop
      vertex -4.190643e+001  1.491865e+003  4.433620e+001
      vertex -4.198193e+001  1.490315e+003  4.455696e+001
      vertex -4.190671e+001  1.490014e+003  4.433711e+001
    endloop
  endfacet
  facet normal  9.636881e-001 -1.599433e-005  2.670304e-001
    outer loop
      vertex -4.190643e+001  1.491865e+003  4.433620e+001
      vertex -4.190671e+001  1.490014e+003  4.433711e+001
      vertex -4.184228e+001  1.491865e+003  4.410469e+001
    endloop
  endfacet
  facet normal  9.633263e-001  1.601590e-004  2.683327e-001
    outer loop
      vertex -4.184228e+001  1.491865e+003  4.410469e+001
      vertex -4.190671e+001  1.490014e+003  4.433711e+001
      vertex -4.184501e+001  1.489711e+003  4.411579e+001
    endloop
  endfacet
  facet normal  9.779786e-001 -1.659323e-004  2.087049e-001
    outer loop
      vertex -4.184228e+001  1.491865e+003  4.410469e+001
      vertex -4.184501e+001  1.489711e+003  4.411579e+001
      vertex -4.179214e+001  1.491865e+003  4.386973e+001
    endloop
  endfacet
  facet normal  9.775328e-001  8.251185e-005  2.107834e-001
    outer loop
      vertex -4.179214e+001  1.491865e+003  4.386973e+001
      vertex -4.184501e+001  1.489711e+003  4.411579e+001
      vertex -4.179331e+001  1.489384e+003  4.387615e+001
    endloop
  endfacet
  facet normal  9.887453e-001 -8.108890e-005  1.496083e-001
    outer loop
      vertex -4.179214e+001  1.491865e+003  4.386973e+001
      vertex -4.179331e+001  1.489384e+003  4.387615e+001
      vertex -4.175620e+001  1.491865e+003  4.363219e+001
    endloop
  endfacet
  facet normal  9.885677e-001  3.652567e-005  1.507775e-001
    outer loop
      vertex -4.175620e+001  1.491865e+003  4.363219e+001
      vertex -4.179331e+001  1.489384e+003  4.387615e+001
      vertex -4.175660e+001  1.489055e+003  4.363555e+001
    endloop
  endfacet
  facet normal  9.959433e-001 -3.716823e-005  8.998311e-002
    outer loop
      vertex -4.175620e+001  1.491865e+003  4.363219e+001
      vertex -4.175660e+001  1.489055e+003  4.363555e+001
      vertex -4.173458e+001  1.491865e+003  4.339293e+001
    endloop
  endfacet
  facet normal  9.958901e-001  1.387321e-005  9.056947e-002
    outer loop
      vertex -4.173458e+001  1.491865e+003  4.339293e+001
      vertex -4.175660e+001  1.489055e+003  4.363555e+001
      vertex -4.173466e+001  1.488725e+003  4.339433e+001
    endloop
  endfacet
  facet normal  9.995491e-001 -1.329066e-005  3.002617e-002
    outer loop
      vertex -4.173458e+001  1.491865e+003  4.339293e+001
      vertex -4.173466e+001  1.488725e+003  4.339433e+001
      vertex -4.172736e+001  1.491865e+003  4.315279e+001
    endloop
  endfacet
  facet normal  9.995439e-001  0.000000e+000  3.019880e-002
    outer loop
      vertex -4.172736e+001  1.491865e+003  4.315279e+001
      vertex -4.173466e+001  1.488725e+003  4.339433e+001
      vertex -4.172736e+001  1.488394e+003  4.315279e+001
    endloop
  endfacet
  facet normal  0.000000e+000  0.000000e+000  1.000000e+000
    outer loop
      vertex -8.606704e+001  1.491865e+003  4.541366e+001
      vertex -8.606704e+001  1.491486e+003  4.541366e+001
      vertex -4.242760e+001  1.491865e+003  4.541366e+001
    endloop
  endfacet
  facet normal  0.000000e+000  0.000000e+000  1.000000e+000
    outer loop
      vertex -4.242760e+001  1.491865e+003  4.541366e+001
      vertex -8.606704e+001  1.491486e+003  4.541366e+001
      vertex -4.242760e+001  1.491486e+003  4.541366e+001
    endloop
  endfacet
  facet normal  0.000000e+000  0.000000e+000 -1.000000e+000
    outer loop
      vertex -4.172736e+001  1.466865e+003  3.936261e+000
      vertex -4.319864e+001  1.466865e+003  3.936261e+000
      vertex -4.172736e+001  1.491865e+003  3.936261e+000
    endloop
  endfacet
  facet normal  0.000000e+000  0.000000e+000 -1.000000e+000
    outer loop
      vertex -4.172736e+001  1.491865e+003  3.936261e+000
      vertex -4.319864e+001  1.466865e+003  3.936261e+000
      vertex -4.319864e+001  1.491865e+003  3.936261e+000
    endloop
  endfacet
  facet normal  1.000000e+000  0.000000e+000  0.000000e+000
    outer loop
      vertex -4.319864e+001  1.466865e+003  3.936261e+000
      vertex -4.319864e+001  1.466865e+003 -5.108137e-001
      vertex -4.319864e+001  1.491865e+003  3.936261e+000
    endloop
  endfacet
  facet normal  1.000000e+000  0.000000e+000  0.000000e+000
    outer loop
      vertex -4.319864e+001  1.491865e+003  3.936261e+000
      vertex -4.319864e+001  1.466865e+003 -5.108137e-001
      vertex -4.319864e+001  1.491865e+003 -5.108137e-001
    endloop
  endfacet
  facet normal  0.000000e+000  0.000000e+000 -1.000000e+000
    outer loop
      vertex -4.319864e+001  1.466865e+003 -5.108137e-001
      vertex -4.467167e+001  1.466865e+003 -5.108137e-001
      vertex -4.319864e+001  1.491865e+003 -5.108137e-001
    endloop
  endfacet
  facet normal  0.000000e+000  0.000000e+000 -1.000000e+000
    outer loop
      vertex -4.319864e+001  1.491865e+003 -5.108137e-001
      vertex -4.467167e+001  1.466865e+003 -5.108137e-001
      vertex -4.467167e+001  1.491865e+003 -5.108137e-001
    endloop
  endfacet
endsolid CATIA STL
