solid CATIA STL
  facet normal -7.541384e-003 -7.521730e-003  9.999433e-001
    outer loop
      vertex  6.536930e+001  1.131788e+001  1.668334e+001
      vertex -2.317092e+001  1.603652e+001  1.605108e+001
      vertex -2.324631e+001  1.206066e+001  1.602061e+001
    endloop
  endfacet
  facet normal -7.541130e-003 -7.521617e-003  9.999433e-001
    outer loop
      vertex -2.538434e+001  1.707862e+001  1.604223e+001
      vertex -2.542076e+001  1.607931e+001  1.603444e+001
      vertex -2.317092e+001  1.603652e+001  1.605108e+001
    endloop
  endfacet
  facet normal -7.541410e-003 -7.522212e-003  9.999433e-001
    outer loop
      vertex -2.538434e+001  1.707862e+001  1.604223e+001
      vertex -2.317092e+001  1.603652e+001  1.605108e+001
      vertex  6.536930e+001  1.131788e+001  1.668334e+001
    endloop
  endfacet
  facet normal -7.541380e-003 -7.521738e-003  9.999433e-001
    outer loop
      vertex -2.538434e+001  1.707862e+001  1.604223e+001
      vertex  6.536930e+001  1.131788e+001  1.668334e+001
      vertex  6.542684e+001  1.435215e+001  1.670660e+001
    endloop
  endfacet
  facet normal -7.540592e-003 -7.495471e-003  9.999435e-001
    outer loop
      vertex -2.538434e+001  1.707862e+001  1.604223e+001
      vertex  6.542684e+001  1.435215e+001  1.670660e+001
      vertex  6.856029e+001  1.429194e+001  1.672978e+001
    endloop
  endfacet
  facet normal -7.541366e-003 -7.521622e-003  9.999433e-001
    outer loop
      vertex -2.538434e+001  1.707862e+001  1.604223e+001
      vertex  6.856029e+001  1.429194e+001  1.672978e+001
      vertex  6.863313e+001  1.629056e+001  1.674536e+001
    endloop
  endfacet
  facet normal  7.541372e-003  7.521676e-003 -9.999433e-001
    outer loop
      vertex -2.312188e+001  1.218477e+001 -4.784547e-001
      vertex -2.304649e+001  1.616063e+001 -4.479793e-001
      vertex  6.549374e+001  1.144199e+001  1.842793e-001
    endloop
  endfacet
  facet normal  7.541372e-003  7.521681e-003 -9.999433e-001
    outer loop
      vertex -2.525990e+001  1.720272e+001 -4.568337e-001
      vertex  6.875756e+001  1.641466e+001  2.462993e-001
      vertex  6.868472e+001  1.441605e+001  2.307162e-001
    endloop
  endfacet
  facet normal  7.541367e-003  7.521500e-003 -9.999433e-001
    outer loop
      vertex -2.525990e+001  1.720272e+001 -4.568337e-001
      vertex  6.868472e+001  1.441605e+001  2.307162e-001
      vertex  6.555127e+001  1.447625e+001  2.075372e-001
    endloop
  endfacet
  facet normal  7.541372e-003  7.521672e-003 -9.999433e-001
    outer loop
      vertex -2.525990e+001  1.720272e+001 -4.568337e-001
      vertex  6.555127e+001  1.447625e+001  2.075372e-001
      vertex  6.549374e+001  1.144199e+001  1.842793e-001
    endloop
  endfacet
  facet normal  7.541370e-003  7.521642e-003 -9.999433e-001
    outer loop
      vertex -2.525990e+001  1.720272e+001 -4.568337e-001
      vertex  6.549374e+001  1.144199e+001  1.842793e-001
      vertex -2.304649e+001  1.616063e+001 -4.479793e-001
    endloop
  endfacet
  facet normal  7.541376e-003  7.521682e-003 -9.999433e-001
    outer loop
      vertex -2.525990e+001  1.720272e+001 -4.568337e-001
      vertex -2.304649e+001  1.616063e+001 -4.479793e-001
      vertex -2.529633e+001  1.620342e+001 -4.646253e-001
    endloop
  endfacet
  facet normal -9.993080e-001  3.647944e-002 -7.262118e-003
    outer loop
      vertex -2.525990e+001  1.720272e+001 -4.568337e-001
      vertex -2.529633e+001  1.620342e+001 -4.646253e-001
      vertex -2.538434e+001  1.707862e+001  1.604223e+001
    endloop
  endfacet
  facet normal -9.993079e-001  3.648134e-002 -7.262219e-003
    outer loop
      vertex -2.538434e+001  1.707862e+001  1.604223e+001
      vertex -2.529633e+001  1.620342e+001 -4.646253e-001
      vertex -2.542076e+001  1.607931e+001  1.603444e+001
    endloop
  endfacet
  facet normal  8.324797e-003  9.999366e-001  7.584389e-003
    outer loop
      vertex  6.863313e+001  1.629056e+001  1.674536e+001
      vertex  6.875756e+001  1.641466e+001  2.462993e-001
      vertex -2.538434e+001  1.707862e+001  1.604223e+001
    endloop
  endfacet
  facet normal  8.324798e-003  9.999366e-001  7.584392e-003
    outer loop
      vertex -2.538434e+001  1.707862e+001  1.604223e+001
      vertex  6.875756e+001  1.641466e+001  2.462993e-001
      vertex -2.525990e+001  1.720272e+001 -4.568337e-001
    endloop
  endfacet
  facet normal  9.993080e-001 -3.647944e-002  7.261887e-003
    outer loop
      vertex  6.868472e+001  1.441605e+001  2.307162e-001
      vertex  6.875756e+001  1.641466e+001  2.462993e-001
      vertex  6.856029e+001  1.429194e+001  1.672978e+001
    endloop
  endfacet
  facet normal  9.993080e-001 -3.647944e-002  7.261887e-003
    outer loop
      vertex  6.856029e+001  1.429194e+001  1.672978e+001
      vertex  6.875756e+001  1.641466e+001  2.462993e-001
      vertex  6.863313e+001  1.629056e+001  1.674536e+001
    endloop
  endfacet
  facet normal -1.915212e-002 -9.997872e-001 -7.664919e-003
    outer loop
      vertex  6.555127e+001  1.447625e+001  2.075372e-001
      vertex  6.868472e+001  1.441605e+001  2.307162e-001
      vertex  6.542684e+001  1.435215e+001  1.670660e+001
    endloop
  endfacet
  facet normal -1.915212e-002 -9.997872e-001 -7.664920e-003
    outer loop
      vertex  6.542684e+001  1.435215e+001  1.670660e+001
      vertex  6.868472e+001  1.441605e+001  2.307162e-001
      vertex  6.856029e+001  1.429194e+001  1.672978e+001
    endloop
  endfacet
  facet normal  9.997919e-001 -1.901395e-002  7.397373e-003
    outer loop
      vertex  6.549374e+001  1.144199e+001  1.842793e-001
      vertex  6.555127e+001  1.447625e+001  2.075372e-001
      vertex  6.536930e+001  1.131788e+001  1.668334e+001
    endloop
  endfacet
  facet normal  9.997918e-001 -1.901645e-002  7.396892e-003
    outer loop
      vertex  6.536930e+001  1.131788e+001  1.668334e+001
      vertex  6.555127e+001  1.447625e+001  2.075372e-001
      vertex  6.542684e+001  1.435215e+001  1.670660e+001
    endloop
  endfacet
  facet normal -8.324798e-003 -9.999366e-001 -7.584451e-003
    outer loop
      vertex -2.324631e+001  1.206066e+001  1.602061e+001
      vertex -2.312188e+001  1.218477e+001 -4.784547e-001
      vertex  6.536930e+001  1.131788e+001  1.668334e+001
    endloop
  endfacet
  facet normal -8.324798e-003 -9.999366e-001 -7.584450e-003
    outer loop
      vertex  6.536930e+001  1.131788e+001  1.668334e+001
      vertex -2.312188e+001  1.218477e+001 -4.784547e-001
      vertex  6.549374e+001  1.144199e+001  1.842793e-001
    endloop
  endfacet
  facet normal -9.997919e-001  1.901418e-002 -7.397141e-003
    outer loop
      vertex -2.304649e+001  1.616063e+001 -4.479793e-001
      vertex -2.312188e+001  1.218477e+001 -4.784547e-001
      vertex -2.317092e+001  1.603652e+001  1.605108e+001
    endloop
  endfacet
  facet normal -9.997919e-001  1.901466e-002 -7.397253e-003
    outer loop
      vertex -2.317092e+001  1.603652e+001  1.605108e+001
      vertex -2.312188e+001  1.218477e+001 -4.784547e-001
      vertex -2.324631e+001  1.206066e+001  1.602061e+001
    endloop
  endfacet
  facet normal -1.895740e-002 -9.997909e-001 -7.663487e-003
    outer loop
      vertex -2.529633e+001  1.620342e+001 -4.646253e-001
      vertex -2.304649e+001  1.616063e+001 -4.479793e-001
      vertex -2.542076e+001  1.607931e+001  1.603444e+001
    endloop
  endfacet
  facet normal -1.895739e-002 -9.997909e-001 -7.663485e-003
    outer loop
      vertex -2.542076e+001  1.607931e+001  1.603444e+001
      vertex -2.304649e+001  1.616063e+001 -4.479793e-001
      vertex -2.317092e+001  1.603652e+001  1.605108e+001
    endloop
  endfacet
endsolid CATIA STL
